  0
SECTION
  2
HEADER
  9
$ACADVER
  1
AC1006
  9
$EXTMIN
 10
0.000000
 20
0.000000
 30
0.000000
  9
$EXTMAX
 10
1600.000000
 20
1131.000000
 30
0.000000
  0
ENDSEC
  0
SECTION
  2
ENTITIES
  0
POLYLINE
  8
0
 66
1
 70
1
  0
VERTEX
  8
0
 10
801.000000
 20
854.859319
 42
0.015853
  0
VERTEX
  8
0
 10
782.425680
 20
853.447561
 42
0.019098
  0
VERTEX
  8
0
 10
765.107008
 20
850.905240
 42
0.018872
  0
VERTEX
  8
0
 10
747.860816
 20
847.018109
 42
0.014845
  0
VERTEX
  8
0
 10
729.500000
 20
841.556720
 42
0.018966
  0
VERTEX
  8
0
 10
708.073289
 20
833.571551
 42
0.021085
  0
VERTEX
  8
0
 10
688.073984
 20
824.233855
 42
0.021135
  0
VERTEX
  8
0
 10
668.974761
 20
813.266733
 42
0.019245
  0
VERTEX
  8
0
 10
650.245709
 20
800.398526
 42
0.024519
  0
VERTEX
  8
0
 10
637.457257
 20
789.854273
 42
0.011614
  0
VERTEX
  8
0
 10
621.990952
 20
775.102272
 42
0.011610
  0
VERTEX
  8
0
 10
607.238838
 20
759.661264
 42
0.024740
  0
VERTEX
  8
0
 10
596.733049
 20
746.929466
 42
0.018057
  0
VERTEX
  8
0
 10
585.367583
 20
730.469543
 42
0.015927
  0
VERTEX
  8
0
 10
574.708832
 20
712.540226
 42
0.016157
  0
VERTEX
  8
0
 10
565.388183
 20
694.290475
 42
0.020584
  0
VERTEX
  8
0
 10
558.051165
 20
676.874641
 42
0.000000
  0
VERTEX
  8
0
 10
554.828584
 20
668.249283
 42
0.000000
  0
VERTEX
  8
0
 10
551.664292
 20
669.000974
 42
-0.002064
  0
VERTEX
  8
0
 10
549.940911
 20
669.417894
 42
-0.000493
  0
VERTEX
  8
0
 10
547.079511
 20
670.125632
 42
-0.000507
  0
VERTEX
  8
0
 10
543.794878
 20
670.945025
 42
-0.000501
  0
VERTEX
  8
0
 10
540.500000
 20
671.774031
 42
0.016155
  0
VERTEX
  8
0
 10
527.848504
 20
674.539246
 42
0.014215
  0
VERTEX
  8
0
 10
514.494392
 20
676.618337
 42
0.014191
  0
VERTEX
  8
0
 10
501.018189
 20
677.938347
 42
0.015934
  0
VERTEX
  8
0
 10
488.000000
 20
678.425369
 42
0.004958
  0
VERTEX
  8
0
 10
480.340930
 20
678.391768
 42
0.024627
  0
VERTEX
  8
0
 10
476.045850
 20
678.118464
 42
0.041421
  0
VERTEX
  8
0
 10
472.941730
 20
677.503482
 42
0.038728
  0
VERTEX
  8
0
 10
469.907855
 20
676.376057
 42
0.057009
  0
VERTEX
  8
0
 10
465.763739
 20
673.851733
 42
0.080258
  0
VERTEX
  8
0
 10
462.820480
 20
670.689943
 42
0.080501
  0
VERTEX
  8
0
 10
461.028403
 20
666.769889
 42
0.057731
  0
VERTEX
  8
0
 10
460.293838
 20
662.000000
 42
-0.000367
  0
VERTEX
  8
0
 10
460.211667
 20
659.849974
 42
-0.000524
  0
VERTEX
  8
0
 10
460.135359
 20
657.942464
 42
-0.000283
  0
VERTEX
  8
0
 10
460.068169
 20
656.328127
 42
-0.008017
  0
VERTEX
  8
0
 10
460.043838
 20
655.910515
 42
-0.205056
  0
VERTEX
  8
0
 10
459.892541
 20
655.619000
 42
-0.022718
  0
VERTEX
  8
0
 10
459.277828
 20
655.159280
 42
-0.024728
  0
VERTEX
  8
0
 10
458.459392
 20
654.660576
 42
-0.017573
  0
VERTEX
  8
0
 10
457.497703
 20
654.180907
 42
0.098389
  0
VERTEX
  8
0
 10
454.951908
 20
652.349287
 42
0.065846
  0
VERTEX
  8
0
 10
452.862217
 20
649.418926
 42
0.061208
  0
VERTEX
  8
0
 10
451.476924
 20
645.801373
 42
0.060731
  0
VERTEX
  8
0
 10
451.003738
 20
641.946344
 42
0.163087
  0
VERTEX
  8
0
 10
455.341875
 20
628.964627
 42
0.045676
  0
VERTEX
  8
0
 10
469.918895
 20
612.907537
 42
0.033208
  0
VERTEX
  8
0
 10
493.643289
 20
593.879161
 42
0.013480
  0
VERTEX
  8
0
 10
528.250000
 20
571.074815
 42
0.000000
  0
VERTEX
  8
0
 10
540.000000
 20
563.778545
 42
0.000000
  0
VERTEX
  8
0
 10
540.000000
 20
558.609414
 42
0.017338
  0
VERTEX
  8
0
 10
540.096630
 20
555.823579
 42
0.004361
  0
VERTEX
  8
0
 10
540.450833
 20
551.295611
 42
0.004447
  0
VERTEX
  8
0
 10
540.947233
 20
546.123476
 42
0.004471
  0
VERTEX
  8
0
 10
541.534751
 20
540.970141
 42
0.075343
  0
VERTEX
  8
0
 10
565.781299
 20
454.325759
 42
0.077041
  0
VERTEX
  8
0
 10
614.495330
 20
379.489937
 42
0.077656
  0
VERTEX
  8
0
 10
683.186292
 20
323.374332
 42
0.078407
  0
VERTEX
  8
0
 10
765.500000
 20
291.117621
 42
0.026338
  0
VERTEX
  8
0
 10
790.611246
 20
286.953684
 42
0.021908
  0
VERTEX
  8
0
 10
817.619933
 20
285.118284
 42
0.021886
  0
VERTEX
  8
0
 10
844.718732
 20
285.652798
 42
0.026103
  0
VERTEX
  8
0
 10
870.101222
 20
288.602244
 42
0.019849
  0
VERTEX
  8
0
 10
889.671204
 20
292.723703
 42
0.018777
  0
VERTEX
  8
0
 10
909.223693
 20
298.448065
 42
0.018516
  0
VERTEX
  8
0
 10
928.564373
 20
305.714435
 42
0.018003
  0
VERTEX
  8
0
 10
947.500000
 20
314.454205
 42
0.018149
  0
VERTEX
  8
0
 10
967.392329
 20
325.443556
 42
0.022693
  0
VERTEX
  8
0
 10
984.958998
 20
337.113761
 42
0.022421
  0
VERTEX
  8
0
 10
1001.564600
 20
350.448971
 42
0.017020
  0
VERTEX
  8
0
 10
1018.565953
 20
366.462021
 42
0.000000
  0
VERTEX
  8
0
 10
1032.631905
 20
380.644080
 42
0.000000
  0
VERTEX
  8
0
 10
1049.065953
 20
377.801108
 42
-0.000530
  0
VERTEX
  8
0
 10
1055.981175
 20
376.597270
 42
-0.000472
  0
VERTEX
  8
0
 10
1063.169374
 20
375.331066
 42
-0.000473
  0
VERTEX
  8
0
 10
1069.633422
 20
374.179824
 42
-0.001460
  0
VERTEX
  8
0
 10
1074.000000
 20
373.384712
 42
0.021585
  0
VERTEX
  8
0
 10
1078.889695
 20
372.696274
 42
0.007052
  0
VERTEX
  8
0
 10
1086.149043
 20
372.095227
 42
0.006468
  0
VERTEX
  8
0
 10
1094.857164
 20
371.610837
 42
0.004746
  0
VERTEX
  8
0
 10
1104.525498
 20
371.290309
 42
0.002946
  0
VERTEX
  8
0
 10
1116.514341
 20
371.077405
 42
0.012757
  0
VERTEX
  8
0
 10
1123.631699
 20
371.174544
 42
0.021223
  0
VERTEX
  8
0
 10
1128.658164
 20
371.585609
 42
0.030934
  0
VERTEX
  8
0
 10
1133.025498
 20
372.406914
 42
0.044486
  0
VERTEX
  8
0
 10
1140.090754
 20
374.879519
 42
0.094740
  0
VERTEX
  8
0
 10
1144.802054
 20
378.203811
 42
0.113304
  0
VERTEX
  8
0
 10
1147.446534
 20
382.597919
 42
0.082989
  0
VERTEX
  8
0
 10
1148.302849
 20
388.244148
 42
-0.019476
  0
VERTEX
  8
0
 10
1148.378616
 20
391.418643
 42
-0.088594
  0
VERTEX
  8
0
 10
1148.815475
 20
393.207399
 42
-0.090845
  0
VERTEX
  8
0
 10
1149.839380
 20
394.712241
 42
-0.021054
  0
VERTEX
  8
0
 10
1152.088962
 20
396.808144
 42
0.171836
  0
VERTEX
  8
0
 10
1156.999221
 20
405.334549
 42
0.131335
  0
VERTEX
  8
0
 10
1156.143312
 20
416.143287
 42
0.082808
  0
VERTEX
  8
0
 10
1148.941301
 20
429.157815
 42
0.034578
  0
VERTEX
  8
0
 10
1135.379118
 20
444.016698
 42
0.019466
  0
VERTEX
  8
0
 10
1127.942828
 20
450.577545
 42
0.006503
  0
VERTEX
  8
0
 10
1116.580244
 20
459.598164
 42
0.006679
  0
VERTEX
  8
0
 10
1104.419800
 20
468.740172
 42
0.011419
  0
VERTEX
  8
0
 10
1094.000000
 20
475.998711
 42
-0.000281
  0
VERTEX
  8
0
 10
1091.487255
 20
477.667238
 42
-0.000436
  0
VERTEX
  8
0
 10
1089.322516
 20
479.109156
 42
-0.000120
  0
VERTEX
  8
0
 10
1087.436986
 20
480.368125
 42
-0.014954
  0
VERTEX
  8
0
 10
1087.204309
 20
480.533836
 42
-0.294985
  0
VERTEX
  8
0
 10
1087.120524
 20
480.764564
 42
-0.000869
  0
VERTEX
  8
0
 10
1087.875713
 20
484.032411
 42
-0.004473
  0
VERTEX
  8
0
 10
1088.777559
 20
487.753210
 42
-0.002732
  0
VERTEX
  8
0
 10
1089.905164
 20
492.129024
 42
0.029815
  0
VERTEX
  8
0
 10
1096.274060
 20
523.864712
 42
0.027682
  0
VERTEX
  8
0
 10
1099.028073
 20
556.932317
 42
0.027613
  0
VERTEX
  8
0
 10
1098.114370
 20
590.187546
 42
0.029282
  0
VERTEX
  8
0
 10
1093.522600
 20
622.484170
 42
0.074463
  0
VERTEX
  8
0
 10
1063.509151
 20
705.109214
 42
0.075688
  0
VERTEX
  8
0
 10
1010.730335
 20
774.800785
 42
0.076170
  0
VERTEX
  8
0
 10
939.935381
 20
825.287701
 42
0.076900
  0
VERTEX
  8
0
 10
857.500000
 20
852.053408
 42
0.016072
  0
VERTEX
  8
0
 10
844.730506
 20
853.700915
 42
0.011637
  0
VERTEX
  8
0
 10
830.423385
 20
854.745684
 42
0.011299
  0
VERTEX
  8
0
 10
815.535596
 20
855.148106
 42
0.012146
  0
SEQEND
  0
ENDSEC
  0
EOF
