  0
SECTION
  2
HEADER
  9
$ACADVER
  1
AC1006
  9
$EXTMIN
 10
0.000000
 20
0.000000
 30
0.000000
  9
$EXTMAX
 10
1600.000000
 20
1131.000000
 30
0.000000
  0
ENDSEC
  0
SECTION
  2
ENTITIES
  0
POLYLINE
  8
0
 66
1
 70
1
  0
VERTEX
  8
0
 10
801.000000
 20
854.859319
 42
0.015853
  0
VERTEX
  8
0
 10
782.425680
 20
853.447561
 42
0.019098
  0
VERTEX
  8
0
 10
765.107008
 20
850.905240
 42
0.018872
  0
VERTEX
  8
0
 10
747.860816
 20
847.018109
 42
0.014845
  0
VERTEX
  8
0
 10
729.500000
 20
841.556720
 42
0.018966
  0
VERTEX
  8
0
 10
708.073289
 20
833.571551
 42
0.021085
  0
VERTEX
  8
0
 10
688.073984
 20
824.233855
 42
0.021135
  0
VERTEX
  8
0
 10
668.974761
 20
813.266733
 42
0.019245
  0
VERTEX
  8
0
 10
650.245709
 20
800.398526
 42
0.024519
  0
VERTEX
  8
0
 10
637.457257
 20
789.854273
 42
0.011614
  0
VERTEX
  8
0
 10
621.990952
 20
775.102272
 42
0.011610
  0
VERTEX
  8
0
 10
607.238838
 20
759.661264
 42
0.024740
  0
VERTEX
  8
0
 10
596.733049
 20
746.929466
 42
0.018259
  0
VERTEX
  8
0
 10
585.499285
 20
730.646176
 42
0.015062
  0
VERTEX
  8
0
 10
574.702061
 20
712.521943
 42
0.015419
  0
VERTEX
  8
0
 10
565.392857
 20
694.478902
 42
0.024728
  0
VERTEX
  8
0
 10
558.711517
 20
678.500000
 42
-0.006099
  0
VERTEX
  8
0
 10
557.523211
 20
675.331418
 42
-0.003597
  0
VERTEX
  8
0
 10
556.030524
 20
671.574453
 42
-0.003598
  0
VERTEX
  8
0
 10
554.485363
 20
667.842812
 42
-0.006150
  0
VERTEX
  8
0
 10
553.135016
 20
664.753456
 42
0.060419
  0
VERTEX
  8
0
 10
543.951232
 20
635.447200
 42
0.032935
  0
VERTEX
  8
0
 10
539.539190
 20
597.955529
 42
0.031026
  0
VERTEX
  8
0
 10
539.980472
 20
556.853299
 42
0.031578
  0
VERTEX
  8
0
 10
545.516752
 20
516.367461
 42
0.072353
  0
VERTEX
  8
0
 10
573.460956
 20
438.239636
 42
0.071527
  0
VERTEX
  8
0
 10
622.587142
 20
370.969151
 42
0.071750
  0
VERTEX
  8
0
 10
688.520234
 20
320.432093
 42
0.073564
  0
VERTEX
  8
0
 10
765.500000
 20
291.117621
 42
0.022849
  0
VERTEX
  8
0
 10
785.089902
 20
287.728712
 42
0.015790
  0
VERTEX
  8
0
 10
807.494954
 20
285.615748
 42
0.015846
  0
VERTEX
  8
0
 10
829.833864
 20
284.928318
 42
0.024175
  0
VERTEX
  8
0
 10
849.203060
 20
285.883358
 42
0.052745
  0
VERTEX
  8
0
 10
907.176338
 20
297.816355
 42
0.054087
  0
VERTEX
  8
0
 10
960.850013
 20
321.558212
 42
0.053866
  0
VERTEX
  8
0
 10
1008.371975
 20
356.364711
 42
0.051517
  0
VERTEX
  8
0
 10
1048.161525
 20
401.000000
 42
0.034515
  0
VERTEX
  8
0
 10
1064.594110
 20
427.437847
 42
0.028103
  0
VERTEX
  8
0
 10
1078.523481
 20
457.736136
 42
0.027286
  0
VERTEX
  8
0
 10
1089.360430
 20
490.418507
 42
0.027505
  0
VERTEX
  8
0
 10
1096.539836
 20
524.000000
 42
0.025566
  0
VERTEX
  8
0
 10
1097.949912
 20
537.443958
 42
0.007862
  0
VERTEX
  8
0
 10
1098.717950
 20
557.828782
 42
0.007990
  0
VERTEX
  8
0
 10
1098.840287
 20
578.374911
 42
0.022780
  0
VERTEX
  8
0
 10
1098.045949
 20
592.652413
 42
0.034884
  0
VERTEX
  8
0
 10
1090.792026
 20
634.691095
 42
0.035963
  0
VERTEX
  8
0
 10
1077.809447
 20
674.873353
 42
0.035979
  0
VERTEX
  8
0
 10
1059.209806
 20
712.763579
 42
0.034986
  0
VERTEX
  8
0
 10
1035.215777
 20
747.971519
 42
0.020547
  0
VERTEX
  8
0
 10
1026.154433
 20
758.530155
 42
0.009085
  0
VERTEX
  8
0
 10
1013.376910
 20
771.747246
 42
0.009102
  0
VERTEX
  8
0
 10
1000.074367
 20
784.541749
 42
0.019669
  0
VERTEX
  8
0
 10
989.292962
 20
793.778650
 42
0.043270
  0
VERTEX
  8
0
 10
946.661636
 20
821.866632
 42
0.045634
  0
VERTEX
  8
0
 10
900.567055
 20
841.621156
 42
0.045727
  0
VERTEX
  8
0
 10
851.741136
 20
852.657141
 42
0.043793
  0
SEQEND
  0
ENDSEC
  0
EOF
