999
"DXF R12 Output" (www.mydxf.blogspot.com)
 0 
SECTION
 2 
HEADER
 9 
$ACADVER
 1 
AC1009
 9 
$EXTMIN
 10 
 0 
 20 
 0 
 9 
$EXTMAX
 10 
 8.5 
 20 
 11 
 0 
ENDSEC
 0 
SECTION
 2 
ENTITIES
0
LINE
8
Layer 1
10
30.164900
20
3.687500
11
27.011550
21
3.410459
0
LINE
8
Layer 1
10
27.011550
20
3.410459
11
23.922100
21
2.585370
0
LINE
8
Layer 1
10
23.922100
20
2.585370
11
21.894390
21
1.757849
0
LINE
8
Layer 1
10
21.894390
20
1.757849
11
19.981336
21
0.721145
0
LINE
8
Layer 1
10
19.981336
20
0.721145
11
18.196210
21
-0.512011
0
LINE
8
Layer 1
10
18.196210
20
-0.512011
11
16.552287
21
-1.928889
0
LINE
8
Layer 1
10
16.552287
20
-1.928889
11
15.062841
21
-3.516757
0
LINE
8
Layer 1
10
15.062841
20
-3.516757
11
13.741145
21
-5.262886
0
LINE
8
Layer 1
10
13.741145
20
-5.262886
11
12.600474
21
-7.154543
0
LINE
8
Layer 1
10
12.600474
20
-7.154543
11
11.654100
21
-9.179000
0
LINE
8
Layer 1
10
11.654100
20
-9.179000
11
11.220400
21
-10.236200
0
LINE
8
Layer 1
10
11.220400
20
-10.236200
11
10.388600
21
-10.035700
0
LINE
8
Layer 1
10
10.388600
20
-10.035700
11
7.104710
21
-9.507880
0
LINE
8
Layer 1
10
7.104710
20
-9.507880
11
6.016162
21
-9.455853
0
LINE
8
Layer 1
10
6.016162
20
-9.455853
11
5.212965
21
-9.545870
0
LINE
8
Layer 1
10
5.212965
20
-9.545870
11
4.659098
21
-9.786697
0
LINE
8
Layer 1
10
4.659098
20
-9.786697
11
4.318540
21
-10.187100
0
LINE
8
Layer 1
10
4.318540
20
-10.187100
11
4.157670
21
-10.784400
0
LINE
8
Layer 1
10
4.157670
20
-10.784400
11
4.143104
21
-11.154837
0
LINE
8
Layer 1
10
4.143104
20
-11.154837
11
3.966770
21
-11.293600
0
LINE
8
Layer 1
10
3.966770
20
-11.293600
11
3.664981
21
-11.551773
0
LINE
8
Layer 1
10
3.664981
20
-11.551773
11
3.510608
21
-11.950412
0
LINE
8
Layer 1
10
3.510608
20
-11.950412
11
3.513108
21
-12.434645
0
LINE
8
Layer 1
10
3.513108
20
-12.434645
11
3.681940
21
-12.949600
0
LINE
8
Layer 1
10
3.681940
20
-12.949600
11
4.349354
21
-13.838363
0
LINE
8
Layer 1
10
4.349354
20
-13.838363
11
5.544303
21
-14.925425
0
LINE
8
Layer 1
10
5.544303
20
-14.925425
11
9.311740
21
-17.527800
0
LINE
8
Layer 1
10
9.311740
20
-17.527800
11
10.090000
21
-18.003900
0
LINE
8
Layer 1
10
10.090000
20
-18.003900
11
10.144900
21
-18.743800
0
LINE
8
Layer 1
10
10.144900
20
-18.743800
11
10.633409
21
-21.993784
0
LINE
8
Layer 1
10
10.633409
20
-21.993784
11
11.594325
21
-25.126900
0
LINE
8
Layer 1
10
11.594325
20
-25.126900
11
13.005803
21
-28.087066
0
LINE
8
Layer 1
10
13.005803
20
-28.087066
11
14.846000
21
-30.818200
0
LINE
8
Layer 1
10
14.846000
20
-30.818200
11
16.654475
21
-32.772787
0
LINE
8
Layer 1
10
16.654475
20
-32.772787
11
18.652100
21
-34.531400
0
LINE
8
Layer 1
10
18.652100
20
-34.531400
11
21.066419
21
-36.122844
0
LINE
8
Layer 1
10
21.066419
20
-36.122844
11
23.576325
21
-37.346600
0
LINE
8
Layer 1
10
23.576325
20
-37.346600
11
26.215869
21
-38.216506
0
LINE
8
Layer 1
10
26.215869
20
-38.216506
11
29.019100
21
-38.746400
0
LINE
8
Layer 1
10
29.019100
20
-38.746400
11
31.645538
21
-38.829937
0
LINE
8
Layer 1
10
31.645538
20
-38.829937
11
34.246100
21
-38.675500
0
LINE
8
Layer 1
10
34.246100
20
-38.675500
11
36.314261
21
-38.256647
0
LINE
8
Layer 1
10
36.314261
20
-38.256647
11
38.259412
21
-37.665875
0
LINE
8
Layer 1
10
38.259412
20
-37.665875
11
40.111358
21
-36.892516
0
LINE
8
Layer 1
10
40.111358
20
-36.892516
11
41.899900
21
-35.925900
0
LINE
8
Layer 1
10
41.899900
20
-35.925900
11
43.941587
21
-34.522425
0
LINE
8
Layer 1
10
43.941587
20
-34.522425
11
45.872200
21
-32.762400
0
LINE
8
Layer 1
10
45.872200
20
-32.762400
11
46.932500
21
-31.692300
0
LINE
8
Layer 1
10
46.932500
20
-31.692300
11
47.291000
21
-31.764400
0
LINE
8
Layer 1
10
47.291000
20
-31.764400
11
49.180400
21
-32.116700
0
LINE
8
Layer 1
10
49.180400
20
-32.116700
11
50.746488
21
-32.359250
0
LINE
8
Layer 1
10
50.746488
20
-32.359250
11
52.503300
21
-32.399300
0
LINE
8
Layer 1
10
52.503300
20
-32.399300
11
54.516375
21
-32.311625
0
LINE
8
Layer 1
10
54.516375
20
-32.311625
11
54.978216
21
-32.151434
0
LINE
8
Layer 1
10
54.978216
20
-32.151434
11
55.299900
21
-31.871600
0
LINE
8
Layer 1
10
55.299900
20
-31.871600
11
55.486925
21
-31.584537
0
LINE
8
Layer 1
10
55.486925
20
-31.584537
11
55.527400
21
-31.196000
0
LINE
8
Layer 1
10
55.527400
20
-31.196000
11
55.571863
21
-30.800512
0
LINE
8
Layer 1
10
55.571863
20
-30.800512
11
55.830900
21
-30.507700
0
LINE
8
Layer 1
10
55.830900
20
-30.507700
11
56.109649
21
-30.150368
0
LINE
8
Layer 1
10
56.109649
20
-30.150368
11
56.225152
21
-29.728984
0
LINE
8
Layer 1
10
56.225152
20
-29.728984
11
55.978612
21
-28.718275
0
LINE
8
Layer 1
10
55.978612
20
-28.718275
11
55.115667
21
-27.524003
0
LINE
8
Layer 1
10
55.115667
20
-27.524003
11
53.660700
21
-26.194600
0
LINE
8
Layer 1
10
53.660700
20
-26.194600
11
51.383200
21
-24.523400
0
LINE
8
Layer 1
10
51.383200
20
-24.523400
11
50.991300
21
-24.263000
0
LINE
8
Layer 1
10
50.991300
20
-24.263000
11
51.233300
21
-23.211100
0
LINE
8
Layer 1
10
51.233300
20
-23.211100
11
51.679888
21
-20.960575
0
LINE
8
Layer 1
10
51.679888
20
-20.960575
11
51.846500
21
-18.575800
0
LINE
8
Layer 1
10
51.846500
20
-18.575800
11
51.799000
21
-15.966100
0
LINE
8
Layer 1
10
51.799000
20
-15.966100
11
51.268759
21
-12.804908
0
LINE
8
Layer 1
10
51.268759
20
-12.804908
11
50.305598
21
-9.803572
0
LINE
8
Layer 1
10
50.305598
20
-9.803572
11
48.940285
21
-7.001226
0
LINE
8
Layer 1
10
48.940285
20
-7.001226
11
47.203588
21
-4.437004
0
LINE
8
Layer 1
10
47.203588
20
-4.437004
11
45.126272
21
-2.150041
0
LINE
8
Layer 1
10
45.126272
20
-2.150041
11
42.739108
21
-0.179469
0
LINE
8
Layer 1
10
42.739108
20
-0.179469
11
40.072861
21
1.435576
0
LINE
8
Layer 1
10
40.072861
20
1.435576
11
37.158300
21
2.655960
0
LINE
8
Layer 1
10
37.158300
20
2.655960
11
34.247625
21
3.409999
0
LINE
8
Layer 1
10
34.247625
20
3.409999
11
31.170300
21
3.679920
0
LINE
8
Layer 1
10
31.170300
20
3.679920
11
30.164900
21
3.687500
0
LINE
8
Layer 1
10
30.164900
20
3.687500
11
30.164900
21
3.687500
 0 
ENDSEC
 0 
EOF