  0
SECTION
  2
HEADER
  9
$ACADVER
  1
AC1006
  9
$EXTMIN
 10
0.000000
 20
0.000000
 30
0.000000
  9
$EXTMAX
 10
800.000000
 20
800.000000
 30
0.000000
  0
ENDSEC
  0
SECTION
  2
ENTITIES
  0
POLYLINE
  8
0
 66
1
 70
1
  0
VERTEX
  8
0
 10
0.000000
 20
400.000000
 42
0.000000
  0
VERTEX
  8
0
 10
0.000000
 20
0.000000
 42
0.000000
  0
VERTEX
  8
0
 10
400.000000
 20
0.000000
 42
0.000000
  0
VERTEX
  8
0
 10
800.000000
 20
0.000000
 42
0.000000
  0
VERTEX
  8
0
 10
800.000000
 20
400.000000
 42
0.000000
  0
VERTEX
  8
0
 10
800.000000
 20
800.000000
 42
0.000000
  0
VERTEX
  8
0
 10
400.000000
 20
800.000000
 42
0.000000
  0
VERTEX
  8
0
 10
0.000000
 20
800.000000
 42
0.000000
  0
SEQEND
  0
POLYLINE
  8
0
 66
1
 70
1
  0
VERTEX
  8
0
 10
451.000000
 20
739.409739
 42
-0.061091
  0
VERTEX
  8
0
 10
513.532161
 20
723.417921
 42
-0.060610
  0
VERTEX
  8
0
 10
570.528137
 20
692.762110
 42
-0.060589
  0
VERTEX
  8
0
 10
618.527129
 20
649.322518
 42
-0.060972
  0
VERTEX
  8
0
 10
654.596471
 20
595.730231
 42
-0.009654
  0
VERTEX
  8
0
 10
659.522571
 20
585.566099
 42
-0.010574
  0
VERTEX
  8
0
 10
663.898701
 20
575.520661
 42
-0.007939
  0
VERTEX
  8
0
 10
667.338333
 20
566.751940
 42
-0.089724
  0
VERTEX
  8
0
 10
668.000000
 20
563.094403
 42
-0.188302
  0
VERTEX
  8
0
 10
667.194754
 20
561.032039
 42
-0.074087
  0
VERTEX
  8
0
 10
664.779231
 20
559.085076
 42
-0.033966
  0
VERTEX
  8
0
 10
660.087524
 20
556.745416
 42
-0.005717
  0
VERTEX
  8
0
 10
650.776373
 20
552.991276
 42
-0.009288
  0
VERTEX
  8
0
 10
634.787850
 20
547.096188
 42
-0.002087
  0
VERTEX
  8
0
 10
607.340687
 20
537.679738
 42
-0.000466
  0
VERTEX
  8
0
 10
577.298443
 20
527.544130
 42
-0.081292
  0
VERTEX
  8
0
 10
573.973803
 20
527.000000
 42
-0.223116
  0
VERTEX
  8
0
 10
572.585830
 20
527.651806
 42
-0.063838
  0
VERTEX
  8
0
 10
571.278973
 20
529.712343
 42
-0.063218
  0
VERTEX
  8
0
 10
570.519896
 20
532.070347
 42
-0.197454
  0
VERTEX
  8
0
 10
570.852134
 20
533.670497
 42
-0.151793
  0
VERTEX
  8
0
 10
571.488496
 20
534.179750
 42
-0.002772
  0
VERTEX
  8
0
 10
575.569065
 20
535.753392
 42
-0.006587
  0
VERTEX
  8
0
 10
580.396062
 20
537.511830
 42
-0.004320
  0
VERTEX
  8
0
 10
586.000000
 20
539.415903
 42
0.001837
  0
VERTEX
  8
0
 10
593.518177
 20
541.928818
 42
0.000564
  0
VERTEX
  8
0
 10
604.853113
 20
545.778076
 42
0.000564
  0
VERTEX
  8
0
 10
617.530676
 20
550.115190
 42
0.000618
  0
VERTEX
  8
0
 10
629.819107
 20
554.351646
 42
0.000000
  0
VERTEX
  8
0
 10
659.138213
 20
564.500000
 42
0.000000
  0
VERTEX
  8
0
 10
658.602398
 20
567.208545
 42
0.056760
  0
VERTEX
  8
0
 10
656.845166
 20
572.718926
 42
0.006827
  0
VERTEX
  8
0
 10
651.451873
 20
584.302429
 42
0.008790
  0
VERTEX
  8
0
 10
645.229585
 20
596.643815
 42
0.013347
  0
VERTEX
  8
0
 10
639.351462
 20
607.121524
 42
0.040408
  0
VERTEX
  8
0
 10
615.392513
 20
640.772572
 42
0.039763
  0
VERTEX
  8
0
 10
586.213860
 20
670.328242
 42
0.039705
  0
VERTEX
  8
0
 10
552.680483
 20
694.930486
 42
0.040029
  0
VERTEX
  8
0
 10
515.768227
 20
713.847159
 42
0.029356
  0
VERTEX
  8
0
 10
487.832687
 20
723.567947
 42
0.027875
  0
VERTEX
  8
0
 10
458.465947
 20
730.148364
 42
0.028150
  0
VERTEX
  8
0
 10
428.857083
 20
733.371053
 42
0.031582
  0
VERTEX
  8
0
 10
400.199239
 20
733.055445
 42
0.034397
  0
VERTEX
  8
0
 10
361.911291
 20
727.545679
 42
0.036986
  0
VERTEX
  8
0
 10
325.686847
 20
716.908136
 42
0.037153
  0
VERTEX
  8
0
 10
291.570519
 20
701.103028
 42
0.035350
  0
VERTEX
  8
0
 10
259.566061
 20
680.190663
 42
0.023669
  0
VERTEX
  8
0
 10
248.031637
 20
670.538775
 42
0.011737
  0
VERTEX
  8
0
 10
234.299005
 20
657.287091
 42
0.011742
  0
VERTEX
  8
0
 10
221.148357
 20
643.346924
 42
0.022703
  0
VERTEX
  8
0
 10
211.422688
 20
631.500000
 42
0.012872
  0
VERTEX
  8
0
 10
203.647621
 20
620.522147
 42
0.010763
  0
VERTEX
  8
0
 10
195.953642
 20
608.491307
 42
0.011005
  0
VERTEX
  8
0
 10
189.033686
 20
596.556366
 42
0.016868
  0
VERTEX
  8
0
 10
183.623513
 20
585.897700
 42
0.020050
  0
VERTEX
  8
0
 10
175.741397
 20
567.037896
 42
0.017969
  0
VERTEX
  8
0
 10
169.075122
 20
546.910870
 42
0.018333
  0
VERTEX
  8
0
 10
164.013694
 20
526.858171
 42
0.024102
  0
VERTEX
  8
0
 10
160.962705
 20
508.235049
 42
0.004238
  0
VERTEX
  8
0
 10
160.251022
 20
501.528011
 42
0.048085
  0
VERTEX
  8
0
 10
160.247977
 20
498.863345
 42
0.098400
  0
VERTEX
  8
0
 10
160.811990
 20
496.981002
 42
0.040882
  0
VERTEX
  8
0
 10
162.248429
 20
494.735049
 42
-0.015767
  0
VERTEX
  8
0
 10
163.344977
 20
493.196450
 42
-0.008305
  0
VERTEX
  8
0
 10
164.613609
 20
491.221789
 42
-0.008254
  0
VERTEX
  8
0
 10
165.846839
 20
489.154783
 42
-0.012591
  0
VERTEX
  8
0
 10
166.841425
 20
487.317849
 42
0.019154
  0
VERTEX
  8
0
 10
168.372324
 20
484.576905
 42
0.056140
  0
VERTEX
  8
0
 10
169.696376
 20
482.870299
 42
0.111732
  0
VERTEX
  8
0
 10
170.798808
 20
482.153900
 42
0.292736
  0
VERTEX
  8
0
 10
171.680562
 20
482.347229
 42
0.154102
  0
VERTEX
  8
0
 10
171.943521
 20
482.852819
 42
0.001084
  0
VERTEX
  8
0
 10
172.778468
 20
487.669675
 42
0.004034
  0
VERTEX
  8
0
 10
173.681660
 20
493.217039
 42
0.002555
  0
VERTEX
  8
0
 10
174.649285
 20
499.697364
 42
-0.011147
  0
VERTEX
  8
0
 10
178.371269
 20
521.993802
 42
-0.015669
  0
VERTEX
  8
0
 10
182.753678
 20
541.680512
 42
-0.017621
  0
VERTEX
  8
0
 10
187.803133
 20
558.876758
 42
-0.025587
  0
VERTEX
  8
0
 10
193.551226
 20
573.608769
 42
-0.003646
  0
VERTEX
  8
0
 10
197.120586
 20
581.382029
 42
-0.004597
  0
VERTEX
  8
0
 10
200.542170
 20
588.520725
 42
-0.004721
  0
VERTEX
  8
0
 10
203.521927
 20
594.451433
 42
-0.018787
  0
VERTEX
  8
0
 10
205.518981
 20
598.000000
 42
0.001668
  0
VERTEX
  8
0
 10
206.604535
 20
599.783232
 42
0.000567
  0
VERTEX
  8
0
 10
208.170217
 20
602.381250
 42
0.000564
  0
VERTEX
  8
0
 10
209.893090
 20
605.254794
 42
0.000650
  0
VERTEX
  8
0
 10
211.529969
 20
608.000000
 42
-0.029014
  0
VERTEX
  8
0
 10
222.411712
 20
624.099090
 42
-0.020670
  0
VERTEX
  8
0
 10
236.333194
 20
640.839159
 42
-0.020272
  0
VERTEX
  8
0
 10
251.983854
 20
656.799443
 42
-0.023777
  0
VERTEX
  8
0
 10
268.095895
 20
670.567387
 42
-0.039864
  0
VERTEX
  8
0
 10
300.103162
 20
691.531864
 42
-0.040497
  0
VERTEX
  8
0
 10
334.867660
 20
707.025045
 42
-0.040424
  0
VERTEX
  8
0
 10
371.735719
 20
716.733595
 42
-0.039417
  0
VERTEX
  8
0
 10
410.000000
 20
720.491273
 42
-0.028083
  0
VERTEX
  8
0
 10
439.358821
 20
719.402834
 42
-0.031997
  0
VERTEX
  8
0
 10
467.136447
 20
715.000414
 42
-0.031843
  0
VERTEX
  8
0
 10
494.240687
 20
707.064938
 42
-0.027319
  0
VERTEX
  8
0
 10
521.585563
 20
695.403498
 42
-0.029476
  0
VERTEX
  8
0
 10
546.597965
 20
681.192932
 42
-0.030582
  0
VERTEX
  8
0
 10
569.444789
 20
664.297839
 42
-0.030559
  0
VERTEX
  8
0
 10
590.075302
 20
644.729252
 42
-0.029337
  0
VERTEX
  8
0
 10
608.469493
 20
622.535266
 42
-0.022593
  0
VERTEX
  8
0
 10
617.447512
 20
609.074449
 42
-0.012340
  0
VERTEX
  8
0
 10
627.282526
 20
591.831597
 42
-0.005432
  0
VERTEX
  8
0
 10
636.345491
 20
574.542228
 42
-0.212713
  0
VERTEX
  8
0
 10
636.568607
 20
570.318191
 42
-0.189747
  0
VERTEX
  8
0
 10
635.014928
 20
568.621551
 42
-0.011698
  0
VERTEX
  8
0
 10
628.682951
 20
565.710492
 42
-0.012701
  0
VERTEX
  8
0
 10
619.528422
 20
562.031455
 42
-0.004260
  0
VERTEX
  8
0
 10
605.982912
 20
557.114476
 42
0.000651
  0
VERTEX
  8
0
 10
598.574814
 20
554.485722
 42
0.000556
  0
VERTEX
  8
0
 10
590.772287
 20
551.695786
 42
0.000560
  0
VERTEX
  8
0
 10
583.682434
 20
549.142824
 42
0.001594
  0
VERTEX
  8
0
 10
578.752534
 20
547.343604
 42
-0.005966
  0
VERTEX
  8
0
 10
573.544657
 20
545.494373
 42
-0.030935
  0
VERTEX
  8
0
 10
570.601584
 20
544.688044
 42
-0.060679
  0
VERTEX
  8
0
 10
568.728614
 20
544.529678
 42
-0.165452
  0
VERTEX
  8
0
 10
567.502534
 20
544.997897
 42
-0.089321
  0
VERTEX
  8
0
 10
566.353779
 20
546.362014
 42
-0.169264
  0
VERTEX
  8
0
 10
566.090708
 20
547.757061
 42
-0.169345
  0
VERTEX
  8
0
 10
566.751695
 20
549.012955
 42
-0.089421
  0
VERTEX
  8
0
 10
568.250000
 20
549.978510
 42
-0.026452
  0
VERTEX
  8
0
 10
569.699131
 20
550.493064
 42
-0.002599
  0
VERTEX
  8
0
 10
573.257879
 20
551.528360
 42
-0.003280
  0
VERTEX
  8
0
 10
577.517098
 20
552.713306
 42
-0.002593
  0
VERTEX
  8
0
 10
582.138525
 20
553.940727
 42
0.014504
  0
VERTEX
  8
0
 10
592.400922
 20
556.929767
 42
0.004337
  0
VERTEX
  8
0
 10
607.865951
 20
562.073634
 42
0.003035
  0
VERTEX
  8
0
 10
623.228740
 20
567.436341
 42
0.037387
  0
VERTEX
  8
0
 10
628.897663
 20
569.945231
 42
0.069194
  0
VERTEX
  8
0
 10
629.701708
 20
570.530936
 42
0.056072
  0
VERTEX
  8
0
 10
630.382439
 20
571.353989
 42
0.057688
  0
VERTEX
  8
0
 10
630.844538
 20
572.277924
 42
0.087349
  0
VERTEX
  8
0
 10
631.000000
 20
573.161023
 42
0.113949
  0
VERTEX
  8
0
 10
630.166221
 20
576.772076
 42
0.005292
  0
VERTEX
  8
0
 10
624.499720
 20
588.083130
 42
0.009689
  0
VERTEX
  8
0
 10
618.260469
 20
599.657984
 42
0.016724
  0
VERTEX
  8
0
 10
612.568651
 20
609.000000
 42
0.040041
  0
VERTEX
  8
0
 10
588.901030
 20
639.451807
 42
0.040201
  0
VERTEX
  8
0
 10
560.711404
 20
665.697614
 42
0.040429
  0
VERTEX
  8
0
 10
528.848422
 20
686.963919
 42
0.041529
  0
VERTEX
  8
0
 10
494.256231
 20
702.607518
 42
0.017678
  0
VERTEX
  8
0
 10
475.304606
 20
708.601946
 42
0.022168
  0
VERTEX
  8
0
 10
457.348000
 20
712.743209
 42
0.022223
  0
VERTEX
  8
0
 10
439.131778
 20
715.271182
 42
0.017915
  0
VERTEX
  8
0
 10
419.399805
 20
716.409631
 42
0.071266
  0
VERTEX
  8
0
 10
353.836266
 20
708.471715
 42
0.070491
  0
VERTEX
  8
0
 10
292.872689
 20
682.442909
 42
0.070432
  0
VERTEX
  8
0
 10
241.497217
 20
640.478825
 42
0.070950
  0
VERTEX
  8
0
 10
203.938189
 20
586.000000
 42
0.029269
  0
VERTEX
  8
0
 10
193.189359
 20
560.816240
 42
0.028408
  0
VERTEX
  8
0
 10
185.331699
 20
534.299476
 42
0.029835
  0
VERTEX
  8
0
 10
180.896585
 20
508.712819
 42
0.046737
  0
VERTEX
  8
0
 10
180.482073
 20
486.397732
 42
0.030722
  0
VERTEX
  8
0
 10
181.464661
 20
479.231137
 42
0.162271
  0
VERTEX
  8
0
 10
183.406466
 20
475.835136
 42
0.065616
  0
VERTEX
  8
0
 10
187.701593
 20
472.905544
 42
0.002371
  0
VERTEX
  8
0
 10
205.500000
 20
464.025058
 42
0.004575
  0
VERTEX
  8
0
 10
220.434441
 20
456.830916
 42
0.011363
  0
VERTEX
  8
0
 10
231.528779
 20
451.915871
 42
0.012691
  0
VERTEX
  8
0
 10
239.739935
 20
448.741167
 42
0.086099
  0
VERTEX
  8
0
 10
244.012174
 20
448.000000
 42
0.062893
  0
VERTEX
  8
0
 10
251.928980
 20
448.999786
 42
0.006743
  0
VERTEX
  8
0
 10
269.821541
 20
453.850316
 42
0.009056
  0
VERTEX
  8
0
 10
288.692855
 20
459.612029
 42
0.015481
  0
VERTEX
  8
0
 10
304.189967
 20
465.188197
 42
-0.004427
  0
VERTEX
  8
0
 10
311.056364
 20
467.831699
 42
-0.024543
  0
VERTEX
  8
0
 10
314.822674
 20
469.036372
 42
-0.046850
  0
VERTEX
  8
0
 10
317.160012
 20
469.430051
 42
-0.193865
  0
VERTEX
  8
0
 10
318.497661
 20
469.001941
 42
-0.071973
  0
VERTEX
  8
0
 10
319.073010
 20
468.364665
 42
-0.044599
  0
VERTEX
  8
0
 10
319.558688
 20
467.478872
 42
-0.043841
  0
VERTEX
  8
0
 10
319.889334
 20
466.496833
 42
-0.059356
  0
VERTEX
  8
0
 10
320.000000
 20
465.567894
 42
-0.199663
  0
VERTEX
  8
0
 10
319.445357
 20
464.234320
 42
-0.090109
  0
VERTEX
  8
0
 10
317.856035
 20
463.140516
 42
-0.033353
  0
VERTEX
  8
0
 10
314.574016
 20
461.918767
 42
-0.003908
  0
VERTEX
  8
0
 10
307.065994
 20
459.744633
 42
0.011514
  0
VERTEX
  8
0
 10
295.553292
 20
456.220182
 42
0.006806
  0
VERTEX
  8
0
 10
281.974044
 20
451.512507
 42
0.006263
  0
VERTEX
  8
0
 10
269.341481
 20
446.759698
 42
0.026682
  0
VERTEX
  8
0
 10
262.000000
 20
443.430615
 42
0.000000
  0
VERTEX
  8
0
 10
257.500000
 20
441.093123
 42
0.000000
  0
VERTEX
  8
0
 10
269.862935
 20
441.046561
 42
0.008570
  0
VERTEX
  8
0
 10
277.260913
 20
441.145498
 42
0.027209
  0
VERTEX
  8
0
 10
282.189702
 20
441.565043
 42
0.026851
  0
VERTEX
  8
0
 10
287.077839
 20
442.520397
 42
0.008176
  0
VERTEX
  8
0
 10
294.362935
 20
444.482201
 42
0.003482
  0
VERTEX
  8
0
 10
299.860455
 20
446.100989
 42
0.002073
  0
VERTEX
  8
0
 10
306.384184
 20
448.100973
 42
0.002075
  0
VERTEX
  8
0
 10
312.869504
 20
450.148193
 42
0.003587
  0
VERTEX
  8
0
 10
318.242797
 20
451.911528
 42
-0.002775
  0
VERTEX
  8
0
 10
325.856017
 20
454.423629
 42
-0.040622
  0
VERTEX
  8
0
 10
328.604607
 20
455.072896
 42
-0.138788
  0
VERTEX
  8
0
 10
330.149975
 20
454.878639
 42
-0.140647
  0
VERTEX
  8
0
 10
331.355024
 20
453.903520
 42
-0.045536
  0
VERTEX
  8
0
 10
331.871232
 20
453.001950
 42
-0.031940
  0
VERTEX
  8
0
 10
332.289216
 20
451.908542
 42
-0.032363
  0
VERTEX
  8
0
 10
332.556437
 20
450.800141
 42
-0.056433
  0
VERTEX
  8
0
 10
332.612226
 20
449.857612
 42
-0.237623
  0
VERTEX
  8
0
 10
331.814098
 20
448.464355
 42
-0.040871
  0
VERTEX
  8
0
 10
329.062294
 20
446.952846
 42
-0.019893
  0
VERTEX
  8
0
 10
323.913923
 20
444.891669
 42
-0.002732
  0
VERTEX
  8
0
 10
313.000000
 20
441.085363
 42
0.001916
  0
VERTEX
  8
0
 10
305.383816
 20
438.443093
 42
0.002730
  0
VERTEX
  8
0
 10
298.640625
 20
436.033255
 42
0.001516
  0
VERTEX
  8
0
 10
292.962254
 20
433.949410
 42
0.040350
  0
VERTEX
  8
0
 10
291.500000
 20
433.269194
 42
0.124573
  0
VERTEX
  8
0
 10
290.600091
 20
432.407112
 42
0.453856
  0
VERTEX
  8
0
 10
290.800646
 20
431.742609
 42
0.070775
  0
VERTEX
  8
0
 10
292.604641
 20
431.215543
 42
0.005929
  0
VERTEX
  8
0
 10
297.436069
 20
430.578569
 42
-0.065741
  0
VERTEX
  8
0
 10
301.259225
 20
429.600239
 42
-0.027714
  0
VERTEX
  8
0
 10
306.072464
 20
427.350541
 42
-0.027365
  0
VERTEX
  8
0
 10
310.890307
 20
424.414188
 42
-0.038268
  0
VERTEX
  8
0
 10
314.814637
 20
421.250000
 42
0.115767
  0
VERTEX
  8
0
 10
316.288571
 20
420.397133
 42
0.107690
  0
VERTEX
  8
0
 10
318.029325
 20
420.258454
 42
0.027865
  0
VERTEX
  8
0
 10
321.159702
 20
420.862989
 42
0.001277
  0
VERTEX
  8
0
 10
331.706979
 20
423.545371
 42
-0.006536
  0
VERTEX
  8
0
 10
337.213723
 20
424.884344
 42
-0.008206
  0
VERTEX
  8
0
 10
342.351712
 20
425.974307
 42
-0.006767
  0
VERTEX
  8
0
 10
346.673868
 20
426.756761
 42
-0.062172
  0
VERTEX
  8
0
 10
348.575444
 20
426.835485
 42
0.053981
  0
VERTEX
  8
0
 10
350.062598
 20
426.872745
 42
0.046978
  0
VERTEX
  8
0
 10
351.581495
 20
427.223252
 42
0.045069
  0
VERTEX
  8
0
 10
353.068389
 20
427.870844
 42
0.041444
  0
VERTEX
  8
0
 10
354.460303
 20
428.790114
 42
-0.032183
  0
VERTEX
  8
0
 10
356.750914
 20
430.364525
 42
-0.119565
  0
VERTEX
  8
0
 10
358.412103
 20
430.878082
 42
-0.139405
  0
VERTEX
  8
0
 10
359.977551
 20
430.535909
 42
-0.050077
  0
VERTEX
  8
0
 10
361.888606
 20
429.250000
 42
-0.132991
  0
VERTEX
  8
0
 10
363.868075
 20
426.441826
 42
-0.051105
  0
VERTEX
  8
0
 10
365.047113
 20
421.774758
 42
-0.042274
  0
VERTEX
  8
0
 10
365.411188
 20
415.797394
 42
-0.027535
  0
VERTEX
  8
0
 10
364.867097
 20
408.899886
 42
0.000000
  0
VERTEX
  8
0
 10
363.780716
 20
400.827445
 42
0.000000
  0
VERTEX
  8
0
 10
368.321812
 20
396.413723
 42
0.019293
  0
VERTEX
  8
0
 10
372.907974
 20
392.288008
 42
0.362700
  0
VERTEX
  8
0
 10
374.709769
 20
392.291384
 42
0.212149
  0
VERTEX
  8
0
 10
375.716716
 20
394.349914
 42
0.008774
  0
VERTEX
  8
0
 10
375.878779
 20
402.750000
 42
-0.038030
  0
VERTEX
  8
0
 10
376.946347
 20
416.450240
 42
-0.066436
  0
VERTEX
  8
0
 10
380.158352
 20
427.354379
 42
-0.078425
  0
VERTEX
  8
0
 10
385.622365
 20
435.773537
 42
-0.079629
  0
VERTEX
  8
0
 10
393.388368
 20
442.049413
 42
-0.039785
  0
VERTEX
  8
0
 10
397.175410
 20
443.837937
 42
-0.050547
  0
VERTEX
  8
0
 10
400.908999
 20
444.833900
 42
-0.060624
  0
VERTEX
  8
0
 10
403.948087
 20
444.951208
 42
-0.238024
  0
VERTEX
  8
0
 10
405.500000
 20
444.000000
 42
0.155980
  0
VERTEX
  8
0
 10
406.460519
 20
443.178147
 42
0.199810
  0
VERTEX
  8
0
 10
407.613294
 20
443.173693
 42
0.120384
  0
VERTEX
  8
0
 10
408.886691
 20
444.102490
 42
0.045979
  0
VERTEX
  8
0
 10
410.151005
 20
445.914874
 42
-0.058233
  0
VERTEX
  8
0
 10
411.273519
 20
447.442996
 42
-0.079574
  0
VERTEX
  8
0
 10
412.618435
 20
448.491317
 42
-0.057204
  0
VERTEX
  8
0
 10
414.548696
 20
449.282504
 42
-0.016983
  0
VERTEX
  8
0
 10
417.651005
 20
450.044172
 42
-0.121803
  0
VERTEX
  8
0
 10
431.268348
 20
449.558924
 42
-0.097230
  0
VERTEX
  8
0
 10
444.394213
 20
442.860319
 42
-0.083579
  0
VERTEX
  8
0
 10
455.570761
 20
430.577932
 42
-0.062593
  0
VERTEX
  8
0
 10
463.483100
 20
414.050747
 42
-0.046825
  0
VERTEX
  8
0
 10
466.615043
 20
400.546606
 42
-0.046737
  0
VERTEX
  8
0
 10
467.182322
 20
386.686846
 42
-0.050410
  0
VERTEX
  8
0
 10
465.253039
 20
374.195115
 42
-0.091455
  0
VERTEX
  8
0
 10
460.898093
 20
364.856885
 42
0.029559
  0
VERTEX
  8
0
 10
460.127785
 20
363.627336
 42
0.045385
  0
VERTEX
  8
0
 10
459.627429
 20
362.475687
 42
0.055970
  0
VERTEX
  8
0
 10
459.430455
 20
361.539307
 42
0.229635
  0
VERTEX
  8
0
 10
459.627045
 20
361.010508
 42
0.110366
  0
VERTEX
  8
0
 10
462.034825
 20
359.555480
 42
0.000553
  0
VERTEX
  8
0
 10
488.952054
 20
350.556800
 42
0.002863
  0
VERTEX
  8
0
 10
515.632040
 20
341.839604
 42
0.004231
  0
VERTEX
  8
0
 10
539.142806
 20
334.525388
 42
0.003626
  0
VERTEX
  8
0
 10
566.029630
 20
326.622067
 42
0.010246
  0
VERTEX
  8
0
 10
584.952717
 20
321.625556
 42
0.011452
  0
VERTEX
  8
0
 10
598.486635
 20
318.673527
 42
0.090640
  0
VERTEX
  8
0
 10
604.873873
 20
318.602833
 42
-0.013569
  0
VERTEX
  8
0
 10
606.915702
 20
318.895951
 42
-0.009492
  0
VERTEX
  8
0
 10
609.230051
 20
319.119896
 42
-0.009584
  0
VERTEX
  8
0
 10
611.457630
 20
319.249941
 42
-0.019617
  0
VERTEX
  8
0
 10
613.207153
 20
319.249798
 42
0.039237
  0
VERTEX
  8
0
 10
615.297611
 20
319.331627
 42
0.093996
  0
VERTEX
  8
0
 10
616.771507
 20
319.795643
 42
0.079973
  0
VERTEX
  8
0
 10
618.112886
 20
320.819706
 42
0.022964
  0
VERTEX
  8
0
 10
619.827859
 20
322.801997
 42
0.031574
  0
VERTEX
  8
0
 10
625.906958
 20
331.608682
 42
0.015920
  0
VERTEX
  8
0
 10
632.488895
 20
343.397488
 42
0.015069
  0
VERTEX
  8
0
 10
638.893132
 20
356.749341
 42
0.015109
  0
VERTEX
  8
0
 10
644.475436
 20
370.450929
 42
0.036131
  0
VERTEX
  8
0
 10
653.077343
 20
399.872295
 42
0.033141
  0
VERTEX
  8
0
 10
657.666145
 20
431.088928
 42
0.032964
  0
VERTEX
  8
0
 10
658.103698
 20
462.813379
 42
0.034767
  0
VERTEX
  8
0
 10
654.322572
 20
493.750000
 42
0.008176
  0
VERTEX
  8
0
 10
653.432915
 20
497.976283
 42
0.039542
  0
VERTEX
  8
0
 10
652.701628
 20
500.316521
 42
0.082021
  0
VERTEX
  8
0
 10
651.939112
 20
501.572618
 42
0.218776
  0
VERTEX
  8
0
 10
651.009108
 20
502.000000
 42
0.078474
  0
VERTEX
  8
0
 10
646.362715
 20
501.266237
 42
0.000580
  0
VERTEX
  8
0
 10
609.258874
 20
489.199962
 42
0.002482
  0
VERTEX
  8
0
 10
571.732474
 20
476.741658
 42
0.003259
  0
VERTEX
  8
0
 10
537.605503
 20
464.975251
 42
-0.001986
  0
VERTEX
  8
0
 10
526.324921
 20
461.053742
 42
-0.025899
  0
VERTEX
  8
0
 10
522.059946
 20
459.832844
 42
-0.085219
  0
VERTEX
  8
0
 10
519.777321
 20
459.702615
 42
-0.209587
  0
VERTEX
  8
0
 10
518.355503
 20
460.528499
 42
-0.045419
  0
VERTEX
  8
0
 10
517.836294
 20
461.393501
 42
-0.030395
  0
VERTEX
  8
0
 10
517.398179
 20
462.462221
 42
-0.030619
  0
VERTEX
  8
0
 10
517.098003
 20
463.559376
 42
-0.051506
  0
VERTEX
  8
0
 10
517.000000
 20
464.508228
 42
-0.283500
  0
VERTEX
  8
0
 10
517.976632
 20
466.092242
 42
-0.020137
  0
VERTEX
  8
0
 10
522.908741
 20
468.327528
 42
-0.011739
  0
VERTEX
  8
0
 10
531.902381
 20
471.731000
 42
-0.001287
  0
VERTEX
  8
0
 10
552.750000
 20
479.005425
 42
-0.001461
  0
VERTEX
  8
0
 10
586.581642
 20
490.602237
 42
-0.002582
  0
VERTEX
  8
0
 10
614.579017
 20
499.946919
 42
-0.002488
  0
VERTEX
  8
0
 10
636.538404
 20
507.029669
 42
-0.018146
  0
VERTEX
  8
0
 10
647.198283
 20
509.988366
 42
-0.023378
  0
VERTEX
  8
0
 10
653.844994
 20
511.250842
 42
-0.140491
  0
VERTEX
  8
0
 10
657.294276
 20
510.771104
 42
-0.188835
  0
VERTEX
  8
0
 10
659.419968
 20
508.623067
 42
-0.048947
  0
VERTEX
  8
0
 10
660.927881
 20
503.900676
 42
-0.042232
  0
VERTEX
  8
0
 10
666.545406
 20
459.852803
 42
-0.045621
  0
VERTEX
  8
0
 10
664.437092
 20
416.634841
 42
-0.045513
  0
VERTEX
  8
0
 10
654.514665
 20
374.425696
 42
-0.041662
  0
VERTEX
  8
0
 10
636.910621
 20
333.375864
 42
0.006527
  0
VERTEX
  8
0
 10
633.113396
 20
325.998437
 42
0.038296
  0
VERTEX
  8
0
 10
631.474940
 20
321.963639
 42
0.117693
  0
VERTEX
  8
0
 10
631.316659
 20
319.853680
 42
0.368252
  0
VERTEX
  8
0
 10
632.318573
 20
319.000000
 42
-0.170334
  0
VERTEX
  8
0
 10
632.928499
 20
318.786009
 42
-0.043316
  0
VERTEX
  8
0
 10
633.698968
 20
318.051606
 42
-0.039108
  0
VERTEX
  8
0
 10
634.483985
 20
317.007317
 42
-0.031042
  0
VERTEX
  8
0
 10
635.166174
 20
315.771425
 42
0.000000
  0
VERTEX
  8
0
 10
636.695200
 20
312.542851
 42
0.000000
  0
VERTEX
  8
0
 10
639.906532
 20
316.021425
 42
0.063625
  0
VERTEX
  8
0
 10
648.734617
 20
328.429366
 42
0.016484
  0
VERTEX
  8
0
 10
659.608447
 20
350.468178
 42
0.017420
  0
VERTEX
  8
0
 10
669.651911
 20
374.863536
 42
0.027397
  0
VERTEX
  8
0
 10
676.366979
 20
396.500000
 42
0.023811
  0
VERTEX
  8
0
 10
680.501623
 20
417.050935
 42
0.019784
  0
VERTEX
  8
0
 10
682.980109
 20
439.214893
 42
0.019857
  0
VERTEX
  8
0
 10
683.692391
 20
461.403375
 42
0.024636
  0
VERTEX
  8
0
 10
682.518163
 20
482.025055
 42
0.015834
  0
VERTEX
  8
0
 10
680.565057
 20
496.108062
 42
0.013338
  0
VERTEX
  8
0
 10
677.630837
 20
510.875114
 42
0.006144
  0
VERTEX
  8
0
 10
674.379925
 20
524.446654
 42
0.243920
  0
VERTEX
  8
0
 10
672.400925
 20
526.676392
 42
0.165183
  0
VERTEX
  8
0
 10
671.334523
 20
526.718002
 42
0.000577
  0
VERTEX
  8
0
 10
658.890152
 20
523.010362
 42
0.002998
  0
VERTEX
  8
0
 10
644.780032
 20
518.696376
 42
0.001866
  0
VERTEX
  8
0
 10
628.282575
 20
513.476489
 42
-0.000256
  0
VERTEX
  8
0
 10
610.183449
 20
507.685655
 42
-0.000221
  0
VERTEX
  8
0
 10
591.178508
 20
501.625007
 42
-0.000223
  0
VERTEX
  8
0
 10
573.948576
 20
496.147266
 42
-0.000650
  0
VERTEX
  8
0
 10
562.048518
 20
492.386854
 42
0.001406
  0
VERTEX
  8
0
 10
552.339485
 20
489.302653
 42
0.001368
  0
VERTEX
  8
0
 10
542.559851
 20
486.136186
 42
0.001348
  0
VERTEX
  8
0
 10
533.980283
 20
483.306687
 42
0.005103
  0
VERTEX
  8
0
 10
528.635990
 20
481.467381
 42
-0.010326
  0
VERTEX
  8
0
 10
522.137025
 20
479.306342
 42
-0.075192
  0
VERTEX
  8
0
 10
518.896990
 20
478.815781
 42
-0.263158
  0
VERTEX
  8
0
 10
517.472439
 20
479.621025
 42
-0.188110
  0
VERTEX
  8
0
 10
517.156220
 20
481.465510
 42
-0.232429
  0
VERTEX
  8
0
 10
517.961544
 20
482.505664
 42
-0.013544
  0
VERTEX
  8
0
 10
521.718650
 20
484.220256
 42
-0.013918
  0
VERTEX
  8
0
 10
527.322467
 20
486.414486
 42
-0.004140
  0
VERTEX
  8
0
 10
536.000000
 20
489.455724
 42
0.000232
  0
VERTEX
  8
0
 10
544.558049
 20
492.380200
 42
0.000126
  0
VERTEX
  8
0
 10
555.087500
 20
495.986768
 42
0.000125
  0
VERTEX
  8
0
 10
565.806625
 20
499.664312
 42
0.000198
  0
VERTEX
  8
0
 10
575.000000
 20
502.825031
 42
-0.004093
  0
VERTEX
  8
0
 10
605.036383
 20
512.890691
 42
-0.004434
  0
VERTEX
  8
0
 10
634.444062
 20
522.190930
 42
-0.003688
  0
VERTEX
  8
0
 10
659.800507
 20
529.759115
 42
-0.029597
  0
VERTEX
  8
0
 10
671.674593
 20
532.458081
 42
-0.087415
  0
VERTEX
  8
0
 10
674.908217
 20
532.425546
 42
-0.213225
  0
VERTEX
  8
0
 10
676.825877
 20
531.100595
 42
-0.076529
  0
VERTEX
  8
0
 10
678.237010
 20
527.699317
 42
-0.005708
  0
VERTEX
  8
0
 10
680.522798
 20
517.896927
 42
-0.027038
  0
VERTEX
  8
0
 10
686.258594
 20
483.153377
 42
-0.033778
  0
VERTEX
  8
0
 10
687.631572
 20
450.498282
 42
-0.032801
  0
VERTEX
  8
0
 10
684.588996
 20
417.188351
 42
-0.023288
  0
VERTEX
  8
0
 10
677.015328
 20
380.437091
 42
-0.011476
  0
VERTEX
  8
0
 10
673.387071
 20
367.466254
 42
-0.018091
  0
VERTEX
  8
0
 10
669.621115
 20
356.538726
 42
-0.018727
  0
VERTEX
  8
0
 10
665.177495
 20
346.187972
 42
-0.013564
  0
VERTEX
  8
0
 10
659.493194
 20
335.000000
 42
0.002826
  0
VERTEX
  8
0
 10
654.142458
 20
325.005938
 42
0.004897
  0
VERTEX
  8
0
 10
649.825294
 20
316.634155
 42
0.002105
  0
VERTEX
  8
0
 10
646.333331
 20
309.623312
 42
0.114978
  0
VERTEX
  8
0
 10
646.000000
 20
308.192932
 42
0.358847
  0
VERTEX
  8
0
 10
647.364628
 20
306.536373
 42
0.002452
  0
VERTEX
  8
0
 10
666.792501
 20
302.845266
 42
0.008419
  0
VERTEX
  8
0
 10
684.931324
 20
299.806075
 42
0.037302
  0
VERTEX
  8
0
 10
695.713729
 20
299.000196
 42
0.000000
  0
VERTEX
  8
0
 10
701.927458
 20
299.000000
 42
0.000000
  0
VERTEX
  8
0
 10
703.840281
 20
305.250000
 42
-0.030890
  0
VERTEX
  8
0
 10
705.468869
 20
309.593035
 42
-0.156071
  0
VERTEX
  8
0
 10
707.174147
 20
311.497917
 42
-0.173781
  0
VERTEX
  8
0
 10
709.558902
 20
311.948802
 42
-0.040400
  0
VERTEX
  8
0
 10
713.584355
 20
310.972160
 42
0.022019
  0
VERTEX
  8
0
 10
714.993668
 20
310.574914
 42
0.030181
  0
VERTEX
  8
0
 10
716.291925
 20
310.351564
 42
0.030572
  0
VERTEX
  8
0
 10
717.341995
 20
310.300172
 42
0.199651
  0
VERTEX
  8
0
 10
717.817002
 20
310.504562
 42
0.426204
  0
VERTEX
  8
0
 10
717.756192
 20
312.219467
 42
0.007345
  0
VERTEX
  8
0
 10
709.930719
 20
319.012409
 42
0.015130
  0
VERTEX
  8
0
 10
700.702115
 20
326.322853
 42
0.013854
  0
VERTEX
  8
0
 10
690.777922
 20
333.288243
 42
-0.003674
  0
VERTEX
  8
0
 10
682.949962
 20
338.547831
 42
-0.026960
  0
VERTEX
  8
0
 10
679.368179
 20
341.286977
 42
-0.062470
  0
VERTEX
  8
0
 10
677.629933
 20
343.193579
 42
-0.185971
  0
VERTEX
  8
0
 10
677.205675
 20
344.878135
 42
-0.135687
  0
VERTEX
  8
0
 10
678.274264
 20
347.472246
 42
-0.271233
  0
VERTEX
  8
0
 10
680.264826
 20
348.268688
 42
-0.086980
  0
VERTEX
  8
0
 10
683.929609
 20
347.043454
 42
-0.009923
  0
VERTEX
  8
0
 10
691.543955
 20
342.723997
 42
-0.015315
  0
VERTEX
  8
0
 10
701.950087
 20
336.105491
 42
-0.009372
  0
VERTEX
  8
0
 10
713.825262
 20
327.701779
 42
-0.008105
  0
VERTEX
  8
0
 10
724.600305
 20
319.496776
 42
-0.045843
  0
VERTEX
  8
0
 10
729.835890
 20
314.534130
 42
-0.019630
  0
VERTEX
  8
0
 10
731.292288
 20
312.737830
 42
-0.009455
  0
VERTEX
  8
0
 10
733.022088
 20
310.330707
 42
-0.009360
  0
VERTEX
  8
0
 10
734.733666
 20
307.749267
 42
-0.013240
  0
VERTEX
  8
0
 10
736.152125
 20
305.384443
 42
0.006404
  0
VERTEX
  8
0
 10
738.150080
 20
301.947852
 42
0.095716
  0
VERTEX
  8
0
 10
739.071825
 20
300.918439
 42
0.277311
  0
VERTEX
  8
0
 10
739.933112
 20
300.824494
 42
0.075941
  0
VERTEX
  8
0
 10
741.121085
 20
301.609580
 42
0.177339
  0
VERTEX
  8
0
 10
742.652239
 20
304.520700
 42
0.105580
  0
VERTEX
  8
0
 10
742.346570
 20
308.472115
 42
0.066127
  0
VERTEX
  8
0
 10
740.077654
 20
313.557698
 42
0.026096
  0
VERTEX
  8
0
 10
735.717639
 20
319.877857
 42
0.047896
  0
VERTEX
  8
0
 10
728.528793
 20
327.566975
 42
0.015501
  0
VERTEX
  8
0
 10
716.522832
 20
337.522308
 42
0.015464
  0
VERTEX
  8
0
 10
702.581361
 20
347.695129
 42
0.018158
  0
VERTEX
  8
0
 10
688.750000
 20
356.427180
 42
-0.052424
  0
VERTEX
  8
0
 10
685.587810
 20
358.740407
 42
-0.125656
  0
VERTEX
  8
0
 10
683.996608
 20
361.145580
 42
-0.226352
  0
VERTEX
  8
0
 10
684.218023
 20
363.136884
 42
-0.178750
  0
VERTEX
  8
0
 10
685.950021
 20
364.484137
 42
-0.151719
  0
VERTEX
  8
0
 10
688.213848
 20
364.498149
 42
-0.044409
  0
VERTEX
  8
0
 10
691.478264
 20
363.180224
 42
-0.023261
  0
VERTEX
  8
0
 10
696.483191
 20
360.321329
 42
-0.004184
  0
VERTEX
  8
0
 10
705.500000
 20
354.492523
 42
-0.016688
  0
VERTEX
  8
0
 10
719.982218
 20
344.249266
 42
-0.023494
  0
VERTEX
  8
0
 10
732.120751
 20
334.108648
 42
-0.026773
  0
VERTEX
  8
0
 10
741.425105
 20
324.595866
 42
-0.062226
  0
VERTEX
  8
0
 10
747.019156
 20
316.357301
 42
-0.026748
  0
VERTEX
  8
0
 10
748.207965
 20
313.686076
 42
-0.036933
  0
VERTEX
  8
0
 10
748.961748
 20
311.173024
 42
-0.034592
  0
VERTEX
  8
0
 10
749.368461
 20
308.452899
 42
-0.019819
  0
VERTEX
  8
0
 10
749.500000
 20
305.135642
 42
-0.012800
  0
VERTEX
  8
0
 10
749.398664
 20
301.177828
 42
-0.080420
  0
VERTEX
  8
0
 10
748.975360
 20
299.208167
 42
-0.098174
  0
VERTEX
  8
0
 10
747.981672
 20
297.650716
 42
-0.023593
  0
VERTEX
  8
0
 10
745.750000
 20
295.529665
 42
0.022689
  0
VERTEX
  8
0
 10
743.671658
 20
293.561479
 42
0.080582
  0
VERTEX
  8
0
 10
742.629219
 20
292.058573
 42
0.084806
  0
VERTEX
  8
0
 10
742.143021
 20
290.344598
 42
0.026806
  0
VERTEX
  8
0
 10
742.000000
 20
287.678819
 42
-0.029057
  0
VERTEX
  8
0
 10
741.854684
 20
285.180400
 42
-0.061179
  0
VERTEX
  8
0
 10
741.396549
 20
283.295258
 42
-0.061118
  0
VERTEX
  8
0
 10
740.495503
 20
281.575832
 42
-0.028947
  0
VERTEX
  8
0
 10
738.953373
 20
279.599676
 42
-0.081302
  0
VERTEX
  8
0
 10
734.505484
 20
275.943489
 42
-0.077614
  0
VERTEX
  8
0
 10
729.053667
 20
273.823599
 42
-0.045207
  0
VERTEX
  8
0
 10
720.964699
 20
272.802418
 42
-0.010032
  0
VERTEX
  8
0
 10
707.000000
 20
272.590648
 42
-0.011913
  0
VERTEX
  8
0
 10
693.043280
 20
272.991648
 42
-0.016189
  0
VERTEX
  8
0
 10
680.488619
 20
274.060403
 42
-0.012205
  0
VERTEX
  8
0
 10
665.616791
 20
276.182074
 42
-0.003748
  0
VERTEX
  8
0
 10
643.280448
 20
280.099359
 42
0.003852
  0
VERTEX
  8
0
 10
636.861115
 20
281.223778
 42
0.005812
  0
VERTEX
  8
0
 10
631.250831
 20
282.095083
 42
0.002524
  0
VERTEX
  8
0
 10
626.462728
 20
282.757158
 42
0.125341
  0
VERTEX
  8
0
 10
625.521054
 20
282.646453
 42
0.160796
  0
VERTEX
  8
0
 10
624.382184
 20
281.715522
 42
0.092677
  0
VERTEX
  8
0
 10
623.715628
 20
280.055544
 42
0.125365
  0
VERTEX
  8
0
 10
623.792539
 20
278.589590
 42
0.328327
  0
VERTEX
  8
0
 10
624.593620
 20
278.000000
 42
-0.069385
  0
VERTEX
  8
0
 10
625.131138
 20
277.925048
 42
-0.085458
  0
VERTEX
  8
0
 10
625.586876
 20
277.706250
 42
-0.100015
  0
VERTEX
  8
0
 10
625.891590
 20
277.381338
 42
-0.139383
  0
VERTEX
  8
0
 10
626.000000
 20
277.000000
 42
-0.221988
  0
VERTEX
  8
0
 10
625.821252
 20
276.617232
 42
-0.076817
  0
VERTEX
  8
0
 10
625.286077
 20
276.293750
 42
-0.058416
  0
VERTEX
  8
0
 10
624.500255
 20
276.073180
 42
-0.039257
  0
VERTEX
  8
0
 10
623.569623
 20
276.000000
 42
0.137877
  0
VERTEX
  8
0
 10
621.896007
 20
275.529550
 42
0.015304
  0
VERTEX
  8
0
 10
618.539108
 20
273.336643
 42
0.014787
  0
VERTEX
  8
0
 10
614.115971
 20
270.051418
 42
0.006108
  0
VERTEX
  8
0
 10
608.319623
 20
265.358156
 42
-0.004887
  0
VERTEX
  8
0
 10
595.711975
 20
255.098758
 42
-0.007697
  0
VERTEX
  8
0
 10
584.669796
 20
246.565993
 42
-0.008738
  0
VERTEX
  8
0
 10
574.556182
 20
239.268728
 42
-0.010502
  0
VERTEX
  8
0
 10
564.787753
 20
232.776924
 42
-0.066846
  0
VERTEX
  8
0
 10
500.600852
 20
203.179857
 42
-0.066725
  0
VERTEX
  8
0
 10
430.839694
 20
191.541694
 42
-0.066746
  0
VERTEX
  8
0
 10
360.495388
 20
198.687768
 42
-0.066957
  0
VERTEX
  8
0
 10
294.599973
 20
224.113482
 42
-0.031650
  0
VERTEX
  8
0
 10
266.428665
 20
241.981871
 42
-0.031625
  0
VERTEX
  8
0
 10
240.730372
 20
263.267313
 42
-0.031502
  0
VERTEX
  8
0
 10
217.830061
 20
287.709868
 42
-0.030851
  0
VERTEX
  8
0
 10
198.008917
 20
315.000000
 42
-0.019358
  0
VERTEX
  8
0
 10
190.360637
 20
328.120430
 42
-0.009131
  0
VERTEX
  8
0
 10
181.465334
 20
345.597430
 42
-0.004934
  0
VERTEX
  8
0
 10
173.201611
 20
363.029777
 42
-0.108624
  0
VERTEX
  8
0
 10
172.000000
 20
368.495551
 42
-0.282925
  0
VERTEX
  8
0
 10
173.264247
 20
370.550955
 42
-0.014322
  0
VERTEX
  8
0
 10
180.689271
 20
374.039983
 42
-0.014571
  0
VERTEX
  8
0
 10
191.958312
 20
378.560567
 42
-0.004070
  0
VERTEX
  8
0
 10
209.843420
 20
384.972192
 42
-0.001567
  0
VERTEX
  8
0
 10
224.417437
 20
390.012142
 42
-0.019674
  0
VERTEX
  8
0
 10
230.000809
 20
391.681130
 42
-0.058320
  0
VERTEX
  8
0
 10
232.974635
 20
392.083890
 42
-0.239481
  0
VERTEX
  8
0
 10
234.561617
 20
391.313370
 42
-0.099077
  0
VERTEX
  8
0
 10
235.843159
 20
388.668324
 42
-0.253989
  0
VERTEX
  8
0
 10
235.346144
 20
386.670189
 42
-0.119298
  0
VERTEX
  8
0
 10
232.815675
 20
384.968291
 42
-0.018212
  0
VERTEX
  8
0
 10
227.000000
 20
383.052778
 42
0.007668
  0
VERTEX
  8
0
 10
211.734449
 20
378.379126
 42
0.006629
  0
VERTEX
  8
0
 10
195.856367
 20
373.016858
 42
0.001736
  0
VERTEX
  8
0
 10
180.664485
 20
367.601549
 42
0.217982
  0
VERTEX
  8
0
 10
179.254111
 20
366.219818
 42
0.164211
  0
VERTEX
  8
0
 10
179.149194
 20
363.655436
 42
0.020320
  0
VERTEX
  8
0
 10
180.961613
 20
358.281126
 42
0.016895
  0
VERTEX
  8
0
 10
184.185949
 20
350.648054
 42
0.005373
  0
VERTEX
  8
0
 10
189.491716
 20
339.500000
 42
0.020385
  0
VERTEX
  8
0
 10
199.612285
 20
320.784576
 42
0.023190
  0
VERTEX
  8
0
 10
210.829573
 20
303.769659
 42
0.022716
  0
VERTEX
  8
0
 10
223.784959
 20
287.572579
 42
0.018141
  0
VERTEX
  8
0
 10
239.130771
 20
271.308569
 42
0.029949
  0
VERTEX
  8
0
 10
265.624708
 20
248.152113
 42
0.034460
  0
VERTEX
  8
0
 10
293.531105
 20
229.487119
 42
0.034666
  0
VERTEX
  8
0
 10
323.586119
 20
214.920250
 42
0.030993
  0
VERTEX
  8
0
 10
356.500000
 20
204.011473
 42
0.015111
  0
VERTEX
  8
0
 10
373.831010
 20
199.992768
 42
0.019209
  0
VERTEX
  8
0
 10
390.042582
 20
197.389545
 42
0.018743
  0
VERTEX
  8
0
 10
406.725865
 20
195.996206
 42
0.013306
  0
VERTEX
  8
0
 10
425.500000
 20
195.635117
 42
0.028866
  0
VERTEX
  8
0
 10
456.043369
 20
197.626183
 42
0.030672
  0
VERTEX
  8
0
 10
485.529565
 20
203.117907
 42
0.030453
  0
VERTEX
  8
0
 10
514.313480
 20
212.222471
 42
0.027631
  0
VERTEX
  8
0
 10
542.758647
 20
225.010136
 42
0.018872
  0
VERTEX
  8
0
 10
559.762088
 20
234.643670
 42
0.020665
  0
VERTEX
  8
0
 10
575.468483
 20
245.263439
 42
0.022135
  0
VERTEX
  8
0
 10
589.026529
 20
256.230031
 42
0.034974
  0
VERTEX
  8
0
 10
599.502159
 20
266.893952
 42
0.008288
  0
VERTEX
  8
0
 10
602.835023
 20
270.932184
 42
0.097819
  0
VERTEX
  8
0
 10
603.767208
 20
272.729753
 42
0.527103
  0
VERTEX
  8
0
 10
603.253088
 20
273.356746
 42
0.070130
  0
VERTEX
  8
0
 10
601.250000
 20
272.895703
 42
-0.048334
  0
VERTEX
  8
0
 10
599.934150
 20
272.532007
 42
-0.024698
  0
VERTEX
  8
0
 10
598.231842
 20
272.320375
 42
-0.024288
  0
VERTEX
  8
0
 10
596.440798
 20
272.274273
 42
-0.033394
  0
VERTEX
  8
0
 10
594.837123
 20
272.418340
 42
0.044999
  0
VERTEX
  8
0
 10
592.677042
 20
272.562023
 42
0.084982
  0
VERTEX
  8
0
 10
590.968396
 20
272.227965
 42
0.061340
  0
VERTEX
  8
0
 10
589.126519
 20
271.256954
 42
0.014631
  0
VERTEX
  8
0
 10
586.337123
 20
269.193347
 42
-0.007198
  0
VERTEX
  8
0
 10
570.402525
 20
257.034271
 42
-0.014896
  0
VERTEX
  8
0
 10
557.549219
 20
248.096247
 42
-0.016958
  0
VERTEX
  8
0
 10
545.321934
 20
240.701545
 42
-0.013006
  0
VERTEX
  8
0
 10
531.500000
 20
233.435358
 42
-0.021981
  0
VERTEX
  8
0
 10
513.071711
 20
225.337421
 42
-0.020173
  0
VERTEX
  8
0
 10
493.473184
 20
218.630288
 42
-0.019920
  0
VERTEX
  8
0
 10
473.137143
 20
213.447232
 42
-0.020059
  0
VERTEX
  8
0
 10
452.500000
 20
209.913015
 42
-0.025037
  0
VERTEX
  8
0
 10
439.309504
 20
208.863035
 42
-0.011257
  0
VERTEX
  8
0
 10
421.928885
 20
208.743844
 42
-0.011292
  0
VERTEX
  8
0
 10
404.368598
 20
209.415634
 42
-0.022325
  0
VERTEX
  8
0
 10
390.500000
 20
210.883697
 42
-0.027226
  0
VERTEX
  8
0
 10
362.409757
 20
216.710828
 42
-0.028950
  0
VERTEX
  8
0
 10
335.703519
 20
225.468126
 42
-0.029201
  0
VERTEX
  8
0
 10
310.399855
 20
237.168997
 42
-0.028768
  0
VERTEX
  8
0
 10
286.500000
 20
251.790499
 42
-0.035211
  0
VERTEX
  8
0
 10
261.024310
 20
272.263516
 42
-0.032778
  0
VERTEX
  8
0
 10
238.012927
 20
296.575527
 42
-0.032967
  0
VERTEX
  8
0
 10
218.505227
 20
323.529763
 42
-0.036735
  0
VERTEX
  8
0
 10
203.484691
 20
351.886070
 42
-0.049381
  0
VERTEX
  8
0
 10
200.925248
 20
359.740456
 42
-0.230127
  0
VERTEX
  8
0
 10
202.008146
 20
364.242520
 42
-0.135069
  0
VERTEX
  8
0
 10
206.804722
 20
367.622532
 42
-0.014143
  0
VERTEX
  8
0
 10
219.990521
 20
371.949144
 42
-0.006572
  0
VERTEX
  8
0
 10
228.675394
 20
374.405480
 42
-0.066492
  0
VERTEX
  8
0
 10
232.391526
 20
374.890180
 42
-0.201522
  0
VERTEX
  8
0
 10
234.360722
 20
374.055746
 42
-0.139920
  0
VERTEX
  8
0
 10
235.521708
 20
371.901163
 42
-0.029304
  0
VERTEX
  8
0
 10
235.719667
 20
370.655592
 42
-0.035677
  0
VERTEX
  8
0
 10
235.752366
 20
369.475287
 42
-0.038500
  0
VERTEX
  8
0
 10
235.635268
 20
368.508942
 42
-0.154695
  0
VERTEX
  8
0
 10
235.351163
 20
367.994417
 42
-0.099014
  0
VERTEX
  8
0
 10
234.701063
 20
367.585069
 42
-0.006106
  0
VERTEX
  8
0
 10
232.546904
 20
366.792987
 42
-0.008871
  0
VERTEX
  8
0
 10
229.934917
 20
365.920432
 42
-0.006446
  0
VERTEX
  8
0
 10
227.000000
 20
365.038954
 42
0.004958
  0
VERTEX
  8
0
 10
219.690041
 20
362.867159
 42
0.012344
  0
VERTEX
  8
0
 10
214.402057
 20
361.094813
 42
0.008006
  0
VERTEX
  8
0
 10
210.499316
 20
359.607530
 42
0.306788
  0
VERTEX
  8
0
 10
210.000000
 20
358.870341
 42
0.115117
  0
VERTEX
  8
0
 10
210.472008
 20
356.847389
 42
0.001840
  0
VERTEX
  8
0
 10
215.748288
 20
346.254703
 42
0.005452
  0
VERTEX
  8
0
 10
221.060230
 20
335.969104
 42
0.011831
  0
VERTEX
  8
0
 10
225.411317
 20
328.213754
 42
0.009136
  0
VERTEX
  8
0
 10
228.038637
 20
323.959246
 42
0.004904
  0
VERTEX
  8
0
 10
231.427103
 20
318.801927
 42
0.004881
  0
VERTEX
  8
0
 10
234.987137
 20
313.607878
 42
0.007622
  0
VERTEX
  8
0
 10
238.163237
 20
309.213754
 42
0.025264
  0
VERTEX
  8
0
 10
246.977484
 20
298.569539
 42
0.011121
  0
VERTEX
  8
0
 10
259.636122
 20
285.367482
 42
0.011140
  0
VERTEX
  8
0
 10
272.917448
 20
272.696418
 42
0.024284
  0
VERTEX
  8
0
 10
283.763368
 20
263.725726
 42
0.067176
  0
VERTEX
  8
0
 10
339.651658
 20
232.585699
 42
0.068760
  0
VERTEX
  8
0
 10
401.354399
 20
217.689387
 42
0.068722
  0
VERTEX
  8
0
 10
464.815006
 20
220.079376
 42
0.066980
  0
VERTEX
  8
0
 10
525.848099
 20
239.537853
 42
0.019012
  0
VERTEX
  8
0
 10
539.204365
 20
246.498239
 42
0.016530
  0
VERTEX
  8
0
 10
552.646170
 20
254.767001
 42
0.016912
  0
VERTEX
  8
0
 10
565.110815
 20
263.634862
 42
0.024083
  0
VERTEX
  8
0
 10
575.500000
 20
272.391590
 42
0.000000
  0
VERTEX
  8
0
 10
581.500000
 20
277.964341
 42
0.000000
  0
VERTEX
  8
0
 10
578.750000
 20
280.434205
 42
-0.019468
  0
VERTEX
  8
0
 10
577.697075
 20
281.456651
 42
-0.024417
  0
VERTEX
  8
0
 10
576.807812
 20
282.486386
 42
-0.023775
  0
VERTEX
  8
0
 10
576.161349
 20
283.399692
 42
-0.143069
  0
VERTEX
  8
0
 10
576.000000
 20
283.952034
 42
0.080969
  0
VERTEX
  8
0
 10
575.934752
 20
284.352307
 42
0.091756
  0
VERTEX
  8
0
 10
575.746357
 20
284.692160
 42
0.100716
  0
VERTEX
  8
0
 10
575.465864
 20
284.919388
 42
0.120608
  0
VERTEX
  8
0
 10
575.136536
 20
285.000000
 42
-0.241343
  0
VERTEX
  8
0
 10
574.814734
 20
285.164936
 42
-0.076239
  0
VERTEX
  8
0
 10
574.561936
 20
285.660937
 42
-0.056668
  0
VERTEX
  8
0
 10
574.410000
 20
286.388187
 42
-0.036512
  0
VERTEX
  8
0
 10
574.392976
 20
287.250000
 42
-0.133474
  0
VERTEX
  8
0
 10
574.808912
 20
288.510952
 42
-0.186533
  0
VERTEX
  8
0
 10
575.766698
 20
289.191792
 42
-0.056180
  0
VERTEX
  8
0
 10
577.838262
 20
289.477174
 42
-0.004254
  0
VERTEX
  8
0
 10
583.506440
 20
289.568719
 42
0.001888
  0
VERTEX
  8
0
 10
589.768614
 20
289.640211
 42
0.016366
  0
VERTEX
  8
0
 10
592.553461
 20
289.773764
 42
0.051742
  0
VERTEX
  8
0
 10
593.816327
 20
290.008844
 42
0.571458
  0
VERTEX
  8
0
 10
593.916667
 20
290.410124
 42
0.121988
  0
VERTEX
  8
0
 10
593.522573
 20
290.643529
 42
0.000106
  0
VERTEX
  8
0
 10
582.900521
 20
293.833191
 42
0.001114
  0
VERTEX
  8
0
 10
571.024142
 20
297.367955
 42
0.000682
  0
VERTEX
  8
0
 10
557.000000
 20
301.487201
 42
-0.004007
  0
VERTEX
  8
0
 10
514.613625
 20
314.243995
 42
-0.003376
  0
VERTEX
  8
0
 10
469.936728
 20
328.412878
 42
-0.003448
  0
VERTEX
  8
0
 10
428.894282
 20
342.048347
 42
-0.008194
  0
VERTEX
  8
0
 10
398.614392
 20
352.897304
 42
0.002444
  0
VERTEX
  8
0
 10
394.380185
 20
354.469547
 42
0.003680
  0
VERTEX
  8
0
 10
390.672516
 20
355.794833
 42
0.001500
  0
VERTEX
  8
0
 10
387.487244
 20
356.896309
 42
0.082670
  0
VERTEX
  8
0
 10
386.864392
 20
357.000000
 42
0.365731
  0
VERTEX
  8
0
 10
386.064848
 20
356.324857
 42
0.149996
  0
VERTEX
  8
0
 10
386.262230
 20
354.808657
 42
0.066549
  0
VERTEX
  8
0
 10
387.684353
 20
352.540973
 42
0.034319
  0
VERTEX
  8
0
 10
390.000000
 20
350.112594
 42
-0.010885
  0
VERTEX
  8
0
 10
391.532369
 20
348.649385
 42
-0.015440
  0
VERTEX
  8
0
 10
392.825000
 20
347.277970
 42
-0.011442
  0
VERTEX
  8
0
 10
393.823135
 20
346.097912
 42
-0.171448
  0
VERTEX
  8
0
 10
394.000000
 20
345.597274
 42
-0.344021
  0
VERTEX
  8
0
 10
393.769611
 20
345.302056
 42
-0.043699
  0
VERTEX
  8
0
 10
392.917802
 20
345.166251
 42
-0.036461
  0
VERTEX
  8
0
 10
391.728387
 20
345.168785
 42
-0.021467
  0
VERTEX
  8
0
 10
390.315923
 20
345.336159
 42
0.050349
  0
VERTEX
  8
0
 10
388.010898
 20
345.475232
 42
0.123432
  0
VERTEX
  8
0
 10
386.393005
 20
344.999521
 42
0.067964
  0
VERTEX
  8
0
 10
384.652014
 20
343.627815
 42
0.008056
  0
VERTEX
  8
0
 10
381.284796
 20
340.025321
 42
-0.038669
  0
VERTEX
  8
0
 10
375.939027
 20
334.965198
 42
-0.055343
  0
VERTEX
  8
0
 10
370.448156
 20
331.445094
 42
-0.056471
  0
VERTEX
  8
0
 10
364.406317
 20
329.262327
 42
-0.042469
  0
VERTEX
  8
0
 10
357.413000
 20
328.212723
 42
-0.057938
  0
VERTEX
  8
0
 10
348.902883
 20
328.652731
 42
-0.082373
  0
VERTEX
  8
0
 10
341.755405
 20
331.115133
 42
-0.084180
  0
VERTEX
  8
0
 10
335.895422
 20
335.701867
 42
-0.063382
  0
VERTEX
  8
0
 10
331.185778
 20
342.409980
 42
-0.027527
  0
VERTEX
  8
0
 10
329.701006
 20
345.643303
 42
-0.051888
  0
VERTEX
  8
0
 10
328.931030
 20
348.406468
 42
-0.035140
  0
VERTEX
  8
0
 10
328.587288
 20
351.908893
 42
-0.006895
  0
VERTEX
  8
0
 10
328.500000
 20
358.238285
 42
0.002878
  0
VERTEX
  8
0
 10
328.460605
 20
365.081728
 42
0.046475
  0
VERTEX
  8
0
 10
328.220484
 20
367.373479
 42
0.234598
  0
VERTEX
  8
0
 10
327.589677
 20
368.189393
 42
0.203421
  0
VERTEX
  8
0
 10
326.500000
 20
368.244391
 42
-0.041129
  0
VERTEX
  8
0
 10
325.485719
 20
367.965073
 42
-0.015646
  0
VERTEX
  8
0
 10
324.035180
 20
367.738088
 42
-0.015371
  0
VERTEX
  8
0
 10
322.435834
 20
367.588603
 42
-0.018181
  0
VERTEX
  8
0
 10
320.917634
 20
367.548974
 42
0.034770
  0
VERTEX
  8
0
 10
318.783237
 20
367.422363
 42
0.146826
  0
VERTEX
  8
0
 10
317.625864
 20
366.905055
 42
0.112406
  0
VERTEX
  8
0
 10
316.779385
 20
365.756261
 42
0.016490
  0
VERTEX
  8
0
 10
315.704577
 20
363.050975
 42
0.010208
  0
VERTEX
  8
0
 10
314.716142
 20
360.115393
 42
0.104260
  0
VERTEX
  8
0
 10
314.593021
 20
358.844809
 42
0.157956
  0
VERTEX
  8
0
 10
315.038486
 20
357.859204
 42
0.032059
  0
VERTEX
  8
0
 10
316.434959
 20
356.508107
 42
-0.127486
  0
VERTEX
  8
0
 10
318.553217
 20
353.492810
 42
-0.011210
  0
VERTEX
  8
0
 10
321.657501
 20
344.615082
 42
-0.014535
  0
VERTEX
  8
0
 10
324.295528
 20
335.607321
 42
-0.064044
  0
VERTEX
  8
0
 10
325.000000
 20
330.129983
 42
0.046249
  0
VERTEX
  8
0
 10
325.110857
 20
328.934075
 42
0.040902
  0
VERTEX
  8
0
 10
325.440625
 20
327.726699
 42
0.043116
  0
VERTEX
  8
0
 10
325.924633
 20
326.683924
 42
0.089572
  0
VERTEX
  8
0
 10
326.500000
 20
326.000000
 42
-0.143212
  0
VERTEX
  8
0
 10
327.545217
 20
324.450969
 42
-0.069355
  0
VERTEX
  8
0
 10
327.954668
 20
322.074276
 42
-0.070129
  0
VERTEX
  8
0
 10
327.698875
 20
319.713136
 42
-0.160144
  0
VERTEX
  8
0
 10
326.750000
 20
318.218108
 42
-0.094507
  0
VERTEX
  8
0
 10
322.922959
 20
316.131286
 42
-0.002137
  0
VERTEX
  8
0
 10
302.965477
 20
309.815580
 42
-0.001584
  0
VERTEX
  8
0
 10
282.559887
 20
303.524730
 42
-0.136280
  0
VERTEX
  8
0
 10
279.363708
 20
303.444851
 42
-0.149977
  0
VERTEX
  8
0
 10
277.654097
 20
304.478121
 42
-0.095924
  0
VERTEX
  8
0
 10
276.455290
 20
306.486415
 42
-0.093090
  0
VERTEX
  8
0
 10
276.069977
 20
308.855206
 42
-0.130220
  0
VERTEX
  8
0
 10
276.666843
 20
310.904777
 42
-0.157983
  0
VERTEX
  8
0
 10
277.634847
 20
311.745356
 42
-0.004925
  0
VERTEX
  8
0
 10
282.550946
 20
313.776692
 42
-0.009051
  0
VERTEX
  8
0
 10
288.538240
 20
316.056920
 42
-0.005781
  0
VERTEX
  8
0
 10
295.573760
 20
318.500000
 42
0.000397
  0
VERTEX
  8
0
 10
302.555881
 20
320.840602
 42
0.000588
  0
VERTEX
  8
0
 10
308.675601
 20
322.905521
 42
0.000259
  0
VERTEX
  8
0
 10
313.900109
 20
324.678239
 42
0.011655
  0
VERTEX
  8
0
 10
314.975617
 20
325.071985
 42
0.295739
  0
VERTEX
  8
0
 10
315.555597
 20
325.881891
 42
0.061082
  0
VERTEX
  8
0
 10
315.416464
 20
327.717723
 42
0.027589
  0
VERTEX
  8
0
 10
314.587772
 20
330.925379
 42
0.004428
  0
VERTEX
  8
0
 10
312.572375
 20
337.071985
 42
0.003544
  0
VERTEX
  8
0
 10
311.036977
 20
341.514163
 42
0.005188
  0
VERTEX
  8
0
 10
309.617637
 20
345.399451
 42
0.002622
  0
VERTEX
  8
0
 10
308.364977
 20
348.669091
 42
0.089667
  0
VERTEX
  8
0
 10
307.933465
 20
349.372955
 42
0.243471
  0
VERTEX
  8
0
 10
307.430164
 20
349.564888
 42
0.052959
  0
VERTEX
  8
0
 10
306.493904
 20
349.356365
 42
0.043930
  0
VERTEX
  8
0
 10
305.343459
 20
348.852559
 42
0.029560
  0
VERTEX
  8
0
 10
304.127273
 20
348.090627
 42
-0.066935
  0
VERTEX
  8
0
 10
293.882468
 20
342.690415
 42
-0.070297
  0
VERTEX
  8
0
 10
282.744899
 20
340.304040
 42
-0.074206
  0
VERTEX
  8
0
 10
271.923924
 20
341.143590
 42
-0.090106
  0
VERTEX
  8
0
 10
262.589398
 20
345.148582
 42
-0.107050
  0
VERTEX
  8
0
 10
254.696615
 20
353.247875
 42
-0.077611
  0
VERTEX
  8
0
 10
249.727374
 20
364.862167
 42
-0.075899
  0
VERTEX
  8
0
 10
248.466184
 20
377.707673
 42
-0.093650
  0
VERTEX
  8
0
 10
251.326110
 20
389.374430
 42
0.002251
  0
VERTEX
  8
0
 10
252.350933
 20
391.653082
 42
0.003471
  0
VERTEX
  8
0
 10
253.214545
 20
393.633570
 42
0.001151
  0
VERTEX
  8
0
 10
253.944618
 20
395.350981
 42
0.100247
  0
VERTEX
  8
0
 10
254.000000
 20
395.624430
 42
0.370109
  0
VERTEX
  8
0
 10
253.871975
 20
395.773694
 42
0.010997
  0
VERTEX
  8
0
 10
252.990998
 20
395.889676
 42
0.016968
  0
VERTEX
  8
0
 10
251.882068
 20
395.972972
 42
0.010260
  0
VERTEX
  8
0
 10
250.565100
 20
396.000000
 42
-0.022311
  0
VERTEX
  8
0
 10
249.074517
 20
396.066546
 42
-0.016459
  0
VERTEX
  8
0
 10
247.434732
 20
396.267839
 42
-0.016703
  0
VERTEX
  8
0
 10
245.894558
 20
396.561587
 42
-0.035379
  0
VERTEX
  8
0
 10
244.732005
 20
396.911792
 42
0.021903
  0
VERTEX
  8
0
 10
243.544922
 20
397.304549
 42
0.009094
  0
VERTEX
  8
0
 10
241.910992
 20
397.734900
 42
0.008977
  0
VERTEX
  8
0
 10
240.141143
 20
398.133261
 42
0.011458
  0
VERTEX
  8
0
 10
238.496235
 20
398.433472
 42
-0.020011
  0
VERTEX
  8
0
 10
233.881623
 20
399.357493
 42
-0.013297
  0
VERTEX
  8
0
 10
228.670643
 20
400.767378
 42
-0.012166
  0
VERTEX
  8
0
 10
223.933498
 20
402.311799
 42
-0.055789
  0
VERTEX
  8
0
 10
221.335072
 20
403.570032
 42
-0.051020
  0
VERTEX
  8
0
 10
220.373947
 20
404.322710
 42
-0.095943
  0
VERTEX
  8
0
 10
219.808590
 20
405.126160
 42
-0.103360
  0
VERTEX
  8
0
 10
219.608197
 20
406.039908
 42
-0.066518
  0
VERTEX
  8
0
 10
219.741674
 20
407.120162
 42
0.052765
  0
VERTEX
  8
0
 10
219.931415
 20
408.372663
 42
0.320953
  0
VERTEX
  8
0
 10
219.594304
 20
408.891472
 42
0.124749
  0
VERTEX
  8
0
 10
218.670607
 20
409.007752
 42
0.007687
  0
VERTEX
  8
0
 10
215.906603
 20
408.622858
 42
0.023305
  0
VERTEX
  8
0
 10
213.145788
 20
408.062242
 42
0.002278
  0
VERTEX
  8
0
 10
206.555567
 20
406.368980
 42
0.002881
  0
VERTEX
  8
0
 10
198.716742
 20
404.268464
 42
0.002277
  0
VERTEX
  8
0
 10
190.261285
 20
401.908970
 42
-0.004394
  0
VERTEX
  8
0
 10
181.062329
 20
399.383941
 42
-0.008464
  0
VERTEX
  8
0
 10
173.644319
 20
397.551508
 42
-0.008001
  0
VERTEX
  8
0
 10
167.902900
 20
396.332280
 42
-0.069252
  0
VERTEX
  8
0
 10
165.298069
 20
396.188962
 42
-0.043417
  0
VERTEX
  8
0
 10
162.987126
 20
396.585881
 42
-0.162964
  0
VERTEX
  8
0
 10
161.772792
 20
397.381410
 42
-0.086253
  0
VERTEX
  8
0
 10
160.878706
 20
399.035017
 42
-0.007278
  0
VERTEX
  8
0
 10
159.399203
 20
403.669207
 42
-0.013636
  0
VERTEX
  8
0
 10
158.320722
 20
407.608863
 42
-0.003246
  0
VERTEX
  8
0
 10
156.747686
 20
414.224463
 42
-0.003335
  0
VERTEX
  8
0
 10
155.040002
 20
421.850977
 42
-0.003290
  0
VERTEX
  8
0
 10
153.426127
 20
429.534598
 42
0.000000
  0
VERTEX
  8
0
 10
149.627417
 20
448.230783
 42
0.000000
  0
VERTEX
  8
0
 10
145.150468
 20
450.149827
 42
-0.041608
  0
VERTEX
  8
0
 10
142.099486
 20
451.769851
 42
-0.038380
  0
VERTEX
  8
0
 10
139.269778
 20
453.912176
 42
-0.038790
  0
VERTEX
  8
0
 10
136.830405
 20
456.435345
 42
-0.044990
  0
VERTEX
  8
0
 10
134.942045
 20
459.189312
 42
-0.305900
  0
VERTEX
  8
0
 10
135.095126
 20
461.038706
 42
-0.251371
  0
VERTEX
  8
0
 10
136.958259
 20
461.830714
 42
-0.089047
  0
VERTEX
  8
0
 10
140.775288
 20
460.781664
 42
-0.051210
  0
VERTEX
  8
0
 10
144.858421
 20
458.288554
 42
0.014419
  0
VERTEX
  8
0
 10
146.657565
 20
456.999606
 42
0.080874
  0
VERTEX
  8
0
 10
147.729612
 20
456.506085
 42
0.180497
  0
VERTEX
  8
0
 10
148.478328
 20
456.571474
 42
0.141423
  0
VERTEX
  8
0
 10
149.093108
 20
457.116412
 42
0.089913
  0
VERTEX
  8
0
 10
149.807746
 20
458.878854
 42
0.187143
  0
VERTEX
  8
0
 10
149.569249
 20
460.318917
 42
0.109082
  0
VERTEX
  8
0
 10
148.239005
 20
461.742728
 42
0.021371
  0
VERTEX
  8
0
 10
145.250000
 20
463.613846
 42
-0.009752
  0
VERTEX
  8
0
 10
114.212814
 20
482.053711
 42
-0.016566
  0
VERTEX
  8
0
 10
89.097002
 20
498.823561
 42
-0.018702
  0
VERTEX
  8
0
 10
70.273166
 20
513.410114
 42
-0.072130
  0
VERTEX
  8
0
 10
60.434060
 20
524.401462
 42
-0.064805
  0
VERTEX
  8
0
 10
57.120711
 20
531.144912
 42
-0.099854
  0
VERTEX
  8
0
 10
56.292426
 20
537.569378
 42
-0.126081
  0
VERTEX
  8
0
 10
58.025846
 20
542.771056
 42
-0.146426
  0
VERTEX
  8
0
 10
61.977093
 20
546.150154
 42
0.040556
  0
VERTEX
  8
0
 10
63.658371
 20
547.063815
 42
0.129229
  0
VERTEX
  8
0
 10
64.508261
 20
548.004173
 42
0.100378
  0
VERTEX
  8
0
 10
64.901114
 20
549.381832
 42
0.019220
  0
VERTEX
  8
0
 10
65.003738
 20
551.994111
 42
-0.063228
  0
VERTEX
  8
0
 10
65.530654
 20
556.116838
 42
-0.075724
  0
VERTEX
  8
0
 10
67.069582
 20
559.710890
 42
-0.074085
  0
VERTEX
  8
0
 10
69.641959
 20
562.742543
 42
-0.057266
  0
VERTEX
  8
0
 10
73.210771
 20
565.209663
 42
-0.043764
  0
VERTEX
  8
0
 10
76.201585
 20
566.484693
 42
-0.051764
  0
VERTEX
  8
0
 10
79.205545
 20
567.131488
 42
-0.025863
  0
VERTEX
  8
0
 10
83.628274
 20
567.383525
 42
-0.003431
  0
VERTEX
  8
0
 10
93.000000
 20
567.368056
 42
-0.023187
  0
VERTEX
  8
0
 10
109.005055
 20
566.488864
 42
-0.013466
  0
VERTEX
  8
0
 10
128.100317
 20
564.027895
 42
-0.006887
  0
VERTEX
  8
0
 10
146.413698
 20
560.905452
 42
-0.187145
  0
VERTEX
  8
0
 10
150.516653
 20
558.374862
 42
-0.030803
  0
VERTEX
  8
0
 10
151.659884
 20
556.654565
 42
-0.184492
  0
VERTEX
  8
0
 10
151.828285
 20
555.611537
 42
-0.200243
  0
VERTEX
  8
0
 10
151.254306
 20
554.772674
 42
-0.037003
  0
VERTEX
  8
0
 10
149.577435
 20
553.853328
 42
-0.099601
  0
VERTEX
  8
0
 10
147.717529
 20
553.419845
 42
-0.030089
  0
VERTEX
  8
0
 10
144.803984
 20
553.506481
 42
-0.018779
  0
VERTEX
  8
0
 10
140.433124
 20
554.066536
 42
-0.004665
  0
VERTEX
  8
0
 10
133.327435
 20
555.317921
 42
0.006996
  0
VERTEX
  8
0
 10
115.168129
 20
558.428768
 42
0.015405
  0
VERTEX
  8
0
 10
101.199339
 20
560.182094
 42
0.019832
  0
VERTEX
  8
0
 10
90.423040
 20
560.768891
 42
0.049640
  0
VERTEX
  8
0
 10
82.581924
 20
560.105056
 42
0.030754
  0
VERTEX
  8
0
 10
78.395062
 20
559.057588
 42
0.067667
  0
VERTEX
  8
0
 10
75.418519
 20
557.649869
 42
0.098182
  0
VERTEX
  8
0
 10
73.633922
 20
555.910275
 42
0.151757
  0
VERTEX
  8
0
 10
73.000000
 20
553.869763
 42
0.060452
  0
VERTEX
  8
0
 10
73.112973
 20
552.938770
 42
0.267316
  0
VERTEX
  8
0
 10
73.480383
 20
552.555237
 42
0.146063
  0
VERTEX
  8
0
 10
74.188022
 20
552.559219
 42
0.016906
  0
VERTEX
  8
0
 10
75.706400
 20
553.078473
 42
-0.079915
  0
VERTEX
  8
0
 10
80.326904
 20
554.033537
 42
-0.023353
  0
VERTEX
  8
0
 10
87.606509
 20
554.016382
 42
-0.022199
  0
VERTEX
  8
0
 10
96.132077
 20
553.217386
 42
-0.019081
  0
VERTEX
  8
0
 10
105.000000
 20
551.640369
 42
0.003371
  0
VERTEX
  8
0
 10
110.303838
 20
550.524250
 42
0.001866
  0
VERTEX
  8
0
 10
116.793750
 20
549.229368
 42
0.001860
  0
VERTEX
  8
0
 10
123.379151
 20
547.966385
 42
0.002996
  0
VERTEX
  8
0
 10
129.000000
 20
546.944885
 42
-0.004032
  0
VERTEX
  8
0
 10
138.747377
 20
545.152576
 42
-0.034570
  0
VERTEX
  8
0
 10
143.031165
 20
544.017483
 42
-0.088579
  0
VERTEX
  8
0
 10
145.287995
 20
542.770378
 42
-0.146519
  0
VERTEX
  8
0
 10
146.504564
 20
540.985620
 42
-0.150032
  0
VERTEX
  8
0
 10
146.523183
 20
539.023446
 42
-0.093978
  0
VERTEX
  8
0
 10
145.463157
 20
536.966078
 42
-0.103412
  0
VERTEX
  8
0
 10
143.824230
 20
535.581315
 42
-0.218861
  0
VERTEX
  8
0
 10
142.200830
 20
535.476429
 42
0.052650
  0
VERTEX
  8
0
 10
136.164868
 20
537.089912
 42
0.003903
  0
VERTEX
  8
0
 10
119.254742
 20
539.614409
 42
0.001285
  0
VERTEX
  8
0
 10
100.989006
 20
542.147821
 42
0.234314
  0
VERTEX
  8
0
 10
99.217403
 20
541.550736
 42
0.413958
  0
VERTEX
  8
0
 10
99.217082
 20
540.816144
 42
0.021899
  0
VERTEX
  8
0
 10
101.121316
 20
539.068725
 42
0.026177
  0
VERTEX
  8
0
 10
103.239243
 20
537.470836
 42
0.141849
  0
VERTEX
  8
0
 10
104.595012
 20
537.033269
 42
-0.165508
  0
VERTEX
  8
0
 10
105.832990
 20
536.569528
 42
-0.037574
  0
VERTEX
  8
0
 10
107.478897
 20
535.000244
 42
-0.055948
  0
VERTEX
  8
0
 10
108.539958
 20
533.521286
 42
-0.573010
  0
VERTEX
  8
0
 10
108.234443
 20
533.000000
 42
0.212131
  0
VERTEX
  8
0
 10
107.775467
 20
532.796099
 42
0.052862
  0
VERTEX
  8
0
 10
107.280730
 20
532.116187
 42
0.044741
  0
VERTEX
  8
0
 10
106.829849
 20
531.143339
 42
0.032103
  0
VERTEX
  8
0
 10
106.498083
 20
529.991274
 42
-0.027845
  0
VERTEX
  8
0
 10
106.186429
 20
528.873364
 42
-0.050947
  0
VERTEX
  8
0
 10
105.792863
 20
528.013769
 42
-0.077821
  0
VERTEX
  8
0
 10
105.384944
 20
527.515983
 42
-0.332095
  0
VERTEX
  8
0
 10
105.025302
 20
527.484363
 42
0.296366
  0
VERTEX
  8
0
 10
104.665481
 20
527.476206
 42
0.090856
  0
VERTEX
  8
0
 10
104.260214
 20
527.075195
 42
0.058488
  0
VERTEX
  8
0
 10
103.869509
 20
526.347294
 42
0.032479
  0
VERTEX
  8
0
 10
103.560938
 20
525.386774
 42
0.121781
  0
VERTEX
  8
0
 10
103.553630
 20
523.320175
 42
0.144010
  0
VERTEX
  8
0
 10
104.529523
 20
521.634893
 42
0.040892
  0
VERTEX
  8
0
 10
107.227488
 20
519.461536
 42
0.002388
  0
VERTEX
  8
0
 10
116.000000
 20
513.567450
 42
0.007562
  0
VERTEX
  8
0
 10
124.799772
 20
507.905905
 42
0.023940
  0
VERTEX
  8
0
 10
130.917099
 20
504.494499
 42
0.036012
  0
VERTEX
  8
0
 10
135.540041
 20
502.600457
 42
0.079379
  0
VERTEX
  8
0
 10
139.298414
 20
502.000000
 42
-0.039033
  0
VERTEX
  8
0
 10
141.340553
 20
501.840333
 42
-0.071857
  0
VERTEX
  8
0
 10
142.929925
 20
501.349517
 42
-0.067020
  0
VERTEX
  8
0
 10
144.386550
 20
500.401771
 42
-0.030004
  0
VERTEX
  8
0
 10
146.029546
 20
498.806508
 42
0.013067
  0
VERTEX
  8
0
 10
147.177364
 20
497.613942
 42
0.021885
  0
VERTEX
  8
0
 10
148.209791
 20
496.681381
 42
0.017816
  0
VERTEX
  8
0
 10
149.062334
 20
496.026214
 42
0.377826
  0
VERTEX
  8
0
 10
149.355718
 20
496.056508
 42
0.140420
  0
VERTEX
  8
0
 10
149.559637
 20
496.461564
 42
0.000675
  0
VERTEX
  8
0
 10
150.426905
 20
501.069724
 42
0.003039
  0
VERTEX
  8
0
 10
151.377333
 20
506.334570
 42
0.001909
  0
VERTEX
  8
0
 10
152.427455
 20
512.500000
 42
-0.014308
  0
VERTEX
  8
0
 10
156.786168
 20
534.743694
 42
-0.021777
  0
VERTEX
  8
0
 10
161.954288
 20
553.737637
 42
-0.021915
  0
VERTEX
  8
0
 10
168.728525
 20
572.122571
 42
-0.014744
  0
VERTEX
  8
0
 10
177.983868
 20
592.500000
 42
-0.064084
  0
VERTEX
  8
0
 10
216.055839
 20
650.129344
 42
-0.065677
  0
VERTEX
  8
0
 10
267.198522
 20
695.697632
 42
-0.065502
  0
VERTEX
  8
0
 10
328.539358
 20
726.536171
 42
-0.063173
  0
VERTEX
  8
0
 10
396.531251
 20
740.945834
 42
-0.018543
  0
VERTEX
  8
0
 10
408.293962
 20
741.482377
 42
-0.009174
  0
VERTEX
  8
0
 10
423.244954
 20
741.335155
 42
-0.009170
  0
VERTEX
  8
0
 10
438.426456
 20
740.628208
 42
-0.015868
  0
SEQEND
  0
POLYLINE
  8
0
 66
1
 70
1
  0
VERTEX
  8
0
 10
566.315741
 20
627.850296
 42
-0.039240
  0
VERTEX
  8
0
 10
568.052695
 20
626.754158
 42
-0.081659
  0
VERTEX
  8
0
 10
569.160161
 20
625.603900
 42
-0.090189
  0
VERTEX
  8
0
 10
569.775460
 20
624.239283
 42
-0.056716
  0
VERTEX
  8
0
 10
570.003551
 20
622.500000
 42
-0.098298
  0
VERTEX
  8
0
 10
569.384583
 20
619.076741
 42
-0.001137
  0
VERTEX
  8
0
 10
560.849145
 20
597.526835
 42
-0.001349
  0
VERTEX
  8
0
 10
552.299134
 20
576.249773
 42
-0.080651
  0
VERTEX
  8
0
 10
550.155836
 20
572.720352
 42
0.106201
  0
VERTEX
  8
0
 10
549.105529
 20
570.775139
 42
0.062685
  0
VERTEX
  8
0
 10
548.687694
 20
568.157289
 42
0.063344
  0
VERTEX
  8
0
 10
548.931356
 20
565.557503
 42
0.118742
  0
VERTEX
  8
0
 10
549.856543
 20
563.672855
 42
-0.090720
  0
VERTEX
  8
0
 10
551.461095
 20
560.816242
 42
-0.002035
  0
VERTEX
  8
0
 10
556.528781
 20
545.863499
 42
-0.002285
  0
VERTEX
  8
0
 10
561.424649
 20
530.996396
 42
-0.078550
  0
VERTEX
  8
0
 10
562.000000
 20
527.356657
 42
-0.152048
  0
VERTEX
  8
0
 10
561.391208
 20
525.400966
 42
-0.058955
  0
VERTEX
  8
0
 10
559.497227
 20
523.247359
 42
-0.058434
  0
VERTEX
  8
0
 10
557.100344
 20
521.554426
 42
-0.125201
  0
VERTEX
  8
0
 10
554.920905
 20
521.000000
 42
-0.174851
  0
VERTEX
  8
0
 10
551.995022
 20
522.055457
 42
-0.086306
  0
VERTEX
  8
0
 10
549.395830
 20
525.102741
 42
-0.044218
  0
VERTEX
  8
0
 10
546.665886
 20
530.817610
 42
-0.009944
  0
VERTEX
  8
0
 10
543.093694
 20
541.000974
 42
-0.005233
  0
VERTEX
  8
0
 10
541.142074
 20
547.156558
 42
-0.006829
  0
VERTEX
  8
0
 10
539.492963
 20
552.829501
 42
-0.005198
  0
VERTEX
  8
0
 10
538.229679
 20
557.600432
 42
-0.061250
  0
VERTEX
  8
0
 10
537.988734
 20
559.500974
 42
0.182476
  0
VERTEX
  8
0
 10
537.125460
 20
561.761920
 42
0.052825
  0
VERTEX
  8
0
 10
534.318238
 20
564.322738
 42
0.018777
  0
VERTEX
  8
0
 10
528.428775
 20
568.321110
 42
0.001562
  0
VERTEX
  8
0
 10
512.738734
 20
578.065345
 42
-0.003652
  0
VERTEX
  8
0
 10
495.060517
 20
589.147000
 42
-0.039961
  0
VERTEX
  8
0
 10
488.374066
 20
594.199704
 42
-0.131135
  0
VERTEX
  8
0
 10
485.945884
 20
597.881595
 42
-0.196424
  0
VERTEX
  8
0
 10
486.195434
 20
601.676158
 42
-0.060104
  0
VERTEX
  8
0
 10
486.901627
 20
602.769134
 42
-0.039764
  0
VERTEX
  8
0
 10
487.946714
 20
603.840050
 42
-0.039768
  0
VERTEX
  8
0
 10
489.147982
 20
604.731878
 42
-0.060174
  0
VERTEX
  8
0
 10
490.325295
 20
605.284590
 42
-0.154434
  0
VERTEX
  8
0
 10
492.734204
 20
605.314167
 42
-0.041992
  0
VERTEX
  8
0
 10
496.317038
 20
603.891014
 42
-0.017883
  0
VERTEX
  8
0
 10
502.329618
 20
600.623481
 42
-0.001985
  0
VERTEX
  8
0
 10
515.754612
 20
592.621082
 42
0.001014
  0
VERTEX
  8
0
 10
524.433526
 20
587.424857
 42
0.001690
  0
VERTEX
  8
0
 10
531.765447
 20
583.088783
 42
0.000115
  0
VERTEX
  8
0
 10
538.353015
 20
579.224948
 42
0.396636
  0
VERTEX
  8
0
 10
538.517764
 20
579.262651
 42
0.049993
  0
VERTEX
  8
0
 10
538.626517
 20
579.466192
 42
0.000025
  0
VERTEX
  8
0
 10
541.394793
 20
586.186308
 42
0.000355
  0
VERTEX
  8
0
 10
544.468516
 20
593.664034
 42
0.000216
  0
VERTEX
  8
0
 10
548.088447
 20
602.499248
 42
-0.003583
  0
VERTEX
  8
0
 10
551.821589
 20
611.438705
 42
-0.005227
  0
VERTEX
  8
0
 10
555.249419
 20
619.256750
 42
-0.002694
  0
VERTEX
  8
0
 10
558.252756
 20
625.821833
 42
-0.087912
  0
VERTEX
  8
0
 10
559.250000
 20
627.249248
 42
-0.068898
  0
VERTEX
  8
0
 10
560.802421
 20
628.424600
 42
-0.106803
  0
VERTEX
  8
0
 10
562.403213
 20
628.915680
 42
-0.095721
  0
VERTEX
  8
0
 10
564.190758
 20
628.725487
 42
-0.046947
  0
SEQEND
  0
POLYLINE
  8
0
 66
1
 70
1
  0
VERTEX
  8
0
 10
474.273576
 20
596.250000
 42
-0.069207
  0
VERTEX
  8
0
 10
475.055699
 20
595.100161
 42
-0.009912
  0
VERTEX
  8
0
 10
476.269500
 20
592.517187
 42
-0.011103
  0
VERTEX
  8
0
 10
477.584669
 20
589.382704
 42
-0.009274
  0
VERTEX
  8
0
 10
478.844504
 20
586.000000
 42
-0.007790
  0
VERTEX
  8
0
 10
484.063666
 20
570.375931
 42
-0.001531
  0
VERTEX
  8
0
 10
492.915230
 20
542.136889
 42
-0.000290
  0
VERTEX
  8
0
 10
502.574119
 20
510.924554
 42
-0.075023
  0
VERTEX
  8
0
 10
503.000000
 20
508.102202
 42
-0.162515
  0
VERTEX
  8
0
 10
502.284953
 20
505.960367
 42
-0.078349
  0
VERTEX
  8
0
 10
500.183833
 20
503.923014
 42
-0.076510
  0
VERTEX
  8
0
 10
497.492878
 20
502.586799
 42
-0.136854
  0
VERTEX
  8
0
 10
495.043281
 20
502.498208
 42
-0.041406
  0
VERTEX
  8
0
 10
493.980503
 20
502.848791
 42
-0.032025
  0
VERTEX
  8
0
 10
492.890369
 20
503.396285
 42
-0.032880
  0
VERTEX
  8
0
 10
491.933177
 20
504.044402
 42
-0.064317
  0
VERTEX
  8
0
 10
491.285634
 20
504.697130
 42
-0.073379
  0
VERTEX
  8
0
 10
490.602342
 20
505.928911
 42
-0.002349
  0
VERTEX
  8
0
 10
488.615420
 20
511.284401
 42
-0.004493
  0
VERTEX
  8
0
 10
486.353195
 20
517.647630
 42
-0.003099
  0
VERTEX
  8
0
 10
483.900823
 20
524.892397
 42
0.000747
  0
VERTEX
  8
0
 10
481.506632
 20
532.076384
 42
0.001172
  0
VERTEX
  8
0
 10
479.424958
 20
538.243615
 42
0.000287
  0
VERTEX
  8
0
 10
477.587434
 20
543.635532
 42
0.045955
  0
VERTEX
  8
0
 10
477.328715
 20
544.213525
 42
0.314740
  0
VERTEX
  8
0
 10
477.040447
 20
544.352147
 42
0.075736
  0
VERTEX
  8
0
 10
476.507308
 20
544.179721
 42
0.051389
  0
VERTEX
  8
0
 10
475.827244
 20
543.747010
 42
0.029018
  0
VERTEX
  8
0
 10
475.096474
 20
543.096474
 42
-0.114687
  0
VERTEX
  8
0
 10
471.512980
 20
540.864642
 42
-0.004931
  0
VERTEX
  8
0
 10
457.320861
 20
536.180650
 42
-0.004341
  0
VERTEX
  8
0
 10
442.899303
 20
531.715705
 42
-0.137695
  0
VERTEX
  8
0
 10
439.230200
 20
531.650052
 42
0.000000
  0
VERTEX
  8
0
 10
437.038587
 20
532.223172
 42
0.000000
  0
VERTEX
  8
0
 10
439.469748
 20
525.361586
 42
-0.005933
  0
VERTEX
  8
0
 10
440.683240
 20
521.803100
 42
-0.001866
  0
VERTEX
  8
0
 10
442.415347
 20
516.451993
 42
-0.001864
  0
VERTEX
  8
0
 10
444.303765
 20
510.465940
 42
-0.002064
  0
VERTEX
  8
0
 10
446.083346
 20
504.666477
 42
0.000000
  0
VERTEX
  8
0
 10
450.265783
 20
490.832953
 42
0.000000
  0
VERTEX
  8
0
 10
448.283995
 20
488.166477
 42
-0.085746
  0
VERTEX
  8
0
 10
446.393262
 20
486.367369
 42
-0.088772
  0
VERTEX
  8
0
 10
444.030365
 20
485.333583
 42
-0.090168
  0
VERTEX
  8
0
 10
441.487330
 20
485.192334
 42
-0.092017
  0
VERTEX
  8
0
 10
439.076958
 20
485.958813
 42
-0.175828
  0
VERTEX
  8
0
 10
437.678470
 20
487.517426
 42
-0.006870
  0
VERTEX
  8
0
 10
434.851927
 20
494.816517
 42
-0.007789
  0
VERTEX
  8
0
 10
430.934646
 20
505.885393
 42
-0.001750
  0
VERTEX
  8
0
 10
424.624806
 20
524.858080
 42
-0.000637
  0
VERTEX
  8
0
 10
413.630026
 20
558.452366
 42
-0.012674
  0
VERTEX
  8
0
 10
410.540805
 20
568.816897
 42
-0.043579
  0
VERTEX
  8
0
 10
409.573647
 20
574.216938
 42
-0.169125
  0
VERTEX
  8
0
 10
410.385901
 20
577.466207
 42
-0.086183
  0
VERTEX
  8
0
 10
412.231701
 20
579.439685
 42
-0.101435
  0
VERTEX
  8
0
 10
414.538202
 20
580.538803
 42
-0.105605
  0
VERTEX
  8
0
 10
417.016257
 20
580.618349
 42
-0.100764
  0
VERTEX
  8
0
 10
419.357118
 20
579.685577
 42
-0.117387
  0
VERTEX
  8
0
 10
420.755476
 20
578.205609
 42
-0.024193
  0
VERTEX
  8
0
 10
422.408207
 20
574.991652
 42
-0.017287
  0
VERTEX
  8
0
 10
424.451279
 20
570.049791
 42
-0.005069
  0
VERTEX
  8
0
 10
427.247431
 20
562.325340
 42
-0.000617
  0
VERTEX
  8
0
 10
429.420918
 20
556.100737
 42
-0.000846
  0
VERTEX
  8
0
 10
431.360662
 20
550.492888
 42
-0.000543
  0
VERTEX
  8
0
 10
432.977919
 20
545.774989
 42
-0.009991
  0
VERTEX
  8
0
 10
433.459442
 20
544.267468
 42
0.027614
  0
VERTEX
  8
0
 10
433.917026
 20
542.991789
 42
0.232502
  0
VERTEX
  8
0
 10
434.365584
 20
542.602881
 42
0.193010
  0
VERTEX
  8
0
 10
435.003344
 20
542.682323
 42
0.018698
  0
VERTEX
  8
0
 10
436.364015
 20
543.502856
 42
-0.063362
  0
VERTEX
  8
0
 10
441.554746
 20
546.032618
 42
-0.006511
  0
VERTEX
  8
0
 10
454.553996
 20
550.252740
 42
-0.004054
  0
VERTEX
  8
0
 10
468.122536
 20
554.342859
 42
-0.133427
  0
VERTEX
  8
0
 10
471.508553
 20
554.408497
 42
0.015601
  0
VERTEX
  8
0
 10
472.464043
 20
554.200138
 42
0.027180
  0
VERTEX
  8
0
 10
473.268137
 20
554.095702
 42
0.027450
  0
VERTEX
  8
0
 10
473.866753
 20
554.083774
 42
0.404010
  0
VERTEX
  8
0
 10
474.000000
 20
554.221763
 42
0.074986
  0
VERTEX
  8
0
 10
473.948457
 20
554.563513
 42
0.000161
  0
VERTEX
  8
0
 10
472.384375
 20
559.625034
 42
0.001099
  0
VERTEX
  8
0
 10
470.608527
 20
565.320916
 42
0.000682
  0
VERTEX
  8
0
 10
468.500000
 20
572.000000
 42
-0.004236
  0
VERTEX
  8
0
 10
464.726574
 20
584.255652
 42
-0.033127
  0
VERTEX
  8
0
 10
463.401510
 20
590.072356
 42
-0.080352
  0
VERTEX
  8
0
 10
463.410681
 20
593.590506
 42
-0.144135
  0
VERTEX
  8
0
 10
464.654988
 20
596.171259
 42
-0.129226
  0
VERTEX
  8
0
 10
466.662153
 20
597.481147
 42
-0.078408
  0
VERTEX
  8
0
 10
469.476022
 20
597.948775
 42
-0.078750
  0
VERTEX
  8
0
 10
472.284004
 20
597.527293
 42
-0.133058
  0
SEQEND
  0
POLYLINE
  8
0
 66
1
 70
1
  0
VERTEX
  8
0
 10
398.379584
 20
571.131719
 42
-0.129305
  0
VERTEX
  8
0
 10
399.406100
 20
569.627035
 42
-0.067462
  0
VERTEX
  8
0
 10
399.875398
 20
567.389999
 42
-0.025754
  0
VERTEX
  8
0
 10
399.957193
 20
563.414436
 42
-0.002630
  0
VERTEX
  8
0
 10
399.616375
 20
554.000000
 42
-0.007733
  0
VERTEX
  8
0
 10
398.450447
 20
533.536047
 42
-0.005339
  0
VERTEX
  8
0
 10
396.525174
 20
510.409217
 42
-0.001446
  0
VERTEX
  8
0
 10
394.305718
 20
487.511394
 42
-0.149398
  0
VERTEX
  8
0
 10
393.093265
 20
484.612378
 42
-0.059556
  0
VERTEX
  8
0
 10
392.442828
 20
483.995282
 42
-0.043867
  0
VERTEX
  8
0
 10
391.596662
 20
483.473636
 42
-0.044600
  0
VERTEX
  8
0
 10
390.694362
 20
483.117810
 42
-0.071745
  0
VERTEX
  8
0
 10
389.877555
 20
483.000000
 42
0.150578
  0
VERTEX
  8
0
 10
388.586925
 20
482.602303
 42
0.250026
  0
VERTEX
  8
0
 10
388.071004
 20
481.618462
 42
0.149130
  0
VERTEX
  8
0
 10
388.523863
 20
480.170461
 42
0.059080
  0
VERTEX
  8
0
 10
389.908625
 20
478.582693
 42
-0.041056
  0
VERTEX
  8
0
 10
390.729088
 20
477.707559
 42
-0.020707
  0
VERTEX
  8
0
 10
391.620570
 20
476.484079
 42
-0.020415
  0
VERTEX
  8
0
 10
392.442532
 20
475.135749
 42
-0.028492
  0
VERTEX
  8
0
 10
393.056326
 20
473.864018
 42
-0.030756
  0
VERTEX
  8
0
 10
393.653359
 20
472.127819
 42
-0.101238
  0
VERTEX
  8
0
 10
393.735166
 20
470.925331
 42
-0.098685
  0
VERTEX
  8
0
 10
393.338740
 20
469.770211
 42
-0.028391
  0
VERTEX
  8
0
 10
392.291722
 20
468.186312
 42
-0.050992
  0
VERTEX
  8
0
 10
390.634483
 20
466.381358
 42
-0.094164
  0
VERTEX
  8
0
 10
388.930438
 20
465.363685
 42
-0.095610
  0
VERTEX
  8
0
 10
386.990208
 20
465.050672
 42
-0.053855
  0
VERTEX
  8
0
 10
384.619587
 20
465.380630
 42
-0.141314
  0
VERTEX
  8
0
 10
382.681662
 20
466.507450
 42
-0.005188
  0
VERTEX
  8
0
 10
376.813872
 20
472.768606
 42
-0.008520
  0
VERTEX
  8
0
 10
369.690420
 20
480.799959
 42
-0.004611
  0
VERTEX
  8
0
 10
361.187234
 20
490.909667
 42
0.315996
  0
VERTEX
  8
0
 10
360.601365
 20
491.070920
 42
0.284298
  0
VERTEX
  8
0
 10
360.203289
 20
490.571820
 42
0.038740
  0
VERTEX
  8
0
 10
360.117997
 20
488.534848
 42
0.004011
  0
VERTEX
  8
0
 10
360.327434
 20
483.736211
 42
-0.005588
  0
VERTEX
  8
0
 10
360.548694
 20
478.271165
 42
-0.053354
  0
VERTEX
  8
0
 10
360.368597
 20
475.946534
 42
-0.115301
  0
VERTEX
  8
0
 10
359.717634
 20
474.463077
 42
-0.065388
  0
VERTEX
  8
0
 10
358.340016
 20
473.052816
 42
-0.011831
  0
VERTEX
  8
0
 10
357.317687
 20
472.287101
 42
-0.011965
  0
VERTEX
  8
0
 10
356.264049
 20
471.573571
 42
-0.011832
  0
VERTEX
  8
0
 10
355.318407
 20
470.996818
 42
-0.046762
  0
VERTEX
  8
0
 10
354.699816
 20
470.712705
 42
0.160111
  0
VERTEX
  8
0
 10
354.284239
 20
470.393737
 42
0.208150
  0
VERTEX
  8
0
 10
354.195420
 20
469.927389
 42
0.100464
  0
VERTEX
  8
0
 10
354.495012
 20
469.260987
 42
0.025578
  0
VERTEX
  8
0
 10
355.238123
 20
468.330482
 42
-0.145550
  0
VERTEX
  8
0
 10
357.543591
 20
463.381692
 42
-0.175280
  0
VERTEX
  8
0
 10
356.529313
 20
458.381608
 42
-0.187863
  0
VERTEX
  8
0
 10
352.646746
 20
455.416402
 42
-0.163236
  0
VERTEX
  8
0
 10
347.504720
 20
455.636563
 42
-0.127161
  0
VERTEX
  8
0
 10
345.353753
 20
457.170121
 42
-0.000227
  0
VERTEX
  8
0
 10
316.662135
 20
491.372297
 42
-0.000609
  0
VERTEX
  8
0
 10
289.234875
 20
524.178462
 42
-0.043551
  0
VERTEX
  8
0
 10
285.196586
 20
529.980188
 42
-0.134982
  0
VERTEX
  8
0
 10
284.210684
 20
533.798550
 42
-0.155597
  0
VERTEX
  8
0
 10
285.405157
 20
537.350824
 42
-0.158129
  0
VERTEX
  8
0
 10
288.414727
 20
539.517781
 42
-0.139974
  0
VERTEX
  8
0
 10
292.287584
 20
539.642669
 42
-0.135222
  0
VERTEX
  8
0
 10
293.936827
 20
538.709907
 42
-0.006664
  0
VERTEX
  8
0
 10
298.346037
 20
534.198449
 42
-0.009197
  0
VERTEX
  8
0
 10
303.910027
 20
528.131902
 42
-0.004265
  0
VERTEX
  8
0
 10
310.922479
 20
520.060205
 42
0.003239
  0
VERTEX
  8
0
 10
317.515546
 20
512.439712
 42
0.003688
  0
VERTEX
  8
0
 10
323.929403
 20
505.230674
 42
0.003349
  0
VERTEX
  8
0
 10
329.459943
 20
499.187913
 42
0.020619
  0
VERTEX
  8
0
 10
332.452676
 20
496.217246
 42
-0.018745
  0
VERTEX
  8
0
 10
334.642699
 20
494.059603
 42
-0.015468
  0
VERTEX
  8
0
 10
336.815146
 20
491.604666
 42
-0.015748
  0
VERTEX
  8
0
 10
338.669334
 20
489.225404
 42
-0.039711
  0
VERTEX
  8
0
 10
339.818435
 20
487.355896
 42
0.025541
  0
VERTEX
  8
0
 10
341.563026
 20
484.328696
 42
0.051091
  0
VERTEX
  8
0
 10
343.289244
 20
482.176384
 42
0.165867
  0
VERTEX
  8
0
 10
344.401525
 20
481.619775
 42
0.460856
  0
VERTEX
  8
0
 10
344.970705
 20
482.127555
 42
-0.022871
  0
VERTEX
  8
0
 10
344.996866
 20
483.199775
 42
-0.000114
  0
VERTEX
  8
0
 10
345.755557
 20
493.965594
 42
-0.000520
  0
VERTEX
  8
0
 10
346.634618
 20
506.218006
 42
-0.000329
  0
VERTEX
  8
0
 10
347.683676
 20
520.500000
 42
-0.001004
  0
VERTEX
  8
0
 10
349.443176
 20
543.610401
 42
-0.012077
  0
VERTEX
  8
0
 10
350.353818
 20
552.494259
 42
-0.030701
  0
VERTEX
  8
0
 10
351.261372
 20
557.272880
 42
-0.134414
  0
VERTEX
  8
0
 10
352.667517
 20
559.750000
 42
-0.075819
  0
VERTEX
  8
0
 10
354.876335
 20
561.380618
 42
-0.131558
  0
VERTEX
  8
0
 10
357.085495
 20
561.881510
 42
-0.124037
  0
VERTEX
  8
0
 10
359.341171
 20
561.219519
 42
-0.063365
  0
VERTEX
  8
0
 10
361.689791
 20
559.401118
 42
-0.053107
  0
VERTEX
  8
0
 10
363.202920
 20
557.527224
 42
-0.106864
  0
VERTEX
  8
0
 10
363.869490
 20
555.757675
 42
-0.047623
  0
VERTEX
  8
0
 10
364.010153
 20
553.063188
 42
-0.004074
  0
VERTEX
  8
0
 10
363.656184
 20
546.151118
 42
0.001241
  0
VERTEX
  8
0
 10
363.366242
 20
541.054757
 42
0.000569
  0
VERTEX
  8
0
 10
363.012239
 20
534.408149
 42
0.000564
  0
VERTEX
  8
0
 10
362.655479
 20
527.411320
 42
0.000779
  0
VERTEX
  8
0
 10
362.352207
 20
521.131944
 42
0.001807
  0
VERTEX
  8
0
 10
361.942416
 20
511.626990
 42
0.035380
  0
VERTEX
  8
0
 10
362.034027
 20
508.697186
 42
0.205168
  0
VERTEX
  8
0
 10
362.630592
 20
507.622383
 42
0.246493
  0
VERTEX
  8
0
 10
363.755317
 20
507.422341
 42
-0.090104
  0
VERTEX
  8
0
 10
366.844489
 20
507.818701
 42
-0.134343
  0
VERTEX
  8
0
 10
369.416330
 20
506.968705
 42
-0.100381
  0
VERTEX
  8
0
 10
371.704157
 20
504.676394
 42
-0.035880
  0
VERTEX
  8
0
 10
373.981090
 20
500.630490
 42
0.012378
  0
VERTEX
  8
0
 10
376.114293
 20
496.385083
 42
0.025543
  0
VERTEX
  8
0
 10
378.028525
 20
493.202161
 42
0.027852
  0
VERTEX
  8
0
 10
379.612348
 20
491.111014
 42
0.438289
  0
VERTEX
  8
0
 10
380.411756
 20
491.078423
 42
0.177753
  0
VERTEX
  8
0
 10
380.606081
 20
491.498182
 42
0.000169
  0
VERTEX
  8
0
 10
381.483258
 20
502.250977
 42
0.001657
  0
VERTEX
  8
0
 10
382.421145
 20
514.290392
 42
0.001012
  0
VERTEX
  8
0
 10
383.452195
 20
528.505422
 42
-0.001361
  0
VERTEX
  8
0
 10
384.506206
 20
542.897957
 42
-0.002015
  0
VERTEX
  8
0
 10
385.515502
 20
555.510366
 42
-0.000895
  0
VERTEX
  8
0
 10
386.439700
 20
566.271540
 42
-0.039940
  0
VERTEX
  8
0
 10
386.813895
 20
568.487312
 42
-0.127164
  0
VERTEX
  8
0
 10
388.507930
 20
571.587436
 42
-0.149331
  0
VERTEX
  8
0
 10
391.401211
 20
573.248821
 42
-0.136454
  0
VERTEX
  8
0
 10
394.939903
 20
573.084314
 42
-0.099637
  0
SEQEND
  0
POLYLINE
  8
0
 66
1
 70
1
  0
VERTEX
  8
0
 10
507.600296
 20
477.234687
 42
-0.114241
  0
VERTEX
  8
0
 10
509.117003
 20
475.621464
 42
-0.063504
  0
VERTEX
  8
0
 10
510.174201
 20
473.122620
 42
-0.046732
  0
VERTEX
  8
0
 10
510.802451
 20
469.670227
 42
-0.021656
  0
VERTEX
  8
0
 10
511.000000
 20
465.111230
 42
-0.044969
  0
VERTEX
  8
0
 10
510.392553
 20
458.370857
 42
-0.041451
  0
VERTEX
  8
0
 10
508.586963
 20
451.654111
 42
-0.029787
  0
VERTEX
  8
0
 10
505.138949
 20
443.611637
 42
-0.010163
  0
VERTEX
  8
0
 10
499.217093
 20
432.371722
 42
0.008182
  0
VERTEX
  8
0
 10
491.267232
 20
417.426436
 42
0.037000
  0
VERTEX
  8
0
 10
487.436225
 20
408.328080
 42
0.065954
  0
VERTEX
  8
0
 10
486.140775
 20
401.694159
 42
0.095263
  0
VERTEX
  8
0
 10
486.906428
 20
395.783525
 42
0.067445
  0
VERTEX
  8
0
 10
488.785037
 20
391.928629
 42
0.083369
  0
VERTEX
  8
0
 10
491.517810
 20
389.021544
 42
0.081343
  0
VERTEX
  8
0
 10
495.108003
 20
387.117568
 42
0.060711
  0
VERTEX
  8
0
 10
499.503749
 20
386.208132
 42
0.049174
  0
VERTEX
  8
0
 10
504.540840
 20
386.286371
 42
0.058519
  0
VERTEX
  8
0
 10
509.165844
 20
387.372728
 42
0.059590
  0
VERTEX
  8
0
 10
513.345586
 20
389.478306
 42
0.054003
  0
VERTEX
  8
0
 10
517.065822
 20
392.571272
 42
0.027602
  0
VERTEX
  8
0
 10
519.113058
 20
394.933349
 42
0.093678
  0
VERTEX
  8
0
 10
520.036182
 20
396.741161
 42
0.063302
  0
VERTEX
  8
0
 10
520.416206
 20
399.113063
 42
0.008109
  0
VERTEX
  8
0
 10
520.500000
 20
404.279762
 42
-0.005306
  0
VERTEX
  8
0
 10
520.555984
 20
409.554708
 42
-0.068393
  0
VERTEX
  8
0
 10
520.864904
 20
411.496122
 42
-0.166686
  0
VERTEX
  8
0
 10
521.646426
 20
412.580007
 42
-0.069100
  0
VERTEX
  8
0
 10
523.271588
 20
413.421493
 42
-0.136484
  0
VERTEX
  8
0
 10
526.012206
 20
413.609530
 42
-0.164553
  0
VERTEX
  8
0
 10
528.229186
 20
412.313626
 42
-0.110134
  0
VERTEX
  8
0
 10
529.804511
 20
409.404199
 42
-0.043718
  0
VERTEX
  8
0
 10
530.665097
 20
404.917229
 42
-0.070643
  0
VERTEX
  8
0
 10
530.353811
 20
396.926520
 42
-0.085178
  0
VERTEX
  8
0
 10
527.781505
 20
389.878191
 42
-0.082815
  0
VERTEX
  8
0
 10
522.932566
 20
383.944477
 42
-0.062644
  0
VERTEX
  8
0
 10
515.955654
 20
379.219436
 42
-0.034713
  0
VERTEX
  8
0
 10
510.083771
 20
376.731561
 42
-0.050483
  0
VERTEX
  8
0
 10
504.611465
 20
375.447464
 42
-0.054132
  0
VERTEX
  8
0
 10
499.293589
 20
375.333407
 42
-0.049088
  0
VERTEX
  8
0
 10
493.890165
 20
376.343552
 42
-0.080847
  0
VERTEX
  8
0
 10
486.543314
 20
379.840558
 42
-0.082952
  0
VERTEX
  8
0
 10
480.759181
 20
385.461846
 42
-0.082056
  0
VERTEX
  8
0
 10
477.071033
 20
392.715179
 42
-0.076816
  0
VERTEX
  8
0
 10
475.800000
 20
400.939608
 42
-0.043250
  0
VERTEX
  8
0
 10
476.430196
 20
408.211436
 42
-0.047093
  0
VERTEX
  8
0
 10
478.301797
 20
415.053532
 42
-0.029697
  0
VERTEX
  8
0
 10
482.134927
 20
423.625404
 42
-0.006867
  0
VERTEX
  8
0
 10
489.628538
 20
437.553074
 42
0.014804
  0
VERTEX
  8
0
 10
496.509401
 20
450.843174
 42
0.046956
  0
VERTEX
  8
0
 10
499.979507
 20
460.224385
 42
0.199819
  0
VERTEX
  8
0
 10
499.464002
 20
464.048520
 42
0.426367
  0
VERTEX
  8
0
 10
496.856902
 20
464.676311
 42
-0.064058
  0
VERTEX
  8
0
 10
491.462442
 20
462.124750
 42
-0.004856
  0
VERTEX
  8
0
 10
476.027823
 20
457.279858
 42
-0.002904
  0
VERTEX
  8
0
 10
459.883869
 20
452.486260
 42
-0.132958
  0
VERTEX
  8
0
 10
456.451244
 20
452.422881
 42
-0.145406
  0
VERTEX
  8
0
 10
454.683904
 20
453.469569
 42
-0.098873
  0
VERTEX
  8
0
 10
453.453679
 20
455.475178
 42
-0.096639
  0
VERTEX
  8
0
 10
453.070614
 20
457.842517
 42
-0.131350
  0
VERTEX
  8
0
 10
453.693804
 20
459.904777
 42
-0.172049
  0
VERTEX
  8
0
 10
456.384546
 20
462.060141
 42
-0.003418
  0
VERTEX
  8
0
 10
473.253912
 20
467.796359
 42
-0.005063
  0
VERTEX
  8
0
 10
489.711026
 20
473.082725
 42
-0.098528
  0
VERTEX
  8
0
 10
495.000000
 20
473.636165
 42
0.037333
  0
VERTEX
  8
0
 10
496.800920
 20
473.604592
 42
0.070963
  0
VERTEX
  8
0
 10
498.218969
 20
473.890260
 42
0.074355
  0
VERTEX
  8
0
 10
499.457185
 20
474.548988
 42
0.044815
  0
VERTEX
  8
0
 10
500.702251
 20
475.656342
 42
-0.060390
  0
VERTEX
  8
0
 10
502.407071
 20
477.080273
 42
-0.087797
  0
VERTEX
  8
0
 10
504.207726
 20
477.841755
 42
-0.100257
  0
VERTEX
  8
0
 10
505.977411
 20
477.886169
 42
-0.103865
  0
SEQEND
  0
POLYLINE
  8
0
 66
1
 70
1
  0
VERTEX
  8
0
 10
66.728671
 20
540.868033
 42
0.049336
  0
VERTEX
  8
0
 10
66.067413
 20
540.407049
 42
0.049039
  0
VERTEX
  8
0
 10
65.507797
 20
539.824598
 42
0.053459
  0
VERTEX
  8
0
 10
65.124623
 20
539.214228
 42
0.113933
  0
VERTEX
  8
0
 10
65.000000
 20
538.674411
 42
0.185195
  0
VERTEX
  8
0
 10
65.311462
 20
537.862347
 42
0.001876
  0
VERTEX
  8
0
 10
69.518510
 20
533.219852
 42
0.005762
  0
VERTEX
  8
0
 10
74.486056
 20
527.903657
 42
0.003669
  0
VERTEX
  8
0
 10
80.382163
 20
521.827612
 42
-0.001721
  0
VERTEX
  8
0
 10
86.304761
 20
515.771651
 42
-0.002694
  0
VERTEX
  8
0
 10
91.353868
 20
510.516804
 42
-0.000730
  0
VERTEX
  8
0
 10
95.720766
 20
505.909212
 42
-0.097141
  0
VERTEX
  8
0
 10
96.132163
 20
505.258029
 42
0.146769
  0
VERTEX
  8
0
 10
97.638954
 20
503.321489
 42
0.012565
  0
VERTEX
  8
0
 10
102.909209
 20
499.769993
 42
0.017665
  0
VERTEX
  8
0
 10
108.553072
 20
496.444018
 42
0.042317
  0
VERTEX
  8
0
 10
113.000000
 20
494.497428
 42
-0.005625
  0
VERTEX
  8
0
 10
113.301702
 20
494.390950
 42
-0.000736
  0
VERTEX
  8
0
 10
113.940625
 20
494.156276
 42
-0.000856
  0
VERTEX
  8
0
 10
114.697596
 20
493.875505
 42
-0.000716
  0
VERTEX
  8
0
 10
115.500000
 20
493.575009
 42
-0.002179
  0
VERTEX
  8
0
 10
125.000069
 20
489.954419
 42
-0.007099
  0
VERTEX
  8
0
 10
131.247125
 20
487.439873
 42
-0.010030
  0
VERTEX
  8
0
 10
136.132551
 20
485.276128
 42
-0.010101
  0
VERTEX
  8
0
 10
140.915724
 20
482.923003
 42
0.009414
  0
VERTEX
  8
0
 10
143.818006
 20
481.490242
 42
0.014273
  0
VERTEX
  8
0
 10
146.398148
 20
480.365154
 42
0.008883
  0
VERTEX
  8
0
 10
148.559302
 20
479.539602
 42
0.229059
  0
VERTEX
  8
0
 10
149.165724
 20
479.602423
 42
0.223536
  0
VERTEX
  8
0
 10
150.025653
 20
480.922483
 42
0.178261
  0
VERTEX
  8
0
 10
149.658543
 20
482.601361
 42
0.091109
  0
VERTEX
  8
0
 10
147.847133
 20
484.546523
 42
0.035923
  0
VERTEX
  8
0
 10
144.750000
 20
486.520591
 42
-0.011287
  0
VERTEX
  8
0
 10
137.532168
 20
490.636163
 42
-0.002764
  0
VERTEX
  8
0
 10
125.843652
 20
497.743355
 42
-0.002981
  0
VERTEX
  8
0
 10
113.774783
 20
505.273102
 42
-0.006250
  0
VERTEX
  8
0
 10
104.500000
 20
511.300321
 42
-0.009434
  0
VERTEX
  8
0
 10
94.866162
 20
517.999785
 42
-0.012342
  0
VERTEX
  8
0
 10
86.334898
 20
524.501310
 42
-0.013763
  0
VERTEX
  8
0
 10
79.192307
 20
530.559005
 42
-0.026090
  0
VERTEX
  8
0
 10
73.847238
 20
535.879419
 42
0.008918
  0
VERTEX
  8
0
 10
70.942272
 20
538.976646
 42
0.047117
  0
VERTEX
  8
0
 10
69.171823
 20
540.484352
 42
0.102477
  0
VERTEX
  8
0
 10
67.871162
 20
541.045049
 42
0.180157
  0
SEQEND
  0
POLYLINE
  8
0
 66
1
 70
1
  0
VERTEX
  8
0
 10
158.000000
 20
477.000000
 42
0.174009
  0
VERTEX
  8
0
 10
158.373793
 20
475.958460
 42
0.035918
  0
VERTEX
  8
0
 10
159.739358
 20
474.524408
 42
0.022053
  0
VERTEX
  8
0
 10
162.150684
 20
472.518179
 42
0.004972
  0
VERTEX
  8
0
 10
166.430396
 20
469.332358
 42
0.013551
  0
VERTEX
  8
0
 10
168.922198
 20
467.617129
 42
0.048705
  0
VERTEX
  8
0
 10
170.633890
 20
466.729415
 42
0.084840
  0
VERTEX
  8
0
 10
171.907193
 20
466.455590
 42
0.152490
  0
VERTEX
  8
0
 10
172.930396
 20
466.727892
 42
0.159879
  0
VERTEX
  8
0
 10
174.147423
 20
468.199551
 42
0.255659
  0
VERTEX
  8
0
 10
173.946408
 20
469.777658
 42
0.096416
  0
VERTEX
  8
0
 10
171.931626
 20
471.659406
 42
0.017687
  0
VERTEX
  8
0
 10
167.500000
 20
474.218385
 42
0.008099
  0
VERTEX
  8
0
 10
162.757910
 20
476.639726
 42
0.042791
  0
VERTEX
  8
0
 10
160.039301
 20
477.695331
 42
0.126976
  0
VERTEX
  8
0
 10
158.594131
 20
477.741938
 42
0.351049
  0
SEQEND
  0
POLYLINE
  8
0
 66
1
 70
1
  0
VERTEX
  8
0
 10
180.502815
 20
463.994556
 42
0.115776
  0
VERTEX
  8
0
 10
183.638723
 20
460.329696
 42
0.028221
  0
VERTEX
  8
0
 10
190.355453
 20
455.966760
 42
0.022288
  0
VERTEX
  8
0
 10
200.112454
 20
450.948113
 42
0.009452
  0
VERTEX
  8
0
 10
213.598520
 20
445.060970
 42
0.008374
  0
VERTEX
  8
0
 10
218.976842
 20
442.938020
 42
0.026653
  0
VERTEX
  8
0
 10
222.659962
 20
441.774810
 42
0.038133
  0
VERTEX
  8
0
 10
225.641168
 20
441.243441
 42
0.040903
  0
VERTEX
  8
0
 10
228.598520
 20
441.189022
 42
0.000000
  0
VERTEX
  8
0
 10
233.500000
 20
441.500000
 42
0.000000
  0
VERTEX
  8
0
 10
207.594913
 20
454.250000
 42
0.001959
  0
VERTEX
  8
0
 10
197.566428
 20
459.137112
 42
0.003067
  0
VERTEX
  8
0
 10
188.896833
 20
463.254687
 42
0.000849
  0
VERTEX
  8
0
 10
181.325650
 20
466.778180
 42
0.108896
  0
VERTEX
  8
0
 10
180.319233
 20
467.000000
 42
0.138828
  0
VERTEX
  8
0
 10
179.730200
 20
466.833237
 42
0.276763
  0
VERTEX
  8
0
 10
179.514713
 20
466.418313
 42
0.092311
  0
VERTEX
  8
0
 10
179.717827
 20
465.606299
 42
0.012011
  0
SEQEND
  0
POLYLINE
  8
0
 66
1
 70
1
  0
VERTEX
  8
0
 10
160.000000
 20
454.030533
 42
0.195233
  0
VERTEX
  8
0
 10
160.183829
 20
453.577683
 42
0.021191
  0
VERTEX
  8
0
 10
161.019625
 20
452.787759
 42
0.023474
  0
VERTEX
  8
0
 10
162.141522
 20
451.902808
 42
0.016841
  0
VERTEX
  8
0
 10
163.471062
 20
451.017885
 42
-0.030512
  0
VERTEX
  8
0
 10
165.077370
 20
449.884220
 42
-0.013280
  0
VERTEX
  8
0
 10
167.072222
 20
448.196659
 42
-0.013084
  0
VERTEX
  8
0
 10
169.103520
 20
446.285757
 42
-0.016995
  0
VERTEX
  8
0
 10
170.856072
 20
444.426170
 42
0.000000
  0
VERTEX
  8
0
 10
174.770020
 20
439.979691
 42
0.000000
  0
VERTEX
  8
0
 10
175.188337
 20
442.829864
 42
0.017487
  0
VERTEX
  8
0
 10
175.319373
 20
444.008099
 42
0.017541
  0
VERTEX
  8
0
 10
175.367574
 20
445.191398
 42
0.017658
  0
VERTEX
  8
0
 10
175.336914
 20
446.224156
 42
0.064278
  0
VERTEX
  8
0
 10
175.211082
 20
446.866755
 42
0.193204
  0
VERTEX
  8
0
 10
173.725564
 20
448.618104
 42
0.011373
  0
VERTEX
  8
0
 10
167.362264
 20
451.793730
 42
0.010174
  0
VERTEX
  8
0
 10
160.945528
 20
454.657708
 42
0.536683
  0
SEQEND
  0
POLYLINE
  8
0
 66
1
 70
1
  0
VERTEX
  8
0
 10
417.517274
 20
446.921726
 42
0.022524
  0
VERTEX
  8
0
 10
414.269456
 20
445.959573
 42
0.110979
  0
VERTEX
  8
0
 10
412.655348
 20
444.960818
 42
0.260438
  0
VERTEX
  8
0
 10
412.324147
 20
443.834860
 42
0.142242
  0
VERTEX
  8
0
 10
413.042857
 20
442.538020
 42
0.086520
  0
VERTEX
  8
0
 10
413.999426
 20
441.870117
 42
0.091718
  0
VERTEX
  8
0
 10
415.106327
 20
441.582756
 42
0.058132
  0
VERTEX
  8
0
 10
416.625441
 20
441.651251
 42
0.015617
  0
VERTEX
  8
0
 10
419.000000
 20
442.113895
 42
-0.144583
  0
VERTEX
  8
0
 10
431.435232
 20
441.322934
 42
-0.107842
  0
VERTEX
  8
0
 10
443.101633
 20
433.918189
 42
-0.086719
  0
VERTEX
  8
0
 10
452.550991
 20
420.608762
 42
-0.059332
  0
VERTEX
  8
0
 10
458.498239
 20
403.008372
 42
-0.034247
  0
VERTEX
  8
0
 10
459.862148
 20
393.249912
 42
-0.047909
  0
VERTEX
  8
0
 10
459.639135
 20
384.452175
 42
-0.053582
  0
VERTEX
  8
0
 10
457.833786
 20
376.676927
 42
-0.064371
  0
VERTEX
  8
0
 10
454.477632
 20
369.966761
 42
0.006411
  0
VERTEX
  8
0
 10
451.938142
 20
366.086594
 42
0.304934
  0
VERTEX
  8
0
 10
451.960651
 20
365.195620
 42
0.462947
  0
VERTEX
  8
0
 10
452.646301
 20
365.136200
 42
0.007551
  0
VERTEX
  8
0
 10
455.696034
 20
368.250000
 42
0.094202
  0
VERTEX
  8
0
 10
461.407275
 20
377.120176
 42
0.073014
  0
VERTEX
  8
0
 10
464.125811
 20
388.304848
 42
0.063923
  0
VERTEX
  8
0
 10
463.674595
 20
401.189045
 42
0.046848
  0
VERTEX
  8
0
 10
460.044427
 20
415.040879
 42
0.060591
  0
VERTEX
  8
0
 10
452.351862
 20
430.148480
 42
0.084075
  0
VERTEX
  8
0
 10
441.907612
 20
441.142533
 42
0.099139
  0
VERTEX
  8
0
 10
429.875031
 20
446.890521
 42
0.123367
  0
SEQEND
  0
POLYLINE
  8
0
 66
1
 70
1
  0
VERTEX
  8
0
 10
184.393011
 20
441.418213
 42
-0.007829
  0
VERTEX
  8
0
 10
184.625431
 20
440.782974
 42
-0.009605
  0
VERTEX
  8
0
 10
184.821697
 20
440.182454
 42
-0.008260
  0
VERTEX
  8
0
 10
184.967999
 20
439.673970
 42
-0.066004
  0
VERTEX
  8
0
 10
185.000000
 20
439.432608
 42
0.290817
  0
VERTEX
  8
0
 10
185.604097
 20
438.481828
 42
0.005120
  0
VERTEX
  8
0
 10
191.388150
 20
435.839547
 42
0.009542
  0
VERTEX
  8
0
 10
196.986095
 20
433.478125
 42
0.095313
  0
VERTEX
  8
0
 10
199.471483
 20
433.000000
 42
0.108835
  0
VERTEX
  8
0
 10
201.263428
 20
433.394727
 42
0.527088
  0
VERTEX
  8
0
 10
201.406575
 20
434.243918
 42
0.069873
  0
VERTEX
  8
0
 10
199.221215
 20
435.830979
 42
0.007047
  0
VERTEX
  8
0
 10
193.485303
 20
438.777143
 42
0.002166
  0
VERTEX
  8
0
 10
187.086948
 20
441.915944
 42
0.042286
  0
VERTEX
  8
0
 10
185.035442
 20
442.705084
 42
0.385923
  0
VERTEX
  8
0
 10
184.399767
 20
442.394930
 42
0.188861
  0
SEQEND
  0
POLYLINE
  8
0
 66
1
 70
1
  0
VERTEX
  8
0
 10
395.906675
 20
439.526752
 42
0.046843
  0
VERTEX
  8
0
 10
391.945917
 20
436.953821
 42
0.039510
  0
VERTEX
  8
0
 10
388.282321
 20
433.549756
 42
0.038504
  0
VERTEX
  8
0
 10
385.108432
 20
429.511808
 42
0.038975
  0
VERTEX
  8
0
 10
382.605656
 20
425.050805
 42
0.035397
  0
VERTEX
  8
0
 10
381.532211
 20
422.221285
 42
0.039352
  0
VERTEX
  8
0
 10
380.914283
 20
419.366591
 42
0.027402
  0
VERTEX
  8
0
 10
380.621227
 20
415.698270
 42
0.007873
  0
VERTEX
  8
0
 10
380.568892
 20
410.000000
 42
0.010478
  0
VERTEX
  8
0
 10
380.697595
 20
405.323781
 42
0.014095
  0
VERTEX
  8
0
 10
381.022012
 20
401.100143
 42
0.015694
  0
VERTEX
  8
0
 10
381.509370
 20
397.544915
 42
0.039034
  0
VERTEX
  8
0
 10
382.147402
 20
395.000000
 42
0.021589
  0
VERTEX
  8
0
 10
383.065213
 20
392.611345
 42
0.741182
  0
VERTEX
  8
0
 10
383.458915
 20
392.656776
 42
0.045069
  0
VERTEX
  8
0
 10
383.622489
 20
394.466049
 42
0.001059
  0
VERTEX
  8
0
 10
383.605152
 20
403.000000
 42
-0.006201
  0
VERTEX
  8
0
 10
383.663046
 20
410.015333
 42
-0.025101
  0
VERTEX
  8
0
 10
383.965651
 20
414.279517
 42
-0.036857
  0
VERTEX
  8
0
 10
384.623993
 20
417.617686
 42
-0.027944
  0
VERTEX
  8
0
 10
385.813578
 20
421.156686
 42
-0.054409
  0
VERTEX
  8
0
 10
388.278568
 20
425.790842
 42
-0.042089
  0
VERTEX
  8
0
 10
391.884647
 20
430.234746
 42
-0.042512
  0
VERTEX
  8
0
 10
396.131428
 20
433.959465
 42
-0.059883
  0
VERTEX
  8
0
 10
400.509460
 20
436.439506
 42
0.026683
  0
VERTEX
  8
0
 10
402.156788
 20
437.233493
 42
0.069860
  0
VERTEX
  8
0
 10
403.206242
 20
438.018086
 42
0.106618
  0
VERTEX
  8
0
 10
403.738285
 20
438.835688
 42
0.139574
  0
VERTEX
  8
0
 10
403.815475
 20
439.719645
 42
0.166215
  0
VERTEX
  8
0
 10
403.031484
 20
441.089959
 42
0.188717
  0
VERTEX
  8
0
 10
401.616151
 20
441.604450
 42
0.091532
  0
VERTEX
  8
0
 10
399.341081
 20
441.126807
 42
0.023250
  0
SEQEND
  0
POLYLINE
  8
0
 66
1
 70
1
  0
VERTEX
  8
0
 10
407.387580
 20
438.408107
 42
-0.082746
  0
VERTEX
  8
0
 10
406.816519
 20
437.097868
 42
-0.070318
  0
VERTEX
  8
0
 10
405.824348
 20
435.958707
 42
-0.053594
  0
VERTEX
  8
0
 10
404.306610
 20
434.905224
 42
-0.024020
  0
VERTEX
  8
0
 10
402.118528
 20
433.843810
 42
0.038681
  0
VERTEX
  8
0
 10
398.192049
 20
431.794947
 42
0.045485
  0
VERTEX
  8
0
 10
394.850807
 20
429.259284
 42
0.045790
  0
VERTEX
  8
0
 10
392.040875
 20
426.176952
 42
0.040110
  0
VERTEX
  8
0
 10
389.696967
 20
422.500000
 42
0.085729
  0
VERTEX
  8
0
 10
387.915289
 20
417.056094
 42
0.041366
  0
VERTEX
  8
0
 10
387.455129
 20
409.710982
 42
0.038988
  0
VERTEX
  8
0
 10
388.245390
 20
401.677356
 42
0.041916
  0
VERTEX
  8
0
 10
390.269138
 20
394.062930
 42
0.012709
  0
VERTEX
  8
0
 10
391.418696
 20
391.090052
 42
0.014471
  0
VERTEX
  8
0
 10
392.672546
 20
388.307256
 42
0.013719
  0
VERTEX
  8
0
 10
393.864342
 20
386.016384
 42
0.074847
  0
VERTEX
  8
0
 10
394.714848
 20
384.912695
 42
0.096895
  0
VERTEX
  8
0
 10
397.273476
 20
383.266785
 42
0.002851
  0
VERTEX
  8
0
 10
409.261937
 20
378.578993
 42
0.006324
  0
VERTEX
  8
0
 10
421.991608
 20
373.868784
 42
0.008492
  0
VERTEX
  8
0
 10
433.647441
 20
369.944437
 42
0.033590
  0
VERTEX
  8
0
 10
439.221552
 20
368.576666
 42
0.099985
  0
VERTEX
  8
0
 10
443.133345
 20
368.677763
 42
0.104932
  0
VERTEX
  8
0
 10
446.589874
 20
370.280797
 42
0.039187
  0
VERTEX
  8
0
 10
450.626404
 20
373.833121
 42
0.123026
  0
VERTEX
  8
0
 10
455.343286
 20
381.958604
 42
0.074624
  0
VERTEX
  8
0
 10
456.816140
 20
393.037441
 42
0.062886
  0
VERTEX
  8
0
 10
454.963768
 20
405.956685
 42
0.046445
  0
VERTEX
  8
0
 10
449.859200
 20
419.483679
 42
0.056521
  0
VERTEX
  8
0
 10
443.415129
 20
429.613322
 42
0.087172
  0
VERTEX
  8
0
 10
435.612199
 20
436.421018
 42
0.101201
  0
VERTEX
  8
0
 10
426.873439
 20
439.529609
 42
0.103090
  0
VERTEX
  8
0
 10
417.676980
 20
438.927257
 42
-0.023086
  0
VERTEX
  8
0
 10
415.612185
 20
438.455338
 42
-0.065017
  0
VERTEX
  8
0
 10
414.135846
 20
438.383412
 42
-0.078594
  0
VERTEX
  8
0
 10
412.855823
 20
438.693994
 42
-0.046317
  0
VERTEX
  8
0
 10
411.462164
 20
439.432834
 42
0.013930
  0
VERTEX
  8
0
 10
409.385310
 20
440.712406
 42
0.195097
  0
VERTEX
  8
0
 10
408.533404
 20
440.831564
 42
0.251451
  0
VERTEX
  8
0
 10
407.959923
 20
440.308903
 42
0.023288
  0
SEQEND
  0
POLYLINE
  8
0
 66
1
 70
1
  0
VERTEX
  8
0
 10
171.429708
 20
434.496730
 42
-0.019997
  0
VERTEX
  8
0
 10
169.814583
 20
432.546130
 42
-0.083567
  0
VERTEX
  8
0
 10
168.626181
 20
431.599824
 42
-0.117252
  0
VERTEX
  8
0
 10
167.410387
 20
431.260348
 42
-0.059130
  0
VERTEX
  8
0
 10
165.814297
 20
431.387141
 42
0.024711
  0
VERTEX
  8
0
 10
164.227530
 20
431.623686
 42
0.173380
  0
VERTEX
  8
0
 10
163.480723
 20
431.437146
 42
0.210476
  0
VERTEX
  8
0
 10
163.102101
 20
430.843542
 42
0.038239
  0
VERTEX
  8
0
 10
163.000000
 20
429.510458
 42
0.044756
  0
VERTEX
  8
0
 10
163.398272
 20
425.069982
 42
0.006935
  0
VERTEX
  8
0
 10
165.091725
 20
416.394418
 42
0.003445
  0
VERTEX
  8
0
 10
167.058400
 20
407.324667
 42
0.142191
  0
VERTEX
  8
0
 10
168.015820
 20
405.584180
 42
0.239822
  0
VERTEX
  8
0
 10
169.033650
 20
405.252921
 42
0.019056
  0
VERTEX
  8
0
 10
171.901714
 20
405.817060
 42
0.017578
  0
VERTEX
  8
0
 10
176.021264
 20
406.945995
 42
0.005593
  0
VERTEX
  8
0
 10
182.073663
 20
408.910225
 42
0.005023
  0
VERTEX
  8
0
 10
188.657998
 20
411.202694
 42
0.024251
  0
VERTEX
  8
0
 10
192.317611
 20
412.722338
 42
0.041654
  0
VERTEX
  8
0
 10
194.369972
 20
413.912021
 42
0.290269
  0
VERTEX
  8
0
 10
194.798247
 20
414.932971
 42
-0.111166
  0
VERTEX
  8
0
 10
194.842516
 20
415.758035
 42
-0.034548
  0
VERTEX
  8
0
 10
195.263932
 20
416.934021
 42
-0.032623
  0
VERTEX
  8
0
 10
195.931995
 20
418.222321
 42
-0.030737
  0
VERTEX
  8
0
 10
196.774079
 20
419.439917
 42
0.016230
  0
VERTEX
  8
0
 10
197.605526
 20
420.570600
 42
0.025713
  0
VERTEX
  8
0
 10
198.234110
 20
421.595418
 42
0.023268
  0
VERTEX
  8
0
 10
198.641003
 20
422.432944
 42
0.306904
  0
VERTEX
  8
0
 10
198.579305
 20
422.754028
 42
0.218998
  0
VERTEX
  8
0
 10
198.189445
 20
422.898201
 42
0.005214
  0
VERTEX
  8
0
 10
196.210000
 20
422.724742
 42
0.010497
  0
VERTEX
  8
0
 10
193.853938
 20
422.443449
 42
0.006819
  0
VERTEX
  8
0
 10
191.143680
 20
422.024235
 42
-0.027066
  0
VERTEX
  8
0
 10
185.244258
 20
421.354861
 42
-0.148168
  0
VERTEX
  8
0
 10
182.159850
 20
422.094425
 42
-0.153076
  0
VERTEX
  8
0
 10
180.058428
 20
424.407569
 42
-0.029482
  0
VERTEX
  8
0
 10
177.961191
 20
429.739719
 42
0.006041
  0
VERTEX
  8
0
 10
177.059722
 20
432.389973
 42
0.008192
  0
VERTEX
  8
0
 10
176.177795
 20
434.759328
 42
0.005797
  0
VERTEX
  8
0
 10
175.387275
 20
436.714020
 42
0.086034
  0
VERTEX
  8
0
 10
174.991650
 20
437.334589
 42
0.339712
  0
VERTEX
  8
0
 10
174.516468
 20
437.419409
 42
0.048642
  0
VERTEX
  8
0
 10
173.631488
 20
436.845236
 42
0.038878
  0
VERTEX
  8
0
 10
172.558421
 20
435.844661
 42
0.022759
  0
SEQEND
  0
POLYLINE
  8
0
 66
1
 70
1
  0
VERTEX
  8
0
 10
237.446149
 20
436.912868
 42
0.084659
  0
VERTEX
  8
0
 10
237.254568
 20
436.439622
 42
0.079746
  0
VERTEX
  8
0
 10
237.225098
 20
435.919386
 42
0.082775
  0
VERTEX
  8
0
 10
237.358488
 20
435.433146
 42
0.102956
  0
VERTEX
  8
0
 10
237.637132
 20
435.057413
 42
0.101710
  0
VERTEX
  8
0
 10
239.602036
 20
433.919881
 42
0.013305
  0
VERTEX
  8
0
 10
244.247986
 20
432.505856
 42
0.015864
  0
VERTEX
  8
0
 10
249.027356
 20
431.350863
 42
0.055065
  0
VERTEX
  8
0
 10
252.187897
 20
431.048521
 42
0.030129
  0
VERTEX
  8
0
 10
253.951767
 20
431.180862
 42
0.606721
  0
VERTEX
  8
0
 10
254.094330
 20
431.577594
 42
0.083308
  0
VERTEX
  8
0
 10
253.185888
 20
432.280961
 42
0.002580
  0
VERTEX
  8
0
 10
249.000000
 20
434.500000
 42
0.017954
  0
VERTEX
  8
0
 10
244.465074
 20
436.670469
 42
0.051197
  0
VERTEX
  8
0
 10
241.134542
 20
437.730658
 42
0.086630
  0
VERTEX
  8
0
 10
238.815846
 20
437.807317
 42
0.222948
  0
SEQEND
  0
POLYLINE
  8
0
 66
1
 70
1
  0
VERTEX
  8
0
 10
211.077078
 20
427.586836
 42
0.007928
  0
VERTEX
  8
0
 10
209.598337
 20
426.736700
 42
0.195771
  0
VERTEX
  8
0
 10
209.319847
 20
426.367710
 42
0.385819
  0
VERTEX
  8
0
 10
209.475817
 20
426.065596
 42
0.021221
  0
VERTEX
  8
0
 10
210.577078
 20
425.706330
 42
0.027850
  0
VERTEX
  8
0
 10
213.556076
 20
425.048849
 42
0.012316
  0
VERTEX
  8
0
 10
217.549463
 20
424.498688
 42
0.004337
  0
VERTEX
  8
0
 10
221.622563
 20
424.075196
 42
0.442298
  0
VERTEX
  8
0
 10
222.000000
 20
424.418403
 42
0.269618
  0
VERTEX
  8
0
 10
221.712432
 20
424.912924
 42
0.002919
  0
VERTEX
  8
0
 10
218.163012
 20
426.905487
 42
0.004180
  0
VERTEX
  8
0
 10
214.671694
 20
428.800755
 42
0.153856
  0
VERTEX
  8
0
 10
213.789838
 20
428.964565
 42
0.084408
  0
VERTEX
  8
0
 10
213.594336
 20
428.906209
 42
0.002858
  0
VERTEX
  8
0
 10
212.873407
 20
428.545240
 42
0.005319
  0
VERTEX
  8
0
 10
212.026455
 20
428.103702
 42
0.003677
  0
SEQEND
  0
POLYLINE
  8
0
 66
1
 70
1
  0
VERTEX
  8
0
 10
264.078584
 20
425.069729
 42
0.432334
  0
VERTEX
  8
0
 10
263.920934
 20
424.251712
 42
0.106434
  0
VERTEX
  8
0
 10
265.062567
 20
423.223900
 42
0.041469
  0
VERTEX
  8
0
 10
267.758974
 20
421.961002
 42
0.012167
  0
VERTEX
  8
0
 10
272.087105
 20
420.474666
 42
-0.028604
  0
VERTEX
  8
0
 10
273.673008
 20
419.871105
 42
-0.001729
  0
VERTEX
  8
0
 10
278.313631
 20
417.774735
 42
-0.002582
  0
VERTEX
  8
0
 10
283.822555
 20
415.228694
 42
-0.001905
  0
VERTEX
  8
0
 10
289.895468
 20
412.355577
 42
0.000995
  0
VERTEX
  8
0
 10
295.827973
 20
409.535664
 42
0.001606
  0
VERTEX
  8
0
 10
300.892173
 20
407.160701
 42
0.000241
  0
VERTEX
  8
0
 10
305.392266
 20
405.070526
 42
0.109015
  0
VERTEX
  8
0
 10
305.711890
 20
405.000000
 42
0.375823
  0
VERTEX
  8
0
 10
305.861162
 20
405.130653
 42
0.023198
  0
VERTEX
  8
0
 10
305.916240
 20
405.766250
 42
0.025234
  0
VERTEX
  8
0
 10
305.907478
 20
406.608328
 42
0.014964
  0
VERTEX
  8
0
 10
305.816422
 20
407.608509
 42
0.159839
  0
VERTEX
  8
0
 10
305.030709
 20
409.287434
 42
0.073387
  0
VERTEX
  8
0
 10
303.114360
 20
410.804353
 42
0.029042
  0
VERTEX
  8
0
 10
299.288724
 20
412.723630
 42
0.003410
  0
VERTEX
  8
0
 10
290.500000
 20
416.440563
 42
-0.001773
  0
VERTEX
  8
0
 10
284.522025
 20
418.945729
 42
-0.002186
  0
VERTEX
  8
0
 10
278.966150
 20
421.325901
 42
-0.001803
  0
VERTEX
  8
0
 10
274.314630
 20
423.362709
 42
-0.016029
  0
VERTEX
  8
0
 10
272.299660
 20
424.332054
 42
0.033804
  0
VERTEX
  8
0
 10
269.796756
 20
425.428426
 42
0.064035
  0
VERTEX
  8
0
 10
267.650562
 20
425.902470
 42
0.078780
  0
VERTEX
  8
0
 10
265.772049
 20
425.775015
 42
0.085028
  0
SEQEND
  0
POLYLINE
  8
0
 66
1
 70
1
  0
VERTEX
  8
0
 10
357.508975
 20
420.750000
 42
-0.027866
  0
VERTEX
  8
0
 10
357.689833
 20
418.094727
 42
-0.021151
  0
VERTEX
  8
0
 10
357.602267
 20
415.177133
 42
-0.020103
  0
VERTEX
  8
0
 10
357.255799
 20
412.110428
 42
-0.018703
  0
VERTEX
  8
0
 10
356.658402
 20
409.005863
 42
0.006868
  0
VERTEX
  8
0
 10
356.111663
 20
406.487304
 42
0.010664
  0
VERTEX
  8
0
 10
355.716473
 20
404.299488
 42
0.005186
  0
VERTEX
  8
0
 10
355.443829
 20
402.458226
 42
0.234680
  0
VERTEX
  8
0
 10
355.563080
 20
402.103587
 42
0.485096
  0
VERTEX
  8
0
 10
355.814109
 20
402.133323
 42
0.008135
  0
VERTEX
  8
0
 10
356.628239
 20
403.512335
 42
0.013931
  0
VERTEX
  8
0
 10
357.572383
 20
405.285928
 42
0.007996
  0
VERTEX
  8
0
 10
358.616021
 20
407.472458
 42
0.021204
  0
VERTEX
  8
0
 10
359.810433
 20
410.403722
 42
0.028758
  0
VERTEX
  8
0
 10
360.619536
 20
413.144761
 42
0.030451
  0
VERTEX
  8
0
 10
361.076540
 20
415.828857
 42
0.029196
  0
VERTEX
  8
0
 10
361.212864
 20
418.586816
 42
0.014659
  0
VERTEX
  8
0
 10
361.065363
 20
422.436031
 42
0.074811
  0
VERTEX
  8
0
 10
360.605654
 20
424.521537
 42
0.158458
  0
VERTEX
  8
0
 10
359.736521
 20
425.594983
 42
0.144975
  0
VERTEX
  8
0
 10
358.369027
 20
426.000000
 42
0.192701
  0
VERTEX
  8
0
 10
357.654791
 20
425.714116
 42
0.163163
  0
VERTEX
  8
0
 10
357.272600
 20
424.990367
 42
0.061738
  0
VERTEX
  8
0
 10
357.216430
 20
423.552988
 42
0.009866
  0
SEQEND
  0
POLYLINE
  8
0
 66
1
 70
1
  0
VERTEX
  8
0
 10
338.192299
 20
419.566889
 42
0.007075
  0
VERTEX
  8
0
 10
333.064167
 20
417.414824
 42
0.022939
  0
VERTEX
  8
0
 10
329.753922
 20
415.785647
 42
0.595766
  0
VERTEX
  8
0
 10
329.756568
 20
415.409328
 42
0.195369
  0
VERTEX
  8
0
 10
330.500000
 20
415.332267
 42
-0.007637
  0
VERTEX
  8
0
 10
331.674593
 20
415.653955
 42
-0.001238
  0
VERTEX
  8
0
 10
333.968750
 20
416.238694
 42
-0.001365
  0
VERTEX
  8
0
 10
336.673354
 20
416.913072
 42
-0.001201
  0
VERTEX
  8
0
 10
339.500000
 20
417.602492
 42
0.011400
  0
VERTEX
  8
0
 10
344.271304
 20
418.869857
 42
0.046363
  0
VERTEX
  8
0
 10
347.063114
 20
419.969063
 42
0.107477
  0
VERTEX
  8
0
 10
348.363935
 20
421.025031
 42
0.317122
  0
VERTEX
  8
0
 10
348.429973
 20
422.113307
 42
0.191274
  0
VERTEX
  8
0
 10
347.642631
 20
422.698587
 42
0.126935
  0
VERTEX
  8
0
 10
346.503215
 20
422.708542
 42
0.032801
  0
VERTEX
  8
0
 10
344.358337
 20
422.022990
 42
0.002063
  0
SEQEND
  0
POLYLINE
  8
0
 66
1
 70
1
  0
VERTEX
  8
0
 10
238.936872
 20
415.960985
 42
0.133148
  0
VERTEX
  8
0
 10
238.155262
 20
415.126151
 42
0.408092
  0
VERTEX
  8
0
 10
238.353940
 20
414.453450
 42
0.123425
  0
VERTEX
  8
0
 10
239.723096
 20
414.084699
 42
0.028411
  0
VERTEX
  8
0
 10
242.131594
 20
414.179471
 42
0.000000
  0
VERTEX
  8
0
 10
245.455464
 20
414.500000
 42
0.000000
  0
VERTEX
  8
0
 10
242.885644
 20
415.656612
 42
0.039869
  0
VERTEX
  8
0
 10
241.763850
 20
416.057500
 42
0.046683
  0
VERTEX
  8
0
 10
240.650363
 20
416.248897
 42
0.052490
  0
VERTEX
  8
0
 10
239.665490
 20
416.221356
 42
0.105573
  0
SEQEND
  0
POLYLINE
  8
0
 66
1
 70
1
  0
VERTEX
  8
0
 10
350.000000
 20
415.975300
 42
-0.022144
  0
VERTEX
  8
0
 10
349.038525
 20
415.450537
 42
-0.002340
  0
VERTEX
  8
0
 10
346.737500
 20
414.337192
 42
-0.002889
  0
VERTEX
  8
0
 10
343.981705
 20
413.039200
 42
-0.002315
  0
VERTEX
  8
0
 10
341.000000
 20
411.672542
 42
0.000000
  0
VERTEX
  8
0
 10
333.500000
 20
408.276869
 42
0.000000
  0
VERTEX
  8
0
 10
337.500000
 20
407.544965
 42
-0.028256
  0
VERTEX
  8
0
 10
339.228299
 20
407.126650
 42
-0.019974
  0
VERTEX
  8
0
 10
341.115606
 20
406.471941
 42
-0.020235
  0
VERTEX
  8
0
 10
342.874430
 20
405.698455
 42
-0.039577
  0
VERTEX
  8
0
 10
344.191425
 20
404.919899
 42
0.000000
  0
VERTEX
  8
0
 10
346.882850
 20
403.026738
 42
0.000000
  0
VERTEX
  8
0
 10
348.740181
 20
405.763369
 42
0.031642
  0
VERTEX
  8
0
 10
350.993616
 20
409.582883
 42
0.041400
  0
VERTEX
  8
0
 10
352.522924
 20
413.335276
 42
0.056943
  0
VERTEX
  8
0
 10
353.061916
 20
416.130514
 42
0.460368
  0
VERTEX
  8
0
 10
352.250000
 20
416.941193
 42
0.064442
  0
VERTEX
  8
0
 10
351.863557
 20
416.860054
 42
0.017460
  0
VERTEX
  8
0
 10
351.279687
 20
416.633203
 42
0.017369
  0
VERTEX
  8
0
 10
350.629309
 20
416.326835
 42
0.017232
  0
SEQEND
  0
POLYLINE
  8
0
 66
1
 70
1
  0
VERTEX
  8
0
 10
254.527494
 20
408.679311
 42
0.022538
  0
VERTEX
  8
0
 10
258.196447
 20
406.455389
 42
0.026215
  0
VERTEX
  8
0
 10
261.873882
 20
404.690586
 42
0.021430
  0
VERTEX
  8
0
 10
265.042942
 20
403.525996
 42
0.280722
  0
VERTEX
  8
0
 10
266.208908
 20
403.808908
 42
0.424374
  0
VERTEX
  8
0
 10
266.199501
 20
404.353165
 42
0.047296
  0
VERTEX
  8
0
 10
265.105823
 20
405.195529
 42
0.032165
  0
VERTEX
  8
0
 10
263.227766
 20
406.215385
 42
0.013097
  0
VERTEX
  8
0
 10
260.556363
 20
407.366884
 42
0.003788
  0
VERTEX
  8
0
 10
255.759575
 20
409.245134
 42
0.037841
  0
VERTEX
  8
0
 10
253.695181
 20
409.861157
 42
0.723544
  0
VERTEX
  8
0
 10
253.519838
 20
409.563559
 42
0.065225
  0
SEQEND
  0
POLYLINE
  8
0
 66
1
 70
1
  0
VERTEX
  8
0
 10
314.073886
 20
403.589028
 42
0.155379
  0
VERTEX
  8
0
 10
313.626189
 20
402.482399
 42
0.282577
  0
VERTEX
  8
0
 10
314.056559
 20
401.644842
 42
0.051591
  0
VERTEX
  8
0
 10
315.921108
 20
400.761910
 42
0.002426
  0
VERTEX
  8
0
 10
322.500000
 20
398.476751
 42
-0.007498
  0
VERTEX
  8
0
 10
325.921740
 20
397.249184
 42
-0.005912
  0
VERTEX
  8
0
 10
329.589166
 20
395.821347
 42
-0.005982
  0
VERTEX
  8
0
 10
332.964616
 20
394.413836
 42
-0.014709
  0
VERTEX
  8
0
 10
335.399287
 20
393.278206
 42
0.014211
  0
VERTEX
  8
0
 10
338.114444
 20
392.008449
 42
0.058109
  0
VERTEX
  8
0
 10
339.853779
 20
391.483853
 42
0.088120
  0
VERTEX
  8
0
 10
341.278328
 20
391.482349
 42
0.063283
  0
VERTEX
  8
0
 10
342.801413
 20
391.955379
 42
0.036958
  0
VERTEX
  8
0
 10
343.742250
 20
392.471083
 42
0.081234
  0
VERTEX
  8
0
 10
344.347819
 20
393.021144
 42
0.141757
  0
VERTEX
  8
0
 10
344.559092
 20
393.535645
 42
0.231191
  0
VERTEX
  8
0
 10
344.402126
 20
393.970521
 42
0.096834
  0
VERTEX
  8
0
 10
342.533191
 20
395.186830
 42
0.001532
  0
VERTEX
  8
0
 10
330.704223
 20
399.922575
 42
0.001584
  0
VERTEX
  8
0
 10
318.871912
 20
404.574317
 42
0.093120
  0
VERTEX
  8
0
 10
316.606070
 20
405.000000
 42
0.083388
  0
VERTEX
  8
0
 10
315.999788
 20
404.898178
 42
0.043924
  0
VERTEX
  8
0
 10
315.300754
 20
404.585527
 42
0.042104
  0
VERTEX
  8
0
 10
314.622507
 20
404.128918
 42
0.050390
  0
SEQEND
  0
POLYLINE
  8
0
 66
1
 70
1
  0
VERTEX
  8
0
 10
276.500000
 20
399.000000
 42
0.076764
  0
VERTEX
  8
0
 10
276.338175
 20
398.617617
 42
0.154201
  0
VERTEX
  8
0
 10
276.357263
 20
398.293750
 42
0.186277
  0
VERTEX
  8
0
 10
276.550471
 20
398.079239
 42
0.117858
  0
VERTEX
  8
0
 10
276.881966
 20
398.000000
 42
0.085235
  0
VERTEX
  8
0
 10
277.310186
 20
398.073533
 42
0.053414
  0
VERTEX
  8
0
 10
277.769763
 20
398.293750
 42
0.051777
  0
VERTEX
  8
0
 10
278.189439
 20
398.617474
 42
0.064269
  0
VERTEX
  8
0
 10
278.500000
 20
399.000000
 42
0.076764
  0
VERTEX
  8
0
 10
278.661825
 20
399.382383
 42
0.154201
  0
VERTEX
  8
0
 10
278.642737
 20
399.706250
 42
0.186277
  0
VERTEX
  8
0
 10
278.449529
 20
399.920761
 42
0.117858
  0
VERTEX
  8
0
 10
278.118034
 20
400.000000
 42
0.085235
  0
VERTEX
  8
0
 10
277.689814
 20
399.926467
 42
0.053414
  0
VERTEX
  8
0
 10
277.230237
 20
399.706250
 42
0.051777
  0
VERTEX
  8
0
 10
276.810561
 20
399.382526
 42
0.064269
  0
SEQEND
  0
POLYLINE
  8
0
 66
1
 70
1
  0
VERTEX
  8
0
 10
277.088380
 20
390.352493
 42
0.048259
  0
VERTEX
  8
0
 10
269.218058
 20
387.833094
 42
0.101584
  0
VERTEX
  8
0
 10
263.977302
 20
384.180182
 42
0.116001
  0
VERTEX
  8
0
 10
261.018589
 20
379.114563
 42
0.075491
  0
VERTEX
  8
0
 10
260.021962
 20
372.381966
 42
0.044301
  0
VERTEX
  8
0
 10
260.444566
 20
367.815283
 42
0.038047
  0
VERTEX
  8
0
 10
261.670787
 20
363.147204
 42
0.039321
  0
VERTEX
  8
0
 10
263.518370
 20
358.914103
 42
0.061433
  0
VERTEX
  8
0
 10
265.802625
 20
355.665603
 42
0.177235
  0
VERTEX
  8
0
 10
274.533192
 20
351.071365
 42
0.098828
  0
VERTEX
  8
0
 10
286.675676
 20
351.842675
 42
0.099740
  0
VERTEX
  8
0
 10
297.502345
 20
357.196977
 42
0.183843
  0
VERTEX
  8
0
 10
302.558729
 20
365.461359
 42
-0.047677
  0
VERTEX
  8
0
 10
303.028926
 20
367.092053
 42
-0.042303
  0
VERTEX
  8
0
 10
303.814123
 20
368.674625
 42
-0.042344
  0
VERTEX
  8
0
 10
304.853543
 20
370.100940
 42
-0.048011
  0
VERTEX
  8
0
 10
306.079426
 20
371.267136
 42
0.054230
  0
VERTEX
  8
0
 10
307.860891
 20
373.004474
 42
0.249874
  0
VERTEX
  8
0
 10
308.137575
 20
374.370357
 42
0.176703
  0
VERTEX
  8
0
 10
307.150502
 20
375.697066
 42
0.026972
  0
VERTEX
  8
0
 10
304.255194
 20
377.383462
 42
-0.057154
  0
VERTEX
  8
0
 10
302.712512
 20
378.411186
 42
-0.038281
  0
VERTEX
  8
0
 10
301.201251
 20
379.901392
 42
-0.034512
  0
VERTEX
  8
0
 10
299.778035
 20
381.785667
 42
-0.027225
  0
VERTEX
  8
0
 10
298.500000
 20
384.000000
 42
0.070044
  0
VERTEX
  8
0
 10
295.165963
 20
388.781634
 42
0.134207
  0
VERTEX
  8
0
 10
291.220173
 20
391.229317
 42
0.098603
  0
VERTEX
  8
0
 10
285.715585
 20
391.736298
 42
0.027166
  0
SEQEND
  0
POLYLINE
  8
0
 66
1
 70
1
  0
VERTEX
  8
0
 10
286.320570
 20
388.750000
 42
-0.029089
  0
VERTEX
  8
0
 10
287.179507
 20
388.039077
 42
-0.445834
  0
VERTEX
  8
0
 10
287.173504
 20
387.696504
 42
-0.164566
  0
VERTEX
  8
0
 10
286.660310
 20
387.486575
 42
-0.007695
  0
VERTEX
  8
0
 10
284.761699
 20
387.397849
 42
-0.010937
  0
VERTEX
  8
0
 10
283.583024
 20
387.386729
 42
-0.038337
  0
VERTEX
  8
0
 10
282.827142
 20
387.454239
 42
-0.288607
  0
VERTEX
  8
0
 10
282.679811
 20
387.585468
 42
-0.398491
  0
VERTEX
  8
0
 10
282.756231
 20
387.733260
 42
0.080286
  0
VERTEX
  8
0
 10
283.193379
 20
387.969470
 42
0.111140
  0
VERTEX
  8
0
 10
283.477402
 20
388.310948
 42
0.128358
  0
VERTEX
  8
0
 10
283.563843
 20
388.702818
 42
0.129559
  0
VERTEX
  8
0
 10
283.447214
 20
389.085410
 42
-0.234859
  0
VERTEX
  8
0
 10
283.390921
 20
389.694109
 42
-0.341928
  0
VERTEX
  8
0
 10
283.832418
 20
389.960394
 42
-0.093317
  0
VERTEX
  8
0
 10
284.946724
 20
389.612888
 42
-0.036224
  0
SEQEND
  0
POLYLINE
  8
0
 66
1
 70
1
  0
VERTEX
  8
0
 10
347.659220
 20
391.257623
 42
0.108845
  0
VERTEX
  8
0
 10
347.513204
 20
390.840518
 42
0.058246
  0
VERTEX
  8
0
 10
347.511262
 20
390.291999
 42
0.053894
  0
VERTEX
  8
0
 10
347.642938
 20
389.704552
 42
0.056406
  0
VERTEX
  8
0
 10
347.895933
 20
389.168385
 42
0.215615
  0
VERTEX
  8
0
 10
348.877547
 20
388.507586
 42
0.119003
  0
VERTEX
  8
0
 10
350.348390
 20
388.609418
 42
0.134321
  0
VERTEX
  8
0
 10
351.497165
 20
389.350713
 42
0.269256
  0
VERTEX
  8
0
 10
351.709398
 20
390.373207
 42
0.169171
  0
VERTEX
  8
0
 10
351.038452
 20
391.243902
 42
0.091275
  0
VERTEX
  8
0
 10
349.775036
 20
391.773656
 42
0.096601
  0
VERTEX
  8
0
 10
348.467146
 20
391.802939
 42
0.214973
  0
SEQEND
  0
POLYLINE
  8
0
 66
1
 70
1
  0
VERTEX
  8
0
 10
257.698731
 20
388.219595
 42
0.042882
  0
VERTEX
  8
0
 10
256.932106
 20
387.210839
 42
0.012167
  0
VERTEX
  8
0
 10
255.918344
 20
385.518886
 42
0.012162
  0
VERTEX
  8
0
 10
254.862206
 20
383.544305
 42
0.012589
  0
VERTEX
  8
0
 10
253.916020
 20
381.543055
 42
0.113260
  0
VERTEX
  8
0
 10
251.973296
 20
371.491055
 42
0.087483
  0
VERTEX
  8
0
 10
254.297600
 20
360.541326
 42
0.086880
  0
VERTEX
  8
0
 10
260.251534
 20
350.981312
 42
0.109307
  0
VERTEX
  8
0
 10
268.703446
 20
344.912793
 42
0.111023
  0
VERTEX
  8
0
 10
279.648303
 20
342.877957
 42
0.078752
  0
VERTEX
  8
0
 10
291.944340
 20
345.300162
 42
0.081107
  0
VERTEX
  8
0
 10
302.542892
 20
351.277909
 42
0.133430
  0
VERTEX
  8
0
 10
308.568674
 20
359.540649
 42
0.026822
  0
VERTEX
  8
0
 10
309.627417
 20
362.832473
 42
0.161597
  0
VERTEX
  8
0
 10
309.516077
 20
364.600967
 42
0.527019
  0
VERTEX
  8
0
 10
308.664863
 20
364.789030
 42
0.061753
  0
VERTEX
  8
0
 10
307.173719
 20
363.000000
 42
-0.061846
  0
VERTEX
  8
0
 10
301.580790
 20
356.292295
 42
-0.071136
  0
VERTEX
  8
0
 10
294.754627
 20
351.519206
 42
-0.070217
  0
VERTEX
  8
0
 10
286.787307
 20
348.808199
 42
-0.058125
  0
VERTEX
  8
0
 10
277.838634
 20
348.165888
 42
-0.011574
  0
VERTEX
  8
0
 10
273.405166
 20
348.466102
 42
-0.049932
  0
VERTEX
  8
0
 10
270.814427
 20
348.965800
 42
-0.066215
  0
VERTEX
  8
0
 10
268.743091
 20
349.897159
 42
-0.030946
  0
VERTEX
  8
0
 10
266.338634
 20
351.601638
 42
-0.091721
  0
VERTEX
  8
0
 10
260.713952
 20
358.154397
 42
-0.069025
  0
VERTEX
  8
0
 10
257.108550
 20
366.961280
 42
-0.069648
  0
VERTEX
  8
0
 10
256.058055
 20
376.329482
 42
-0.097575
  0
VERTEX
  8
0
 10
257.906764
 20
384.522129
 42
0.008284
  0
VERTEX
  8
0
 10
259.380243
 20
388.008161
 42
0.110330
  0
VERTEX
  8
0
 10
259.605644
 20
389.373884
 42
0.612656
  0
VERTEX
  8
0
 10
259.133268
 20
389.582145
 42
0.037801
  0
SEQEND
  0
POLYLINE
  8
0
 66
1
 70
1
  0
VERTEX
  8
0
 10
304.000000
 20
388.622445
 42
0.184603
  0
VERTEX
  8
0
 10
304.081150
 20
388.410139
 42
0.013803
  0
VERTEX
  8
0
 10
304.514063
 20
387.952641
 42
0.017649
  0
VERTEX
  8
0
 10
305.079598
 20
387.425681
 42
0.012436
  0
VERTEX
  8
0
 10
305.750000
 20
386.872445
 42
0.001576
  0
VERTEX
  8
0
 10
306.879507
 20
385.992360
 42
0.377591
  0
VERTEX
  8
0
 10
307.000000
 20
386.000000
 42
0.377591
  0
VERTEX
  8
0
 10
307.007640
 20
386.120493
 42
0.001576
  0
VERTEX
  8
0
 10
306.127555
 20
387.250000
 42
0.017685
  0
VERTEX
  8
0
 10
305.236680
 20
388.306759
 42
0.065617
  0
VERTEX
  8
0
 10
304.573889
 20
388.869516
 42
0.241985
  0
VERTEX
  8
0
 10
304.193395
 20
388.906950
 42
0.307699
  0
SEQEND
  0
POLYLINE
  8
0
 66
1
 70
1
  0
VERTEX
  8
0
 10
355.000000
 20
387.419555
 42
0.179504
  0
VERTEX
  8
0
 10
355.277086
 20
386.672611
 42
0.052000
  0
VERTEX
  8
0
 10
356.186044
 20
385.814824
 42
0.042657
  0
VERTEX
  8
0
 10
357.542930
 20
384.950312
 42
0.027037
  0
VERTEX
  8
0
 10
359.250000
 20
384.171642
 42
-0.008868
  0
VERTEX
  8
0
 10
361.471860
 20
383.254110
 42
-0.002530
  0
VERTEX
  8
0
 10
364.887334
 20
381.751652
 42
-0.002546
  0
VERTEX
  8
0
 10
368.725825
 20
380.016390
 42
-0.002698
  0
VERTEX
  8
0
 10
372.472838
 20
378.274925
 42
0.011334
  0
VERTEX
  8
0
 10
378.299189
 20
375.688467
 42
0.083773
  0
VERTEX
  8
0
 10
381.249462
 20
375.004003
 42
0.297516
  0
VERTEX
  8
0
 10
382.563304
 20
375.751976
 42
0.166685
  0
VERTEX
  8
0
 10
382.838722
 20
377.643780
 42
0.193499
  0
VERTEX
  8
0
 10
382.138773
 20
378.740533
 42
0.029338
  0
VERTEX
  8
0
 10
379.893884
 20
380.153685
 42
0.022328
  0
VERTEX
  8
0
 10
376.374744
 20
381.890750
 42
0.007127
  0
VERTEX
  8
0
 10
370.994942
 20
384.162861
 42
0.007077
  0
VERTEX
  8
0
 10
362.850237
 20
387.333222
 42
0.039068
  0
VERTEX
  8
0
 10
358.328775
 20
388.628289
 42
0.108530
  0
VERTEX
  8
0
 10
355.927687
 20
388.591426
 42
0.347906
  0
SEQEND
  0
POLYLINE
  8
0
 66
1
 70
1
  0
VERTEX
  8
0
 10
314.176676
 20
383.406949
 42
0.176073
  0
VERTEX
  8
0
 10
314.643010
 20
382.644307
 42
0.024633
  0
VERTEX
  8
0
 10
316.167524
 20
381.546352
 42
0.025673
  0
VERTEX
  8
0
 10
318.178621
 20
380.385336
 42
0.019226
  0
VERTEX
  8
0
 10
320.500000
 20
379.310052
 42
-0.013265
  0
VERTEX
  8
0
 10
322.949679
 20
378.210605
 42
-0.013088
  0
VERTEX
  8
0
 10
325.348785
 20
376.978116
 42
-0.013061
  0
VERTEX
  8
0
 10
327.391143
 20
375.790047
 42
-0.047997
  0
VERTEX
  8
0
 10
328.580969
 20
374.887585
 42
0.016632
  0
VERTEX
  8
0
 10
329.944791
 20
373.711616
 42
0.176968
  0
VERTEX
  8
0
 10
330.627346
 20
373.479349
 42
0.186514
  0
VERTEX
  8
0
 10
331.280593
 20
373.748710
 42
0.018838
  0
VERTEX
  8
0
 10
332.476940
 20
374.974519
 42
0.098442
  0
VERTEX
  8
0
 10
333.321952
 20
376.386413
 42
0.347148
  0
VERTEX
  8
0
 10
333.006376
 20
377.322362
 42
0.047247
  0
VERTEX
  8
0
 10
331.119315
 20
378.311770
 42
0.000942
  0
VERTEX
  8
0
 10
321.077592
 20
382.399615
 42
0.001746
  0
VERTEX
  8
0
 10
315.916397
 20
384.468395
 42
0.058262
  0
VERTEX
  8
0
 10
314.631723
 20
384.811991
 42
0.405019
  0
VERTEX
  8
0
 10
314.163969
 20
384.474723
 42
0.094449
  0
SEQEND
  0
POLYLINE
  8
0
 66
1
 70
1
  0
VERTEX
  8
0
 10
389.000000
 20
374.500000
 42
0.044731
  0
VERTEX
  8
0
 10
390.701391
 20
372.985938
 42
0.079707
  0
VERTEX
  8
0
 10
392.360917
 20
372.124660
 42
0.166077
  0
VERTEX
  8
0
 10
393.497643
 20
372.135463
 42
0.318163
  0
VERTEX
  8
0
 10
394.000000
 20
372.845012
 42
0.186422
  0
VERTEX
  8
0
 10
393.539467
 20
374.037275
 42
0.046748
  0
VERTEX
  8
0
 10
391.972077
 20
375.468851
 42
0.047502
  0
VERTEX
  8
0
 10
390.084098
 20
376.631015
 42
0.114712
  0
VERTEX
  8
0
 10
388.496945
 20
377.000000
 42
0.047379
  0
VERTEX
  8
0
 10
387.546420
 20
376.909728
 42
0.416910
  0
VERTEX
  8
0
 10
387.333838
 20
376.593208
 42
0.132212
  0
VERTEX
  8
0
 10
387.624611
 20
376.008484
 42
0.007455
  0
SEQEND
  0
POLYLINE
  8
0
 66
1
 70
1
  0
VERTEX
  8
0
 10
339.000000
 20
372.940983
 42
0.047867
  0
VERTEX
  8
0
 10
339.071541
 20
372.195401
 42
0.104212
  0
VERTEX
  8
0
 10
339.293750
 20
371.668350
 42
0.181468
  0
VERTEX
  8
0
 10
339.621877
 20
371.441401
 42
0.202618
  0
VERTEX
  8
0
 10
340.000000
 20
371.500000
 42
0.088250
  0
VERTEX
  8
0
 10
340.382836
 20
371.842344
 42
0.053305
  0
VERTEX
  8
0
 10
340.706250
 20
372.359775
 42
0.051278
  0
VERTEX
  8
0
 10
340.925833
 20
372.961978
 42
0.061875
  0
VERTEX
  8
0
 10
341.000000
 20
373.559017
 42
0.067639
  0
VERTEX
  8
0
 10
340.925146
 20
374.109818
 42
0.084330
  0
VERTEX
  8
0
 10
340.706250
 20
374.576711
 42
0.099650
  0
VERTEX
  8
0
 10
340.381340
 20
374.888931
 42
0.142666
  0
VERTEX
  8
0
 10
340.000000
 20
375.000000
 42
0.195654
  0
VERTEX
  8
0
 10
339.618015
 20
374.844577
 42
0.086673
  0
VERTEX
  8
0
 10
339.293750
 20
374.395164
 42
0.066561
  0
VERTEX
  8
0
 10
339.073608
 20
373.729059
 42
0.046600
  0
SEQEND
  0
POLYLINE
  8
0
 66
1
 70
1
  0
VERTEX
  8
0
 10
400.500000
 20
370.435353
 42
0.042008
  0
VERTEX
  8
0
 10
405.393963
 20
367.019690
 42
0.035449
  0
VERTEX
  8
0
 10
411.070245
 20
364.246146
 42
0.035341
  0
VERTEX
  8
0
 10
417.101760
 20
362.294247
 42
0.040991
  0
VERTEX
  8
0
 10
423.056359
 20
361.330902
 42
0.007032
  0
VERTEX
  8
0
 10
426.497804
 20
361.108990
 42
0.031394
  0
VERTEX
  8
0
 10
428.519345
 20
361.134135
 42
0.097440
  0
VERTEX
  8
0
 10
429.422158
 20
361.383483
 42
0.501165
  0
VERTEX
  8
0
 10
429.500000
 20
361.816419
 42
0.115472
  0
VERTEX
  8
0
 10
427.491746
 20
363.159927
 42
0.001882
  0
VERTEX
  8
0
 10
414.711147
 20
367.911161
 42
0.002275
  0
VERTEX
  8
0
 10
402.061697
 20
372.494294
 42
0.091419
  0
VERTEX
  8
0
 10
399.164266
 20
372.964037
 42
0.168320
  0
VERTEX
  8
0
 10
398.638696
 20
372.769134
 42
0.356028
  0
VERTEX
  8
0
 10
398.558671
 20
372.370452
 42
0.085271
  0
VERTEX
  8
0
 10
399.115867
 20
371.646716
 42
0.012814
  0
SEQEND
  0
POLYLINE
  8
0
 66
1
 70
1
  0
VERTEX
  8
0
 10
347.162004
 20
370.030767
 42
0.137758
  0
VERTEX
  8
0
 10
347.733761
 20
368.760184
 42
0.079752
  0
VERTEX
  8
0
 10
349.007715
 20
367.654093
 42
0.042380
  0
VERTEX
  8
0
 10
351.304656
 20
366.484121
 42
0.009374
  0
VERTEX
  8
0
 10
355.430069
 20
364.895159
 42
-0.020920
  0
VERTEX
  8
0
 10
360.687317
 20
362.729602
 42
-0.040415
  0
VERTEX
  8
0
 10
364.647973
 20
360.496681
 42
-0.052496
  0
VERTEX
  8
0
 10
367.221410
 20
358.333327
 42
-0.194099
  0
VERTEX
  8
0
 10
368.000000
 20
356.403238
 42
-0.196541
  0
VERTEX
  8
0
 10
367.772479
 20
355.846785
 42
-0.046969
  0
VERTEX
  8
0
 10
366.993080
 20
355.189430
 42
-0.041276
  0
VERTEX
  8
0
 10
365.884598
 20
354.548437
 42
-0.030760
  0
VERTEX
  8
0
 10
364.572186
 20
354.023823
 42
-0.055239
  0
VERTEX
  8
0
 10
362.361157
 20
353.556238
 42
-0.064620
  0
VERTEX
  8
0
 10
360.218836
 20
353.622713
 42
-0.037598
  0
VERTEX
  8
0
 10
357.374578
 20
354.304423
 42
-0.007226
  0
VERTEX
  8
0
 10
352.346462
 20
355.997819
 42
0.004334
  0
VERTEX
  8
0
 10
346.918824
 20
357.860794
 42
0.046910
  0
VERTEX
  8
0
 10
344.663588
 20
358.384608
 42
0.135973
  0
VERTEX
  8
0
 10
343.331168
 20
358.202515
 42
0.134124
  0
VERTEX
  8
0
 10
342.274277
 20
357.360418
 42
0.150554
  0
VERTEX
  8
0
 10
340.998018
 20
353.664640
 42
0.081416
  0
VERTEX
  8
0
 10
341.622000
 20
348.848051
 42
0.076784
  0
VERTEX
  8
0
 10
343.839024
 20
344.194147
 42
0.103484
  0
VERTEX
  8
0
 10
347.189824
 20
340.966229
 42
0.126647
  0
VERTEX
  8
0
 10
352.533047
 20
339.263277
 42
0.079794
  0
VERTEX
  8
0
 10
359.084000
 20
339.938231
 42
0.077009
  0
VERTEX
  8
0
 10
365.325918
 20
342.693079
 42
0.101497
  0
VERTEX
  8
0
 10
369.774055
 20
347.020566
 42
0.037079
  0
VERTEX
  8
0
 10
370.916427
 20
349.003235
 42
0.060191
  0
VERTEX
  8
0
 10
371.542666
 20
350.841379
 42
0.049416
  0
VERTEX
  8
0
 10
371.781936
 20
353.020346
 42
0.017387
  0
VERTEX
  8
0
 10
371.705891
 20
356.168410
 42
0.010096
  0
VERTEX
  8
0
 10
371.525832
 20
358.439623
 42
0.014043
  0
VERTEX
  8
0
 10
371.266661
 20
360.463081
 42
0.010449
  0
VERTEX
  8
0
 10
370.971739
 20
362.117866
 42
0.148101
  0
VERTEX
  8
0
 10
370.691205
 20
362.642129
 42
0.094327
  0
VERTEX
  8
0
 10
370.132769
 20
363.021967
 42
0.002460
  0
VERTEX
  8
0
 10
367.349460
 20
364.212816
 42
0.005109
  0
VERTEX
  8
0
 10
364.047761
 20
365.566701
 42
0.003460
  0
VERTEX
  8
0
 10
360.259369
 20
367.044833
 42
-0.000417
  0
VERTEX
  8
0
 10
356.387589
 20
368.528413
 42
-0.000535
  0
VERTEX
  8
0
 10
352.826903
 20
369.900571
 42
-0.000410
  0
VERTEX
  8
0
 10
349.843743
 20
371.056654
 42
-0.004599
  0
VERTEX
  8
0
 10
348.662004
 20
371.528291
 42
0.039451
  0
VERTEX
  8
0
 10
347.708892
 20
371.833672
 42
0.259549
  0
VERTEX
  8
0
 10
347.244031
 20
371.701668
 42
0.210078
  0
VERTEX
  8
0
 10
347.049608
 20
371.203492
 42
0.026760
  0
SEQEND
  0
POLYLINE
  8
0
 66
1
 70
1
  0
VERTEX
  8
0
 10
334.097825
 20
359.850777
 42
0.056148
  0
VERTEX
  8
0
 10
333.114997
 20
355.521804
 42
0.051230
  0
VERTEX
  8
0
 10
333.075161
 20
350.943720
 42
0.049807
  0
VERTEX
  8
0
 10
333.977684
 20
346.330574
 42
0.047205
  0
VERTEX
  8
0
 10
335.784345
 20
341.898537
 42
0.024881
  0
VERTEX
  8
0
 10
337.461356
 20
339.043959
 42
0.051765
  0
VERTEX
  8
0
 10
339.091376
 20
337.046112
 42
0.051017
  0
VERTEX
  8
0
 10
341.112725
 20
335.407984
 42
0.023517
  0
VERTEX
  8
0
 10
344.034345
 20
333.687955
 42
0.018633
  0
VERTEX
  8
0
 10
347.279136
 20
332.129335
 42
0.052510
  0
VERTEX
  8
0
 10
349.675928
 20
331.373147
 42
0.050795
  0
VERTEX
  8
0
 10
352.222007
 20
331.119773
 42
0.016571
  0
VERTEX
  8
0
 10
356.000000
 20
331.253775
 42
0.039227
  0
VERTEX
  8
0
 10
361.414569
 20
332.055541
 42
0.051632
  0
VERTEX
  8
0
 10
366.137743
 20
333.665928
 42
0.054215
  0
VERTEX
  8
0
 10
370.249749
 20
336.131291
 42
0.050505
  0
VERTEX
  8
0
 10
373.844680
 20
339.475882
 42
0.019155
  0
VERTEX
  8
0
 10
376.228122
 20
342.409877
 42
0.130841
  0
VERTEX
  8
0
 10
376.919606
 20
344.122609
 42
0.649868
  0
VERTEX
  8
0
 10
376.350735
 20
344.464959
 42
0.038253
  0
VERTEX
  8
0
 10
374.250000
 20
342.740706
 42
-0.056320
  0
VERTEX
  8
0
 10
370.969661
 20
340.240575
 42
-0.033026
  0
VERTEX
  8
0
 10
366.569232
 20
337.990417
 42
-0.032152
  0
VERTEX
  8
0
 10
361.706758
 20
336.257372
 42
-0.040073
  0
VERTEX
  8
0
 10
357.005872
 20
335.314290
 42
-0.058342
  0
VERTEX
  8
0
 10
352.347385
 20
335.308076
 42
-0.056233
  0
VERTEX
  8
0
 10
347.752332
 20
336.372190
 42
-0.058361
  0
VERTEX
  8
0
 10
343.673362
 20
338.375389
 42
-0.074687
  0
VERTEX
  8
0
 10
340.537040
 20
341.138349
 42
-0.067971
  0
VERTEX
  8
0
 10
338.227343
 20
344.791680
 42
-0.038527
  0
VERTEX
  8
0
 10
336.424398
 20
349.715251
 42
-0.038610
  0
VERTEX
  8
0
 10
335.405675
 20
354.824067
 42
-0.071876
  0
VERTEX
  8
0
 10
335.506226
 20
359.036852
 42
0.008630
  0
VERTEX
  8
0
 10
335.987159
 20
362.216651
 42
0.303765
  0
VERTEX
  8
0
 10
335.671731
 20
362.858188
 42
0.458188
  0
VERTEX
  8
0
 10
335.147692
 20
362.675601
 42
0.010204
  0
SEQEND
  0
POLYLINE
  8
0
 66
1
 70
1
  0
VERTEX
  8
0
 10
432.500000
 20
360.000000
 42
0.064269
  0
VERTEX
  8
0
 10
432.810561
 20
359.617474
 42
0.051777
  0
VERTEX
  8
0
 10
433.230237
 20
359.293750
 42
0.053414
  0
VERTEX
  8
0
 10
433.689814
 20
359.073533
 42
0.085235
  0
VERTEX
  8
0
 10
434.118034
 20
359.000000
 42
0.117858
  0
VERTEX
  8
0
 10
434.449529
 20
359.079239
 42
0.186277
  0
VERTEX
  8
0
 10
434.642737
 20
359.293750
 42
0.154201
  0
VERTEX
  8
0
 10
434.661825
 20
359.617617
 42
0.076764
  0
VERTEX
  8
0
 10
434.500000
 20
360.000000
 42
0.064269
  0
VERTEX
  8
0
 10
434.189439
 20
360.382526
 42
0.051777
  0
VERTEX
  8
0
 10
433.769763
 20
360.706250
 42
0.053414
  0
VERTEX
  8
0
 10
433.310186
 20
360.926467
 42
0.085235
  0
VERTEX
  8
0
 10
432.881966
 20
361.000000
 42
0.117858
  0
VERTEX
  8
0
 10
432.550471
 20
360.920761
 42
0.186277
  0
VERTEX
  8
0
 10
432.357263
 20
360.706250
 42
0.154201
  0
VERTEX
  8
0
 10
432.338175
 20
360.382383
 42
0.076764
  0
SEQEND
  0
POLYLINE
  8
0
 66
1
 70
1
  0
VERTEX
  8
0
 10
378.000000
 20
358.618034
 42
0.059645
  0
VERTEX
  8
0
 10
378.074178
 20
357.998420
 42
0.050746
  0
VERTEX
  8
0
 10
378.293750
 20
357.377112
 42
0.053126
  0
VERTEX
  8
0
 10
378.617096
 20
356.846464
 42
0.091204
  0
VERTEX
  8
0
 10
379.000000
 20
356.500000
 42
0.131946
  0
VERTEX
  8
0
 10
379.379909
 20
356.386134
 42
0.190139
  0
VERTEX
  8
0
 10
379.706250
 20
356.504138
 42
0.143790
  0
VERTEX
  8
0
 10
379.926373
 20
356.853366
 42
0.069308
  0
VERTEX
  8
0
 10
380.000000
 20
357.381966
 42
0.059645
  0
VERTEX
  8
0
 10
379.925822
 20
358.001580
 42
0.050746
  0
VERTEX
  8
0
 10
379.706250
 20
358.622888
 42
0.053126
  0
VERTEX
  8
0
 10
379.382904
 20
359.153536
 42
0.091204
  0
VERTEX
  8
0
 10
379.000000
 20
359.500000
 42
0.131946
  0
VERTEX
  8
0
 10
378.620091
 20
359.613866
 42
0.190139
  0
VERTEX
  8
0
 10
378.293750
 20
359.495862
 42
0.143790
  0
VERTEX
  8
0
 10
378.073627
 20
359.146634
 42
0.069308
  0
SEQEND
  0
POLYLINE
  8
0
 66
1
 70
1
  0
VERTEX
  8
0
 10
443.153813
 20
353.978550
 42
0.000000
  0
VERTEX
  8
0
 10
440.807625
 20
352.023639
 42
0.000000
  0
VERTEX
  8
0
 10
443.153813
 20
351.154458
 42
0.000063
  0
VERTEX
  8
0
 10
444.435222
 20
350.679924
 42
0.000015
  0
VERTEX
  8
0
 10
446.573307
 20
349.888522
 42
0.000015
  0
VERTEX
  8
0
 10
449.030827
 20
348.979051
 42
0.000015
  0
VERTEX
  8
0
 10
451.500000
 20
348.065439
 42
-0.016733
  0
VERTEX
  8
0
 10
457.114080
 20
345.772037
 42
-0.012396
  0
VERTEX
  8
0
 10
463.163008
 20
342.879301
 42
-0.011572
  0
VERTEX
  8
0
 10
468.541465
 20
339.982746
 42
-0.049927
  0
VERTEX
  8
0
 10
471.500000
 20
337.884341
 42
0.100224
  0
VERTEX
  8
0
 10
476.745205
 20
334.902608
 42
0.001703
  0
VERTEX
  8
0
 10
508.428997
 20
324.623118
 42
0.004669
  0
VERTEX
  8
0
 10
538.603328
 20
315.256616
 42
0.017001
  0
VERTEX
  8
0
 10
558.000000
 20
310.145538
 42
0.013701
  0
VERTEX
  8
0
 10
561.765176
 20
309.396995
 42
0.009481
  0
VERTEX
  8
0
 10
566.059375
 20
308.748490
 42
0.009569
  0
VERTEX
  8
0
 10
570.212423
 20
308.282290
 42
0.019321
  0
VERTEX
  8
0
 10
573.500000
 20
308.104543
 42
-0.016259
  0
VERTEX
  8
0
 10
580.100439
 20
307.788184
 42
-0.008793
  0
VERTEX
  8
0
 10
588.195583
 20
306.992354
 42
-0.008574
  0
VERTEX
  8
0
 10
595.959106
 20
305.955821
 42
-0.025142
  0
VERTEX
  8
0
 10
601.245823
 20
304.883321
 42
0.025881
  0
VERTEX
  8
0
 10
603.050424
 20
304.520000
 42
0.043623
  0
VERTEX
  8
0
 10
604.590747
 20
304.427883
 42
0.051670
  0
VERTEX
  8
0
 10
605.919005
 20
304.602491
 42
0.064449
  0
VERTEX
  8
0
 10
607.081469
 20
305.043601
 42
0.022113
  0
VERTEX
  8
0
 10
607.853625
 20
305.501865
 42
0.039468
  0
VERTEX
  8
0
 10
608.437263
 20
305.953643
 42
0.052368
  0
VERTEX
  8
0
 10
608.781073
 20
306.338964
 42
0.367661
  0
VERTEX
  8
0
 10
608.762291
 20
306.571042
 42
0.125732
  0
VERTEX
  8
0
 10
608.373558
 20
306.801555
 42
0.000117
  0
VERTEX
  8
0
 10
598.213732
 20
309.776602
 42
0.001186
  0
VERTEX
  8
0
 10
586.846963
 20
313.072945
 42
0.000726
  0
VERTEX
  8
0
 10
573.426645
 20
316.909242
 42
-0.001894
  0
VERTEX
  8
0
 10
546.650523
 20
324.631110
 42
-0.003445
  0
VERTEX
  8
0
 10
524.838246
 20
331.174541
 42
-0.003378
  0
VERTEX
  8
0
 10
502.836126
 20
338.103538
 42
-0.001743
  0
VERTEX
  8
0
 10
475.398277
 20
347.054275
 42
0.001538
  0
VERTEX
  8
0
 10
464.909370
 20
350.480698
 42
0.002396
  0
VERTEX
  8
0
 10
455.846941
 20
353.362420
 42
0.000680
  0
VERTEX
  8
0
 10
447.948745
 20
355.820532
 42
0.081215
  0
VERTEX
  8
0
 10
446.898277
 20
355.966731
 42
0.089387
  0
VERTEX
  8
0
 10
446.203497
 20
355.824381
 42
0.026938
  0
VERTEX
  8
0
 10
445.221551
 20
355.368979
 42
0.026049
  0
VERTEX
  8
0
 10
444.154736
 20
354.729211
 42
0.025604
  0
SEQEND
  0
POLYLINE
  8
0
 66
1
 70
1
  0
VERTEX
  8
0
 10
312.000000
 20
350.894614
 42
0.068131
  0
VERTEX
  8
0
 10
312.487763
 20
347.331620
 42
0.008544
  0
VERTEX
  8
0
 10
314.714753
 20
339.846723
 42
0.006692
  0
VERTEX
  8
0
 10
317.207853
 20
332.315010
 42
0.107770
  0
VERTEX
  8
0
 10
318.593915
 20
330.042857
 42
0.038510
  0
VERTEX
  8
0
 10
319.362172
 20
329.353462
 42
0.145760
  0
VERTEX
  8
0
 10
319.958911
 20
329.125513
 42
0.164201
  0
VERTEX
  8
0
 10
320.540108
 20
329.273975
 42
0.052500
  0
VERTEX
  8
0
 10
321.242743
 20
329.842743
 42
0.189161
  0
VERTEX
  8
0
 10
321.720362
 20
330.937172
 42
0.057135
  0
VERTEX
  8
0
 10
321.579092
 20
332.778947
 42
0.029945
  0
VERTEX
  8
0
 10
320.830325
 20
335.704387
 42
0.006035
  0
VERTEX
  8
0
 10
319.127518
 20
340.799886
 42
0.004814
  0
VERTEX
  8
0
 10
317.762935
 20
344.606472
 42
0.006516
  0
VERTEX
  8
0
 10
316.452092
 20
348.017779
 42
0.004534
  0
VERTEX
  8
0
 10
315.293575
 20
350.844472
 42
0.069296
  0
VERTEX
  8
0
 10
314.755188
 20
351.750000
 42
0.065277
  0
VERTEX
  8
0
 10
313.699555
 20
352.764740
 42
0.238448
  0
VERTEX
  8
0
 10
312.810981
 20
352.914642
 42
0.251881
  0
VERTEX
  8
0
 10
312.198779
 20
352.291161
 42
0.070811
  0
SEQEND
  0
POLYLINE
  8
0
 66
1
 70
1
  0
VERTEX
  8
0
 10
300.000000
 20
317.093920
 42
0.002540
  0
VERTEX
  8
0
 10
288.371365
 20
313.227587
 42
0.019450
  0
VERTEX
  8
0
 10
282.995395
 20
311.173545
 42
0.041174
  0
VERTEX
  8
0
 10
280.122286
 20
309.655210
 42
0.217821
  0
VERTEX
  8
0
 10
279.180449
 20
308.196735
 42
0.047705
  0
VERTEX
  8
0
 10
279.130122
 20
307.172908
 42
0.140392
  0
VERTEX
  8
0
 10
279.353265
 20
306.511058
 42
0.169158
  0
VERTEX
  8
0
 10
279.859659
 20
306.140667
 42
0.077485
  0
VERTEX
  8
0
 10
280.680449
 20
306.023570
 42
0.068048
  0
VERTEX
  8
0
 10
281.985832
 20
306.219311
 42
0.001496
  0
VERTEX
  8
0
 10
288.134257
 20
308.038818
 42
0.003378
  0
VERTEX
  8
0
 10
295.320974
 20
310.242007
 42
0.002273
  0
VERTEX
  8
0
 10
303.500000
 20
312.850892
 42
0.002491
  0
VERTEX
  8
0
 10
315.370996
 20
316.762410
 42
0.018810
  0
VERTEX
  8
0
 10
320.895256
 20
318.847417
 42
0.038802
  0
VERTEX
  8
0
 10
323.868292
 20
320.380422
 42
0.221290
  0
VERTEX
  8
0
 10
324.819551
 20
321.827322
 42
0.361493
  0
VERTEX
  8
0
 10
323.911478
 20
323.316024
 42
0.130170
  0
VERTEX
  8
0
 10
321.247777
 20
323.503953
 42
0.029360
  0
VERTEX
  8
0
 10
315.205371
 20
321.979387
 42
0.002512
  0
SEQEND
  0
POLYLINE
  8
0
 66
1
 70
1
  0
VERTEX
  8
0
 10
617.218289
 20
302.845134
 42
0.221811
  0
VERTEX
  8
0
 10
618.369732
 20
301.629542
 42
0.023639
  0
VERTEX
  8
0
 10
622.151519
 20
300.339800
 42
0.028430
  0
VERTEX
  8
0
 10
626.133413
 20
299.430301
 42
0.099720
  0
VERTEX
  8
0
 10
628.750000
 20
299.511628
 42
0.073314
  0
VERTEX
  8
0
 10
630.593275
 20
300.239790
 42
0.463533
  0
VERTEX
  8
0
 10
630.751389
 20
301.108158
 42
0.148354
  0
VERTEX
  8
0
 10
629.356577
 20
302.038517
 42
0.020608
  0
VERTEX
  8
0
 10
625.950779
 20
302.917136
 42
0.011455
  0
VERTEX
  8
0
 10
621.675662
 20
303.732023
 42
0.043449
  0
VERTEX
  8
0
 10
618.966126
 20
303.945430
 42
0.107254
  0
VERTEX
  8
0
 10
617.555065
 20
303.627018
 42
0.381239
  0
SEQEND
  0
POLYLINE
  8
0
 66
1
 70
1
  0
VERTEX
  8
0
 10
637.180449
 20
297.879344
 42
0.163706
  0
VERTEX
  8
0
 10
637.809204
 20
296.654001
 42
0.068212
  0
VERTEX
  8
0
 10
639.323137
 20
295.536297
 42
0.035368
  0
VERTEX
  8
0
 10
642.050268
 20
294.288758
 42
0.007400
  0
VERTEX
  8
0
 10
647.000000
 20
292.518174
 42
-0.006464
  0
VERTEX
  8
0
 10
650.944225
 20
291.115590
 42
-0.006050
  0
VERTEX
  8
0
 10
654.939422
 20
289.581206
 42
-0.006036
  0
VERTEX
  8
0
 10
658.452400
 20
288.133655
 42
-0.020543
  0
VERTEX
  8
0
 10
660.687395
 20
287.070495
 42
0.070034
  0
VERTEX
  8
0
 10
668.075926
 20
284.413170
 42
0.022567
  0
VERTEX
  8
0
 10
679.594190
 20
282.550997
 42
0.022695
  0
VERTEX
  8
0
 10
691.271534
 20
281.734867
 42
0.066750
  0
VERTEX
  8
0
 10
699.262085
 20
282.608562
 42
-0.029029
  0
VERTEX
  8
0
 10
706.670935
 20
283.988684
 42
-0.016640
  0
VERTEX
  8
0
 10
715.725868
 20
284.831866
 42
-0.012345
  0
VERTEX
  8
0
 10
724.257712
 20
285.129636
 42
-0.122806
  0
VERTEX
  8
0
 10
727.712287
 20
284.305486
 42
0.097531
  0
VERTEX
  8
0
 10
729.674145
 20
283.732558
 42
0.086717
  0
VERTEX
  8
0
 10
731.794668
 20
283.909644
 42
0.105670
  0
VERTEX
  8
0
 10
733.411430
 20
284.724564
 42
0.227129
  0
VERTEX
  8
0
 10
734.000000
 20
285.953396
 42
-0.045543
  0
VERTEX
  8
0
 10
734.040774
 20
286.400107
 42
-0.015015
  0
VERTEX
  8
0
 10
734.179694
 20
287.045311
 42
-0.014814
  0
VERTEX
  8
0
 10
734.377553
 20
287.755450
 42
-0.016265
  0
VERTEX
  8
0
 10
734.611725
 20
288.430554
 42
0.306031
  0
VERTEX
  8
0
 10
734.428922
 20
289.219981
 42
0.163379
  0
VERTEX
  8
0
 10
733.475941
 20
289.651728
 42
0.038086
  0
VERTEX
  8
0
 10
731.100032
 20
289.711981
 42
0.003665
  0
VERTEX
  8
0
 10
725.326864
 20
289.376121
 42
-0.033234
  0
VERTEX
  8
0
 10
712.153953
 20
289.389324
 42
-0.011991
  0
VERTEX
  8
0
 10
693.494759
 20
291.100017
 42
-0.011327
  0
VERTEX
  8
0
 10
672.157850
 20
294.064627
 42
-0.010098
  0
VERTEX
  8
0
 10
650.139921
 20
298.091866
 42
0.004336
  0
VERTEX
  8
0
 10
642.129574
 20
299.652613
 42
0.050081
  0
VERTEX
  8
0
 10
638.942259
 20
299.919952
 42
0.212699
  0
VERTEX
  8
0
 10
637.591479
 20
299.291359
 42
0.219857
  0
SEQEND
  0
POLYLINE
  8
0
 66
1
 70
1
  0
VERTEX
  8
0
 10
612.189753
 20
284.381676
 42
0.051703
  0
VERTEX
  8
0
 10
612.890090
 20
283.812922
 42
0.061341
  0
VERTEX
  8
0
 10
613.654633
 20
283.437703
 42
0.071960
  0
VERTEX
  8
0
 10
614.365160
 20
283.301025
 42
0.151121
  0
VERTEX
  8
0
 10
614.904039
 20
283.440693
 42
0.100978
  0
VERTEX
  8
0
 10
615.853624
 20
284.333963
 42
0.303463
  0
VERTEX
  8
0
 10
615.875140
 20
285.180553
 42
0.197863
  0
VERTEX
  8
0
 10
614.990898
 20
285.806848
 42
0.056456
  0
VERTEX
  8
0
 10
613.285714
 20
286.000000
 42
0.009828
  0
VERTEX
  8
0
 10
611.631925
 20
285.967491
 42
0.238423
  0
VERTEX
  8
0
 10
611.240734
 20
285.750000
 42
0.341131
  0
VERTEX
  8
0
 10
611.264421
 20
285.369854
 42
0.016417
  0
SEQEND
  0
POLYLINE
  8
0
 66
1
 70
1
  0
VERTEX
  8
0
 10
562.254622
 20
621.475765
 42
0.027269
  0
VERTEX
  8
0
 10
560.560899
 20
617.848684
 42
0.000560
  0
VERTEX
  8
0
 10
553.097133
 20
599.228298
 42
0.000175
  0
VERTEX
  8
0
 10
545.241251
 20
579.545905
 42
0.095137
  0
VERTEX
  8
0
 10
545.000000
 20
578.289469
 42
0.762232
  0
VERTEX
  8
0
 10
545.566672
 20
578.133718
 42
0.023380
  0
VERTEX
  8
0
 10
547.383458
 20
581.542260
 42
0.010472
  0
VERTEX
  8
0
 10
550.453055
 20
588.379014
 42
0.002251
  0
VERTEX
  8
0
 10
555.469609
 20
600.358935
 42
0.003254
  0
VERTEX
  8
0
 10
558.748022
 20
608.436539
 42
0.005109
  0
VERTEX
  8
0
 10
561.449147
 20
615.424963
 42
0.001583
  0
VERTEX
  8
0
 10
563.701388
 20
621.492274
 42
0.170120
  0
VERTEX
  8
0
 10
563.714576
 20
622.356272
 42
0.229278
  0
VERTEX
  8
0
 10
563.474197
 20
622.602926
 42
0.226303
  0
VERTEX
  8
0
 10
563.129623
 20
622.569192
 42
0.098216
  0
VERTEX
  8
0
 10
562.697189
 20
622.175525
 42
0.036289
  0
SEQEND
  0
POLYLINE
  8
0
 66
1
 70
1
  0
VERTEX
  8
0
 10
493.000000
 20
597.769122
 42
0.053316
  0
VERTEX
  8
0
 10
494.172458
 20
596.813643
 42
0.001686
  0
VERTEX
  8
0
 10
499.346875
 20
593.468619
 42
0.003258
  0
VERTEX
  8
0
 10
505.494443
 20
589.580144
 42
0.002252
  0
VERTEX
  8
0
 10
512.500000
 20
585.256305
 42
-0.000260
  0
VERTEX
  8
0
 10
519.777136
 20
580.804769
 42
-0.000294
  0
VERTEX
  8
0
 10
526.757802
 20
576.523936
 42
-0.000268
  0
VERTEX
  8
0
 10
532.689088
 20
572.877437
 42
-0.001619
  0
VERTEX
  8
0
 10
535.760601
 20
570.973088
 42
0.012099
  0
VERTEX
  8
0
 10
537.818935
 20
569.755881
 42
0.019083
  0
VERTEX
  8
0
 10
539.646615
 20
568.823616
 42
0.013796
  0
VERTEX
  8
0
 10
541.152833
 20
568.176248
 42
0.299430
  0
VERTEX
  8
0
 10
541.602358
 20
568.269024
 42
0.458245
  0
VERTEX
  8
0
 10
541.548400
 20
568.997037
 42
0.013903
  0
VERTEX
  8
0
 10
538.745570
 20
570.954452
 42
0.006650
  0
VERTEX
  8
0
 10
533.157684
 20
574.524508
 42
0.000341
  0
VERTEX
  8
0
 10
514.913699
 20
585.824369
 42
0.001915
  0
VERTEX
  8
0
 10
502.147056
 20
593.652204
 42
0.011786
  0
VERTEX
  8
0
 10
495.464777
 20
597.501590
 42
0.074996
  0
VERTEX
  8
0
 10
493.284349
 20
598.295895
 42
0.741019
  0
SEQEND
  0
POLYLINE
  8
0
 66
1
 70
1
  0
VERTEX
  8
0
 10
544.000000
 20
558.464453
 42
0.080752
  0
VERTEX
  8
0
 10
544.333009
 20
556.415975
 42
0.000924
  0
VERTEX
  8
0
 10
548.753524
 20
543.260061
 42
0.000726
  0
VERTEX
  8
0
 10
553.275839
 20
529.946887
 42
0.105927
  0
VERTEX
  8
0
 10
554.113130
 20
528.550000
 42
0.041126
  0
VERTEX
  8
0
 10
554.454494
 20
528.239836
 42
0.126224
  0
VERTEX
  8
0
 10
554.739482
 20
528.117925
 42
0.269947
  0
VERTEX
  8
0
 10
554.922318
 20
528.189730
 42
0.168891
  0
VERTEX
  8
0
 10
555.000000
 20
528.413149
 42
0.079057
  0
VERTEX
  8
0
 10
554.578534
 20
531.062085
 42
0.001580
  0
VERTEX
  8
0
 10
550.298429
 20
544.032892
 42
0.000810
  0
VERTEX
  8
0
 10
545.790700
 20
557.477263
 42
0.174771
  0
VERTEX
  8
0
 10
544.957725
 20
558.526128
 42
0.048765
  0
VERTEX
  8
0
 10
544.590387
 20
558.706354
 42
0.106140
  0
VERTEX
  8
0
 10
544.281332
 20
558.752172
 42
0.182871
  0
VERTEX
  8
0
 10
544.081295
 20
558.661385
 42
0.198288
  0
SEQEND
  0
POLYLINE
  8
0
 66
1
 70
1
  0
VERTEX
  8
0
 10
469.000000
 20
591.045623
 42
0.074604
  0
VERTEX
  8
0
 10
469.150946
 20
590.039600
 42
0.000830
  0
VERTEX
  8
0
 10
471.185399
 20
583.451630
 42
0.002560
  0
VERTEX
  8
0
 10
473.588275
 20
575.853737
 42
0.001663
  0
VERTEX
  8
0
 10
476.439656
 20
567.095623
 42
-0.000606
  0
VERTEX
  8
0
 10
479.701256
 20
557.148973
 42
-0.000423
  0
VERTEX
  8
0
 10
483.356656
 20
545.923402
 42
-0.000427
  0
VERTEX
  8
0
 10
486.842884
 20
535.155218
 42
-0.000887
  0
VERTEX
  8
0
 10
489.539712
 20
526.750000
 42
0.004822
  0
VERTEX
  8
0
 10
491.782337
 20
519.944964
 42
0.007832
  0
VERTEX
  8
0
 10
493.833156
 20
514.214062
 42
0.002560
  0
VERTEX
  8
0
 10
495.686056
 20
509.356902
 42
0.309676
  0
VERTEX
  8
0
 10
496.207045
 20
509.000000
 42
0.141261
  0
VERTEX
  8
0
 10
496.553502
 20
509.099875
 42
0.149569
  0
VERTEX
  8
0
 10
496.784443
 20
509.367188
 42
0.119104
  0
VERTEX
  8
0
 10
496.857502
 20
509.772127
 42
0.072808
  0
VERTEX
  8
0
 10
496.758664
 20
510.250000
 42
-0.008755
  0
VERTEX
  8
0
 10
495.733654
 20
513.224982
 42
-0.000033
  0
VERTEX
  8
0
 10
484.438044
 20
547.980813
 42
-0.000058
  0
VERTEX
  8
0
 10
473.451667
 20
581.805904
 42
-0.004825
  0
VERTEX
  8
0
 10
471.820527
 20
587.000000
 42
0.022934
  0
VERTEX
  8
0
 10
470.919582
 20
589.542944
 42
0.055677
  0
VERTEX
  8
0
 10
469.970527
 20
591.290165
 42
0.308113
  0
VERTEX
  8
0
 10
469.373104
 20
591.517906
 42
0.347345
  0
SEQEND
  0
POLYLINE
  8
0
 66
1
 70
1
  0
VERTEX
  8
0
 10
415.625559
 20
574.203159
 42
0.206476
  0
VERTEX
  8
0
 10
415.516696
 20
573.464597
 42
0.003106
  0
VERTEX
  8
0
 10
416.690885
 20
569.173468
 42
0.007803
  0
VERTEX
  8
0
 10
418.181104
 20
564.159709
 42
0.005006
  0
VERTEX
  8
0
 10
420.059241
 20
558.386628
 42
-0.001669
  0
VERTEX
  8
0
 10
422.530973
 20
550.957864
 42
-0.000626
  0
VERTEX
  8
0
 10
425.947771
 20
540.529197
 42
-0.000620
  0
VERTEX
  8
0
 10
429.640580
 20
529.162448
 42
-0.000753
  0
VERTEX
  8
0
 10
433.072238
 20
518.500000
 42
0.000115
  0
VERTEX
  8
0
 10
436.173043
 20
508.823234
 42
0.000178
  0
VERTEX
  8
0
 10
438.859004
 20
500.457944
 42
0.000054
  0
VERTEX
  8
0
 10
441.195082
 20
493.193900
 42
0.005477
  0
VERTEX
  8
0
 10
441.531358
 20
492.186618
 42
0.077823
  0
VERTEX
  8
0
 10
441.775028
 20
491.728127
 42
0.109567
  0
VERTEX
  8
0
 10
442.125381
 20
491.427778
 42
0.128862
  0
VERTEX
  8
0
 10
442.525718
 20
491.332298
 42
0.133634
  0
VERTEX
  8
0
 10
442.915307
 20
491.447657
 42
0.331103
  0
VERTEX
  8
0
 10
443.161407
 20
492.067880
 42
0.002644
  0
VERTEX
  8
0
 10
441.675578
 20
497.499183
 42
0.008037
  0
VERTEX
  8
0
 10
439.795628
 20
503.836108
 42
0.004899
  0
VERTEX
  8
0
 10
437.382238
 20
511.261039
 42
-0.001377
  0
VERTEX
  8
0
 10
434.405829
 20
520.203371
 42
-0.000732
  0
VERTEX
  8
0
 10
430.766275
 20
531.293935
 42
-0.000728
  0
VERTEX
  8
0
 10
427.079050
 20
542.641459
 42
-0.001131
  0
VERTEX
  8
0
 10
423.934815
 20
552.441719
 42
0.000990
  0
VERTEX
  8
0
 10
421.229955
 20
560.880672
 42
0.001601
  0
VERTEX
  8
0
 10
418.891614
 20
568.048159
 42
0.000225
  0
VERTEX
  8
0
 10
416.791099
 20
574.407831
 42
0.117015
  0
VERTEX
  8
0
 10
416.575083
 20
574.758250
 42
0.220396
  0
VERTEX
  8
0
 10
416.386970
 20
574.827246
 42
0.112142
  0
VERTEX
  8
0
 10
416.141550
 20
574.749802
 42
0.076406
  0
VERTEX
  8
0
 10
415.873023
 20
574.531973
 42
0.045825
  0
SEQEND
  0
POLYLINE
  8
0
 66
1
 70
1
  0
VERTEX
  8
0
 10
454.000000
 20
543.254386
 42
0.004805
  0
VERTEX
  8
0
 10
448.901160
 20
541.466803
 42
0.008896
  0
VERTEX
  8
0
 10
444.801826
 20
539.902242
 42
0.005262
  0
VERTEX
  8
0
 10
441.632119
 20
538.588504
 42
0.690174
  0
VERTEX
  8
0
 10
441.644516
 20
538.285161
 42
0.156717
  0
VERTEX
  8
0
 10
443.498819
 20
538.265050
 42
0.001768
  0
VERTEX
  8
0
 10
455.527367
 20
542.033370
 42
0.002340
  0
VERTEX
  8
0
 10
467.306204
 20
545.830000
 42
0.110332
  0
VERTEX
  8
0
 10
469.450000
 20
547.104200
 42
0.645090
  0
VERTEX
  8
0
 10
469.254011
 20
547.674385
 42
0.084725
  0
VERTEX
  8
0
 10
467.493938
 20
547.541850
 42
0.017949
  0
VERTEX
  8
0
 10
462.876071
 20
546.213466
 42
0.002899
  0
SEQEND
  0
POLYLINE
  8
0
 66
1
 70
1
  0
VERTEX
  8
0
 10
390.145582
 20
534.250000
 42
-0.000346
  0
VERTEX
  8
0
 10
389.240630
 20
521.233226
 42
-0.000439
  0
VERTEX
  8
0
 10
388.385836
 20
509.210937
 42
-0.000344
  0
VERTEX
  8
0
 10
387.653086
 20
499.128469
 42
-0.003608
  0
VERTEX
  8
0
 10
387.320223
 20
495.000000
 42
0.008058
  0
VERTEX
  8
0
 10
387.107324
 20
492.029630
 42
0.035875
  0
VERTEX
  8
0
 10
387.135777
 20
490.282353
 42
0.122776
  0
VERTEX
  8
0
 10
387.388722
 20
489.549457
 42
0.468351
  0
VERTEX
  8
0
 10
387.805484
 20
489.500000
 42
0.177811
  0
VERTEX
  8
0
 10
388.276838
 20
490.449094
 42
0.002052
  0
VERTEX
  8
0
 10
389.025462
 20
497.559171
 42
0.005832
  0
VERTEX
  8
0
 10
389.777135
 20
505.969645
 42
0.003471
  0
VERTEX
  8
0
 10
390.485764
 20
516.000000
 42
-0.000680
  0
VERTEX
  8
0
 10
391.175593
 20
526.606232
 42
-0.000647
  0
VERTEX
  8
0
 10
391.905533
 20
537.387500
 42
-0.000641
  0
VERTEX
  8
0
 10
392.575249
 20
546.915108
 42
-0.002297
  0
VERTEX
  8
0
 10
393.038911
 20
553.000000
 42
0.000786
  0
VERTEX
  8
0
 10
393.789338
 20
562.470470
 42
0.016504
  0
VERTEX
  8
0
 10
393.915404
 20
565.301730
 42
0.070430
  0
VERTEX
  8
0
 10
393.749159
 20
566.581940
 42
0.337235
  0
VERTEX
  8
0
 10
393.199818
 20
567.000000
 42
0.386566
  0
VERTEX
  8
0
 10
392.851055
 20
566.682988
 42
0.000579
  0
VERTEX
  8
0
 10
391.972561
 20
557.379688
 42
0.003790
  0
VERTEX
  8
0
 10
391.067398
 20
546.807743
 42
0.002279
  0
SEQEND
  0
POLYLINE
  8
0
 66
1
 70
1
  0
VERTEX
  8
0
 10
356.000000
 20
554.376189
 42
-0.015619
  0
VERTEX
  8
0
 10
355.974062
 20
553.546023
 42
-0.000007
  0
VERTEX
  8
0
 10
354.231212
 20
525.689154
 42
-0.000118
  0
VERTEX
  8
0
 10
352.669852
 20
500.832407
 42
-0.000391
  0
VERTEX
  8
0
 10
351.627262
 20
484.500000
 42
0.003095
  0
VERTEX
  8
0
 10
351.429470
 20
481.113536
 42
0.040914
  0
VERTEX
  8
0
 10
351.466557
 20
479.862345
 42
0.787573
  0
VERTEX
  8
0
 10
351.660451
 20
479.837953
 42
0.031286
  0
VERTEX
  8
0
 10
352.018840
 20
481.000000
 42
0.031335
  0
VERTEX
  8
0
 10
352.405849
 20
483.202267
 42
0.003423
  0
VERTEX
  8
0
 10
352.942274
 20
488.318750
 42
0.004179
  0
VERTEX
  8
0
 10
353.488813
 20
494.425663
 42
0.003363
  0
VERTEX
  8
0
 10
353.977358
 20
501.000000
 42
-0.001288
  0
VERTEX
  8
0
 10
354.508805
 20
508.577075
 42
-0.000723
  0
VERTEX
  8
0
 10
355.191658
 20
517.782382
 42
-0.000721
  0
VERTEX
  8
0
 10
355.908266
 20
527.078854
 42
-0.001177
  0
VERTEX
  8
0
 10
356.545975
 20
534.961299
 42
0.000562
  0
VERTEX
  8
0
 10
357.696734
 20
548.971121
 42
0.014545
  0
VERTEX
  8
0
 10
357.893312
 20
552.766891
 42
0.068095
  0
VERTEX
  8
0
 10
357.701183
 20
554.454972
 42
0.342941
  0
VERTEX
  8
0
 10
357.000000
 20
555.000000
 42
0.060493
  0
VERTEX
  8
0
 10
356.617593
 20
554.953564
 42
0.079181
  0
VERTEX
  8
0
 10
356.293750
 20
554.816756
 42
0.097225
  0
VERTEX
  8
0
 10
356.076919
 20
554.614114
 42
0.157629
  0
SEQEND
  0
POLYLINE
  8
0
 66
1
 70
1
  0
VERTEX
  8
0
 10
290.000000
 20
533.214316
 42
0.173375
  0
VERTEX
  8
0
 10
290.197874
 20
532.660816
 42
0.000407
  0
VERTEX
  8
0
 10
295.738106
 20
525.913658
 42
0.002558
  0
VERTEX
  8
0
 10
302.045071
 20
518.324939
 42
0.001580
  0
VERTEX
  8
0
 10
309.533979
 20
509.464316
 42
-0.000954
  0
VERTEX
  8
0
 10
317.705178
 20
499.820952
 42
-0.000868
  0
VERTEX
  8
0
 10
326.103584
 20
489.835909
 42
-0.000868
  0
VERTEX
  8
0
 10
333.583891
 20
480.879499
 42
-0.002803
  0
VERTEX
  8
0
 10
338.510453
 20
474.891969
 42
0.002873
  0
VERTEX
  8
0
 10
344.748204
 20
467.313039
 42
0.015093
  0
VERTEX
  8
0
 10
348.323041
 20
463.274450
 42
0.032462
  0
VERTEX
  8
0
 10
350.393503
 20
461.341157
 42
0.638697
  0
VERTEX
  8
0
 10
350.985598
 20
461.627555
 42
0.154513
  0
VERTEX
  8
0
 10
350.796150
 20
462.193340
 42
0.004264
  0
VERTEX
  8
0
 10
349.233439
 20
464.299969
 42
0.008400
  0
VERTEX
  8
0
 10
347.314524
 20
466.754355
 42
0.005621
  0
VERTEX
  8
0
 10
345.041025
 20
469.500000
 42
-0.002032
  0
VERTEX
  8
0
 10
341.461389
 20
473.760398
 42
-0.000264
  0
VERTEX
  8
0
 10
333.862600
 20
482.889063
 42
-0.000307
  0
VERTEX
  8
0
 10
324.860134
 20
493.729166
 42
-0.000257
  0
VERTEX
  8
0
 10
315.314284
 20
505.250000
 42
0.001467
  0
VERTEX
  8
0
 10
306.135993
 20
516.272829
 42
0.002399
  0
VERTEX
  8
0
 10
298.285042
 20
525.554688
 42
0.000301
  0
VERTEX
  8
0
 10
291.260551
 20
533.769086
 42
0.219088
  0
VERTEX
  8
0
 10
290.758857
 20
534.000000
 42
0.102645
  0
VERTEX
  8
0
 10
290.469287
 20
533.939921
 42
0.098723
  0
VERTEX
  8
0
 10
290.222914
 20
533.769205
 42
0.097055
  0
VERTEX
  8
0
 10
290.057834
 20
533.514204
 42
0.095545
  0
SEQEND
  0
POLYLINE
  8
0
 66
1
 70
1
  0
VERTEX
  8
0
 10
375.014463
 20
484.749148
 42
0.002018
  0
VERTEX
  8
0
 10
381.428524
 20
476.780901
 42
0.014145
  0
VERTEX
  8
0
 10
384.680429
 20
472.998144
 42
0.036911
  0
VERTEX
  8
0
 10
386.451469
 20
471.319432
 42
0.632413
  0
VERTEX
  8
0
 10
387.000000
 20
471.579664
 42
0.173244
  0
VERTEX
  8
0
 10
386.599105
 20
472.701962
 42
0.001904
  0
VERTEX
  8
0
 10
381.360914
 20
479.049048
 42
0.006425
  0
VERTEX
  8
0
 10
375.808895
 20
485.552637
 42
0.007792
  0
VERTEX
  8
0
 10
370.432020
 20
491.500000
 42
0.044071
  0
VERTEX
  8
0
 10
369.335701
 20
492.485197
 42
0.847055
  0
VERTEX
  8
0
 10
369.179620
 20
492.336379
 42
0.016754
  0
VERTEX
  8
0
 10
371.069826
 20
489.743129
 42
0.002589
  0
SEQEND
  0
POLYLINE
  8
0
 66
1
 70
1
  0
VERTEX
  8
0
 10
503.348289
 20
469.475608
 42
-0.064100
  0
VERTEX
  8
0
 10
503.401437
 20
462.988103
 42
-0.060432
  0
VERTEX
  8
0
 10
501.824762
 20
456.560540
 42
-0.026953
  0
VERTEX
  8
0
 10
497.712497
 20
447.230993
 42
-0.003157
  0
VERTEX
  8
0
 10
487.298896
 20
427.000000
 42
0.013707
  0
VERTEX
  8
0
 10
482.117250
 20
416.389072
 42
0.040148
  0
VERTEX
  8
0
 10
479.354665
 20
408.740396
 42
0.057048
  0
VERTEX
  8
0
 10
478.388059
 20
402.446137
 42
0.064733
  0
VERTEX
  8
0
 10
478.941831
 20
396.369323
 42
0.072899
  0
VERTEX
  8
0
 10
481.539643
 20
389.585232
 42
0.083306
  0
VERTEX
  8
0
 10
485.890940
 20
384.176445
 42
0.081577
  0
VERTEX
  8
0
 10
491.852235
 20
380.403180
 42
0.066421
  0
VERTEX
  8
0
 10
499.146198
 20
378.393440
 42
0.086863
  0
VERTEX
  8
0
 10
506.604795
 20
378.670095
 42
0.065291
  0
VERTEX
  8
0
 10
514.358201
 20
381.419420
 42
0.065448
  0
VERTEX
  8
0
 10
521.121566
 20
386.065066
 42
0.088373
  0
VERTEX
  8
0
 10
525.673828
 20
391.907284
 42
0.077082
  0
VERTEX
  8
0
 10
527.618404
 20
397.551662
 42
0.059590
  0
VERTEX
  8
0
 10
528.001780
 20
404.055234
 42
0.070359
  0
VERTEX
  8
0
 10
526.935722
 20
409.296879
 42
0.317481
  0
VERTEX
  8
0
 10
524.523833
 20
411.000000
 42
0.138537
  0
VERTEX
  8
0
 10
523.223192
 20
410.632573
 42
0.190531
  0
VERTEX
  8
0
 10
522.501608
 20
409.670664
 42
0.098652
  0
VERTEX
  8
0
 10
522.377507
 20
407.910411
 42
0.023688
  0
VERTEX
  8
0
 10
522.885799
 20
405.012756
 42
-0.122488
  0
VERTEX
  8
0
 10
522.713286
 20
397.430102
 42
-0.116258
  0
VERTEX
  8
0
 10
519.023674
 20
390.643844
 42
-0.103905
  0
VERTEX
  8
0
 10
512.268364
 20
385.674148
 42
-0.081267
  0
VERTEX
  8
0
 10
503.461316
 20
383.283852
 42
-0.015007
  0
VERTEX
  8
0
 10
501.249947
 20
383.122504
 42
-0.013885
  0
VERTEX
  8
0
 10
498.974753
 20
383.088252
 42
-0.014029
  0
VERTEX
  8
0
 10
496.948392
 20
383.170915
 42
-0.044298
  0
VERTEX
  8
0
 10
495.607260
 20
383.383724
 42
-0.088870
  0
VERTEX
  8
0
 10
492.494744
 20
384.785572
 42
-0.046098
  0
VERTEX
  8
0
 10
489.203449
 20
387.516327
 42
-0.044816
  0
VERTEX
  8
0
 10
486.322763
 20
390.960733
 42
-0.060606
  0
VERTEX
  8
0
 10
484.429005
 20
394.546727
 42
-0.094091
  0
VERTEX
  8
0
 10
483.281932
 20
400.952917
 42
-0.070394
  0
VERTEX
  8
0
 10
484.363089
 20
408.058046
 42
-0.043149
  0
VERTEX
  8
0
 10
488.052272
 20
417.353649
 42
-0.011669
  0
VERTEX
  8
0
 10
495.478729
 20
431.364762
 42
0.005962
  0
VERTEX
  8
0
 10
501.777642
 20
442.927694
 42
0.025612
  0
VERTEX
  8
0
 10
505.085678
 20
450.034146
 42
0.040470
  0
VERTEX
  8
0
 10
506.856361
 20
455.686994
 42
0.037909
  0
VERTEX
  8
0
 10
507.742503
 20
461.676707
 42
0.015137
  0
VERTEX
  8
0
 10
507.985830
 20
467.633528
 42
0.060444
  0
VERTEX
  8
0
 10
507.584846
 20
471.257930
 42
0.126735
  0
VERTEX
  8
0
 10
506.541710
 20
473.246761
 42
0.211998
  0
VERTEX
  8
0
 10
504.845024
 20
474.000000
 42
0.077076
  0
VERTEX
  8
0
 10
503.697832
 20
473.822102
 42
0.240381
  0
VERTEX
  8
0
 10
503.158321
 20
473.288912
 42
0.104170
  0
VERTEX
  8
0
 10
503.033505
 20
472.178044
 42
0.010129
  0
SEQEND
  0
POLYLINE
  8
0
 66
1
 70
1
  0
VERTEX
  8
0
 10
475.500000
 20
465.361333
 42
0.004773
  0
VERTEX
  8
0
 10
464.058027
 20
461.517118
 42
0.034655
  0
VERTEX
  8
0
 10
458.726475
 20
459.244389
 42
0.117558
  0
VERTEX
  8
0
 10
456.663332
 20
457.484374
 42
0.369533
  0
VERTEX
  8
0
 10
456.793566
 20
455.806434
 42
0.218113
  0
VERTEX
  8
0
 10
457.974609
 20
455.367407
 42
0.032235
  0
VERTEX
  8
0
 10
460.560929
 20
455.726724
 42
0.020638
  0
VERTEX
  8
0
 10
464.635048
 20
456.740001
 42
0.004476
  0
VERTEX
  8
0
 10
471.575310
 20
458.841239
 42
0.002862
  0
VERTEX
  8
0
 10
485.000776
 20
463.122020
 42
0.019211
  0
VERTEX
  8
0
 10
491.567257
 20
465.539880
 42
0.036250
  0
VERTEX
  8
0
 10
495.111757
 20
467.312328
 42
0.316167
  0
VERTEX
  8
0
 10
495.794006
 20
468.831127
 42
0.078177
  0
VERTEX
  8
0
 10
495.561385
 20
469.475808
 42
0.067568
  0
VERTEX
  8
0
 10
495.132892
 20
470.054626
 42
0.069708
  0
VERTEX
  8
0
 10
494.581212
 20
470.482271
 42
0.095649
  0
VERTEX
  8
0
 10
493.988516
 20
470.684957
 42
0.102827
  0
VERTEX
  8
0
 10
492.916724
 20
470.613958
 42
0.002320
  0
VERTEX
  8
0
 10
487.943502
 20
469.206911
 42
0.005123
  0
VERTEX
  8
0
 10
482.122329
 20
467.465972
 42
0.003433
  0
SEQEND
  0
ENDSEC
  0
EOF
